<svg width="227" height="27" viewBox="0 0 227 27" fill="none" xmlns="http://www.w3.org/2000/svg">
<path d="M22.2235 7.24774C22.578 6.88991 22.8541 6.46096 23.0341 5.98866C23.214 5.51636 23.2938 5.01121 23.2681 4.50586C23.2425 4.00051 23.1121 3.50621 22.8853 3.05492C22.6585 2.60363 22.3404 2.20539 21.9515 1.88595C21.5627 1.56651 21.1117 1.33298 20.6278 1.20045C20.1439 1.06793 19.6379 1.03936 19.1424 1.11659C18.6468 1.19383 18.1729 1.37514 17.7512 1.64882C17.3294 1.9225 16.9693 2.28245 16.6941 2.7054C16.5235 2.8775 2.25652 20.6235 2.12329 20.8279C1.76927 21.1859 1.49358 21.6148 1.31404 22.087C1.1345 22.5592 1.05509 23.0641 1.08094 23.5692C1.1068 24.0743 1.23734 24.5683 1.46414 25.0193C1.69094 25.4703 2.00895 25.8683 2.39764 26.1876C2.78632 26.5068 3.23704 26.7402 3.72068 26.8728C4.20432 27.0053 4.71013 27.034 5.20543 26.957C5.70073 26.8799 6.17452 26.6989 6.59619 26.4256C7.01786 26.1523 7.37804 25.7927 7.65346 25.3702C7.82324 25.2012 22.0902 7.45289 22.2235 7.24774Z" fill="#545454"/>
<path d="M30.48 15.6692C30.8348 15.3115 31.1112 14.8827 31.2914 14.4104C31.4716 13.9381 31.5516 13.4329 31.5262 12.9274C31.5008 12.4219 31.3706 11.9275 31.1439 11.476C30.9173 11.0246 30.5992 10.6262 30.2104 10.3066C29.8216 9.98694 29.3706 9.75324 28.8866 9.62058C28.4027 9.48792 27.8965 9.45926 27.4009 9.53643C26.9053 9.61361 26.4312 9.7949 26.0094 10.0686C25.5876 10.3423 25.2274 10.7023 24.9521 11.1253C24.78 11.2959 17.2864 20.621 17.1524 20.8231C16.7976 21.1808 16.5212 21.6097 16.341 22.082C16.1608 22.5542 16.0808 23.0594 16.1062 23.5649C16.1316 24.0704 16.2618 24.5648 16.4885 25.0163C16.7151 25.4677 17.0332 25.8661 17.422 26.1857C17.8108 26.5054 18.2618 26.7391 18.7458 26.8717C19.2297 27.0044 19.7359 27.033 20.2315 26.9559C20.7271 26.8787 21.2012 26.6974 21.623 26.4237C22.0448 26.15 22.405 25.79 22.6803 25.367C22.8524 25.1964 30.346 15.8751 30.48 15.6692Z" fill="#545454"/>
<path d="M38.2015 5.51371C38.6532 3.56865 37.457 1.62233 35.5297 1.16648C33.6024 0.710624 31.6738 1.91786 31.2222 3.86292C30.7705 5.80798 31.9667 7.75431 33.894 8.21016C35.8213 8.66601 37.7499 7.45877 38.2015 5.51371Z" fill="#545454"/>
<path d="M5.97706 8.05851C7.81682 7.32113 8.71594 5.21823 7.9853 3.36153C7.25466 1.50483 5.17094 0.597421 3.33118 1.33479C1.49142 2.07216 0.592304 4.17508 1.32294 6.03179C2.05359 7.88849 4.1373 8.79588 5.97706 8.05851Z" fill="#545454"/>
<path d="M57.4813 26.1184C54.6558 26.1184 52.2288 25.5795 50.2003 24.5017C48.1718 23.424 46.6142 21.9031 45.5274 19.9391C44.4649 17.9751 43.9336 15.6758 43.9336 13.0412C43.9336 10.4067 44.4649 8.11934 45.5274 6.17932C46.6142 4.21535 48.1718 2.69447 50.2003 1.61668C52.2288 0.538895 54.6558 0 57.4813 0C58.5921 0 59.7392 0.13173 60.9225 0.395189C62.13 0.634697 63.1926 1.00594 64.1102 1.5089C64.7864 1.86817 65.2573 2.32323 65.523 2.8741C65.7886 3.42497 65.8852 3.98782 65.8128 4.56264C65.7403 5.13746 65.523 5.65241 65.1607 6.10747C64.8226 6.56254 64.388 6.8739 63.8567 7.04155C63.3254 7.18526 62.7458 7.10143 62.1179 6.79007C60.6931 6.0955 59.2321 5.74821 57.7349 5.74821C55.489 5.74821 53.7985 6.38291 52.6635 7.6523C51.5285 8.89775 50.961 10.6941 50.961 13.0412C50.961 15.4124 51.5285 17.2327 52.6635 18.502C53.7985 19.7475 55.489 20.3702 57.7349 20.3702C58.3627 20.3702 59.0389 20.2984 59.7634 20.1547C60.4879 19.987 61.2003 19.7355 61.9006 19.4002C62.6251 19.0888 63.265 19.005 63.8204 19.1487C64.4 19.2924 64.8709 19.5798 65.2332 20.011C65.5954 20.4421 65.8128 20.945 65.8852 21.5199C65.9818 22.0707 65.9094 22.6216 65.6679 23.1725C65.4264 23.7233 64.9796 24.1664 64.3276 24.5017C63.4824 25.0047 62.4319 25.3999 61.1761 25.6873C59.9445 25.9747 58.7129 26.1184 57.4813 26.1184Z" fill="#545454"/>
<path d="M80.9566 26.1184C78.3726 26.1184 76.1026 25.5795 74.1465 24.5017C72.2146 23.4 70.7052 21.8671 69.6185 19.9032C68.5318 17.9392 67.9884 15.6519 67.9884 13.0412C67.9884 10.4067 68.5197 8.11934 69.5823 6.17932C70.669 4.21535 72.1904 2.69447 74.1465 1.61668C76.1026 0.538895 78.3726 0 80.9566 0C83.5405 0 85.7985 0.538895 87.7304 1.61668C89.6865 2.69447 91.2079 4.21535 92.2946 6.17932C93.3813 8.11934 93.9247 10.4067 93.9247 13.0412C93.9247 15.6519 93.3813 17.9392 92.2946 19.9032C91.2079 21.8671 89.6865 23.4 87.7304 24.5017C85.7985 25.5795 83.5405 26.1184 80.9566 26.1184ZM80.9566 20.5858C82.8402 20.5858 84.3133 19.9271 85.3759 18.6098C86.4626 17.2686 87.0059 15.4124 87.0059 13.0412C87.0059 10.6701 86.4746 8.8259 85.4121 7.5086C84.3495 6.1913 82.8643 5.53265 80.9566 5.53265C79.0488 5.53265 77.5636 6.1913 76.501 7.5086C75.4385 8.8259 74.9072 10.6701 74.9072 13.0412C74.9072 15.4124 75.4385 17.2686 76.501 18.6098C77.5636 19.9271 79.0488 20.5858 80.9566 20.5858Z" fill="#545454"/>
<path d="M100.939 26.0466C99.9731 26.0466 99.2245 25.7831 98.6932 25.2562C98.1861 24.7293 97.9325 23.9868 97.9325 23.0288V3.08966C97.9325 2.10768 98.2102 1.3652 98.7656 0.862231C99.3211 0.335311 100.106 0.0718517 101.12 0.0718517C101.941 0.0718517 102.605 0.239508 103.112 0.57482C103.62 0.886181 104.078 1.4131 104.489 2.15558L111.625 14.9094L118.761 2.15558C119.196 1.4131 119.655 0.886181 120.138 0.57482C120.645 0.239508 121.321 0.0718517 122.166 0.0718517C123.108 0.0718517 123.845 0.335311 124.376 0.862231C124.907 1.3652 125.173 2.10768 125.173 3.08966V23.0288C125.173 23.9868 124.919 24.7293 124.412 25.2562C123.905 25.7831 123.156 26.0466 122.166 26.0466C121.2 26.0466 120.452 25.7831 119.92 25.2562C119.413 24.7293 119.16 23.9868 119.16 23.0288V11.9635L114.088 20.7295C113.75 21.2564 113.388 21.6516 113.002 21.915C112.639 22.1785 112.144 22.3102 111.516 22.3102C110.913 22.3102 110.418 22.1785 110.031 21.915C109.645 21.6516 109.295 21.2564 108.981 20.7295L103.946 12.1072V23.0288C103.946 23.9868 103.692 24.7293 103.185 25.2562C102.678 25.7831 101.929 26.0466 100.939 26.0466Z" fill="#545454"/>
<path d="M133.207 26.0466C132.144 26.0466 131.323 25.7592 130.744 25.1843C130.164 24.6095 129.874 23.7832 129.874 22.7054V3.73633C129.874 2.65855 130.164 1.83224 130.744 1.25742C131.323 0.682599 132.156 0.395189 133.243 0.395189H142.154C145.052 0.395189 147.286 1.13767 148.855 2.62262C150.449 4.08362 151.246 6.10747 151.246 8.69417C151.246 11.2809 150.449 13.3167 148.855 14.8016C147.286 16.2626 145.052 16.9931 142.154 16.9931H136.539V22.7054C136.539 23.7832 136.25 24.6095 135.67 25.1843C135.115 25.7592 134.294 26.0466 133.207 26.0466ZM136.539 11.9275H140.995C143.603 11.9275 144.907 10.8497 144.907 8.69417C144.907 6.53859 143.603 5.4608 140.995 5.4608H136.539V11.9275Z" fill="#545454"/>
<path d="M152.86 26.0466C151.725 26.0466 150.892 25.6634 150.361 24.8969C149.83 24.1305 149.83 23.1725 150.361 22.0228L159.381 2.76632C159.815 1.83224 160.347 1.14964 160.975 0.718525C161.602 0.28741 162.339 0.0718517 163.184 0.0718517C164.005 0.0718517 164.73 0.28741 165.358 0.718525C165.986 1.14964 166.517 1.83224 166.952 2.76632L175.971 22.0228C176.527 23.1964 176.551 24.1664 176.044 24.9329C175.537 25.6753 174.74 26.0466 173.653 26.0466C172.687 26.0466 171.938 25.831 171.407 25.3999C170.9 24.9688 170.441 24.2742 170.031 23.3162L168.871 20.5858H157.461L156.302 23.3162C155.867 24.2742 155.42 24.9688 154.961 25.3999C154.503 25.831 153.802 26.0466 152.86 26.0466ZM163.112 7.29304L159.634 15.5202H166.662L163.184 7.29304H163.112Z" fill="#545454"/>
<path d="M182.408 26.0466C180.331 26.0466 179.293 25.0047 179.293 22.921V3.34115C179.293 2.28731 179.558 1.48495 180.09 0.934083C180.621 0.359262 181.321 0.0718517 182.191 0.0718517C182.963 0.0718517 183.555 0.215557 183.966 0.502968C184.4 0.790378 184.895 1.26939 185.451 1.94002L195.919 14.9094V3.16151C195.919 1.10174 196.946 0.0718517 198.999 0.0718517C200.013 0.0718517 200.773 0.347287 201.281 0.898157C201.812 1.42508 202.078 2.17953 202.078 3.16151V23.0647C202.078 23.9748 201.836 24.7053 201.353 25.2562C200.87 25.7831 200.218 26.0466 199.397 26.0466C198.576 26.0466 197.924 25.9029 197.441 25.6155C196.982 25.328 196.487 24.849 195.956 24.1784L185.487 11.209V22.921C185.487 25.0047 184.461 26.0466 182.408 26.0466Z" fill="#545454"/>
<path d="M216.089 26.0466C215.027 26.0466 214.206 25.7592 213.626 25.1843C213.047 24.5856 212.757 23.7353 212.757 22.6336V14.5142L205.802 4.52671C205.391 3.95189 205.21 3.3172 205.258 2.62262C205.331 1.92804 205.621 1.32927 206.128 0.826305C206.659 0.323336 207.408 0.0718517 208.374 0.0718517C209.05 0.0718517 209.666 0.239508 210.221 0.57482C210.777 0.910132 211.296 1.44903 211.779 2.1915L216.198 8.62231L220.617 2.15558C221.124 1.4131 221.644 0.886181 222.175 0.57482C222.706 0.239508 223.334 0.0718517 224.059 0.0718517C224.976 0.0718517 225.689 0.299385 226.196 0.754451C226.703 1.20952 226.969 1.78434 226.993 2.47892C227.041 3.17349 226.824 3.88004 226.341 4.59857L219.422 14.5142V22.6336C219.422 24.9089 218.311 26.0466 216.089 26.0466Z" fill="#545454"/>
</svg>
