<svg width="227" height="67" viewBox="0 0 227 67" fill="none" xmlns="http://www.w3.org/2000/svg">
<path fill-rule="evenodd" clip-rule="evenodd" d="M153.456 6.81732C153.456 10.151 150.768 12.8534 147.452 12.8534C144.136 12.8534 141.448 10.151 141.448 6.81732C141.448 3.48369 144.136 0.78125 147.452 0.78125C150.768 0.78125 153.456 3.48369 153.456 6.81732ZM55.2857 19.7294C51.0417 19.7294 47.362 20.8062 44.3557 22.8994V0.901881L34.2811 3.88864V66.1326H44.3557V42.2631C44.3557 34.279 48.2264 29.7017 54.9724 29.7017C62.305 29.7017 63.396 35.253 63.396 38.5637V66.1326H73.5506V38.5637C73.5506 27.298 66.2046 19.7294 55.2857 19.7294ZM135.851 0.910818L125.777 3.89758V66.1326H135.851V0.910818ZM82.9074 26.5965C87.1959 22.1689 93.1731 19.7294 99.7414 19.7294C106.201 19.7294 112.034 22.3476 116.182 27.0813C120.033 31.4843 122.155 37.3216 122.155 43.5163C122.162 45.1908 121.998 46.8616 121.666 48.5024H87.3626C89.2135 53.7745 93.9308 57.0226 100.132 57.0226C105.028 57.0226 109.078 54.9473 110.969 51.4713L119.755 56.6093C115.853 63.1145 108.498 66.9994 100.055 66.9994C86.3405 66.9994 76.3881 57.0584 76.3881 43.3644C76.3881 36.8927 78.7034 30.9393 82.9074 26.5965ZM99.7414 29.7017C93.7264 29.7017 89.0513 33.095 87.2981 38.4564H111.296C109.667 33.0414 105.392 29.7017 99.7414 29.7017ZM152.445 20.594H142.368V66.1326H152.445V20.594ZM30.4304 30.6466H18.7626L18.7604 42.5244C18.7604 49.5323 23.7266 55.1461 30.3704 56.0553V66.108C24.758 65.7536 19.4659 63.357 15.4829 59.366C13.2835 57.1592 11.5429 54.5343 10.3626 51.6444C9.18226 48.7545 8.58584 45.6573 8.60805 42.5334V30.6422H0V20.5895H8.60805V11.5331L18.7626 8.53075V20.594H30.4304V30.6466ZM179.925 19.4926C173.659 19.4932 167.65 21.9961 163.22 26.4506C158.789 30.9052 156.3 36.9466 156.3 43.246C156.3 49.5454 158.789 55.5868 163.22 60.0414C167.65 64.4959 173.659 66.9987 179.925 66.9993C184.742 67.0052 189.444 65.5236 193.397 62.7549V66.1281H203.551V43.2415C203.55 36.9425 201.06 30.9019 196.63 26.4483C192.199 21.9946 186.19 19.4926 179.925 19.4926ZM179.925 56.7992C176.352 56.7986 172.925 55.3715 170.399 52.8315C167.873 50.2916 166.453 46.8469 166.453 43.2549C166.453 39.6627 167.872 36.2177 170.398 33.6777C172.925 31.1376 176.352 29.7106 179.925 29.7106C181.694 29.7103 183.446 30.0605 185.08 30.741C186.715 31.4216 188.2 32.4192 189.451 33.677C190.702 34.9348 191.695 36.428 192.372 38.0714C193.049 39.7148 193.397 41.4762 193.397 43.2549C193.395 46.8457 191.975 50.2888 189.448 52.8271C186.922 55.3653 183.496 56.7909 179.925 56.7903V56.7992Z" fill="#212121"/>
<path fill-rule="evenodd" clip-rule="evenodd" d="M196.977 8.98041C199.512 15.6129 197.985 19.8574 197.985 19.8574C208.215 9.48782 196.13 0.407926 195.605 0.0133522C195.594 0.00466939 195.588 0.0001924 195.588 0C186.846 9.80024 195.537 19.6429 195.537 19.6429C198.088 15.709 196.977 8.98041 196.977 8.98041ZM214.646 15.3895C204.154 18.2289 200.299 23.9701 200.299 23.9701C203.903 1.50401 226.641 8.88167 226.996 8.99692C226.999 8.99782 227 8.99828 227 8.99828C222.798 28.7775 202.78 26.8317 202.78 26.8317C205.314 20.0808 214.646 15.3895 214.646 15.3895Z" fill="#FF4822"/>
</svg>
