<svg viewBox="0 0 40 40" fill="none" xmlns="http://www.w3.org/2000/svg">
<path d="M22 20C22 21.1046 21.1046 22 20 22C18.8954 22 18 21.1046 18 20C18 18.8954 18.8954 18 20 18C21.1046 18 22 18.8954 22 20Z" fill="currentColor"/>
<path d="M22 14C22 15.1046 21.1046 16 20 16C18.8954 16 18 15.1046 18 14C18 12.8954 18.8954 12 20 12C21.1046 12 22 12.8954 22 14Z" fill="currentColor"/>
<path d="M22 26C22 27.1046 21.1046 28 20 28C18.8954 28 18 27.1046 18 26C18 24.8954 18.8954 24 20 24C21.1046 24 22 24.8954 22 26Z" fill="currentColor"/>
</svg>
