<svg width="4" height="16" viewBox="0 0 4 16" fill="none" xmlns="http://www.w3.org/2000/svg">
<path d="M4 8C4 9.10461 3.10461 10 2 10C0.895386 10 0 9.10461 0 8C0 6.89539 0.895386 6 2 6C3.10461 6 4 6.89539 4 8Z" fill="#282828"/>
<path d="M4 2C4 3.10461 3.10461 4 2 4C0.895386 4 0 3.10461 0 2C0 0.895386 0.895386 0 2 0C3.10461 0 4 0.895386 4 2Z" fill="#282828"/>
<path d="M4 14C4 15.1046 3.10461 16 2 16C0.895386 16 0 15.1046 0 14C0 12.8954 0.895386 12 2 12C3.10461 12 4 12.8954 4 14Z" fill="#282828"/>
</svg>
