<svg viewBox="0 0 40 40" fill="none" xmlns="http://www.w3.org/2000/svg">
<path d="M21.7143 13.5714H13.2143C12.5438 13.5714 12 12.9957 12 12.2857C12 11.5758 12.5438 11 13.2143 11H21.7143C22.3859 11 22.9286 11.5758 22.9286 12.2857C22.9286 12.9957 22.3859 13.5714 21.7143 13.5714ZM21.7143 23.8571H13.2143C12.5438 23.8571 12 23.2826 12 22.5714C12 21.8603 12.5438 21.2857 13.2143 21.2857H21.7143C22.3859 21.2857 22.9286 21.8603 22.9286 22.5714C22.9286 23.2826 22.3859 23.8571 21.7143 23.8571ZM12 17.4286C12 16.7174 12.5438 16.1429 13.2143 16.1429H27.7857C28.4574 16.1429 29 16.7174 29 17.4286C29 18.1397 28.4574 18.7143 27.7857 18.7143H13.2143C12.5438 18.7143 12 18.1397 12 17.4286ZM27.7857 29H13.2143C12.5438 29 12 28.4254 12 27.7143C12 27.0031 12.5438 26.4286 13.2143 26.4286H27.7857C28.4574 26.4286 29 27.0031 29 27.7143C29 28.4254 28.4574 29 27.7857 29Z" fill="currentColor"/>
</svg>
