<svg width="40" height="40" viewBox="0 0 40 40" fill="none" xmlns="http://www.w3.org/2000/svg">
<path d="M23.8571 13.5714H16.1429C15.4317 13.5714 14.8571 12.9957 14.8571 12.2857C14.8571 11.5758 15.4317 11 16.1429 11H23.8571C24.5683 11 25.1429 11.5758 25.1429 12.2857C25.1429 12.9957 24.5683 13.5714 23.8571 13.5714ZM27.7143 18.7143H12.2857C11.5758 18.7143 11 18.1397 11 17.4286C11 16.7174 11.5758 16.1429 12.2857 16.1429H27.7143C28.4254 16.1429 29 16.7174 29 17.4286C29 18.1397 28.4254 18.7143 27.7143 18.7143ZM11 27.7143C11 27.0031 11.5758 26.4286 12.2857 26.4286H27.7143C28.4254 26.4286 29 27.0031 29 27.7143C29 28.4254 28.4254 29 27.7143 29H12.2857C11.5758 29 11 28.4254 11 27.7143ZM23.8571 23.8571H16.1429C15.4317 23.8571 14.8571 23.2826 14.8571 22.5714C14.8571 21.8603 15.4317 21.2857 16.1429 21.2857H23.8571C24.5683 21.2857 25.1429 21.8603 25.1429 22.5714C25.1429 23.2826 24.5683 23.8571 23.8571 23.8571Z" fill="#282828"/>
</svg>
