<svg viewBox="0 0 40 40" fill="none" xmlns="http://www.w3.org/2000/svg">
<path d="M26.8571 13.5714H18.8571C18.225 13.5714 17.7143 12.9957 17.7143 12.2857C17.7143 11.5758 18.225 11 18.8571 11H26.8571C27.4893 11 28 11.5758 28 12.2857C28 12.9957 27.4893 13.5714 26.8571 13.5714ZM26.8571 23.8571H18.8571C18.225 23.8571 17.7143 23.2826 17.7143 22.5714C17.7143 21.8603 18.225 21.2857 18.8571 21.2857H26.8571C27.4893 21.2857 28 21.8603 28 22.5714C28 23.2826 27.4893 23.8571 26.8571 23.8571ZM12 17.4286C12 16.7174 12.5118 16.1429 13.1429 16.1429H26.8571C27.4893 16.1429 28 16.7174 28 17.4286C28 18.1397 27.4893 18.7143 26.8571 18.7143H13.1429C12.5118 18.7143 12 18.1397 12 17.4286ZM26.8571 29H13.1429C12.5118 29 12 28.4254 12 27.7143C12 27.0031 12.5118 26.4286 13.1429 26.4286H26.8571C27.4893 26.4286 28 27.0031 28 27.7143C28 28.4254 27.4893 29 26.8571 29Z" fill="currentColor"/>
</svg>
