<svg viewBox="0 0 40 40" fill="none" xmlns="http://www.w3.org/2000/svg">
<path fill-rule="evenodd" clip-rule="evenodd" d="M32.1382 9.94401V12.6523H25.9316V9.94401C25.9316 9.4766 26.3106 9.09766 26.778 9.09766H31.2919C31.7593 9.09766 32.1382 9.4766 32.1382 9.94401ZM12.3344 17.2227C12.8019 17.2227 13.1808 17.6016 13.1808 18.069V20.8338H6.9742V18.069C6.9742 17.6016 7.35314 17.2227 7.82055 17.2227H12.3344ZM25.3677 30.6515V22.5265H33.1542C33.6216 22.5265 34.0005 22.9054 34.0005 23.3728V29.8051C34.0005 30.2725 33.6216 30.6515 33.1542 30.6515H25.3677ZM5.11133 23.3728V29.8051C5.11133 30.2725 5.49027 30.6515 5.95768 30.6515H23.6747V22.5265H5.95768C5.49027 22.5265 5.11133 22.9054 5.11133 23.3728ZM15.0992 15.1914V20.8338H34.0011V15.1914C34.0011 14.724 33.6222 14.3451 33.1548 14.3451H15.9456C15.4781 14.3451 15.0992 14.724 15.0992 15.1914ZM23.1099 9.94401V12.6523H16.9033V9.94401C16.9033 9.4766 17.2822 9.09766 17.7496 9.09766H22.2635C22.7309 9.09766 23.1099 9.4766 23.1099 9.94401Z" fill="currentColor"/>
</svg>
