<svg viewBox="0 0 22 16" fill="none" xmlns="http://www.w3.org/2000/svg">
<path fill-rule="evenodd" clip-rule="evenodd" d="M19.7504 0.61849V2.59766H15.2148V0.61849C15.2148 0.276918 15.4918 0 15.8333 0H19.1319C19.4735 0 19.7504 0.276918 19.7504 0.61849ZM5.27778 5.9375C5.61935 5.9375 5.89627 6.21442 5.89627 6.55599V8.57639H1.36068V6.55599C1.36068 6.21442 1.6376 5.9375 1.97917 5.9375H5.27778ZM14.8025 15.7509V9.81337H20.4926C20.8342 9.81337 21.1111 10.0903 21.1111 10.4319V15.1324C21.1111 15.4739 20.8342 15.7509 20.4926 15.7509H14.8025ZM0 10.4319V15.1324C0 15.4739 0.276918 15.7509 0.61849 15.7509H13.5655V9.81337H0.61849C0.276918 9.81337 0 10.0903 0 10.4319ZM7.29818 4.45312V8.57639H21.1111V4.45312C21.1111 4.11155 20.8342 3.83464 20.4926 3.83464H7.91667C7.5751 3.83464 7.29818 4.11155 7.29818 4.45312ZM13.1532 0.61849V2.59766H8.61762V0.61849C8.61762 0.276918 8.89454 0 9.23611 0H12.5347C12.8763 0 13.1532 0.276918 13.1532 0.61849Z" fill="currentColor"/>
</svg>
