<svg viewBox="0 0 40 40" fill="none" xmlns="http://www.w3.org/2000/svg">
<path d="M25.543 19.4534C26.2852 18.5574 26.75 17.4124 26.75 16.1427C26.75 13.3066 24.507 11 21.75 11L14.25 11.0004C13.5598 11.0004 13 11.5753 13 12.2861C13 12.9968 13.5598 13.5718 14.25 13.5718H14.875V26.4286H14.25C13.5598 26.4286 13 27.0036 13 27.7143C13 28.4251 13.5598 29 14.25 29H23C25.757 29 28 26.6934 28 23.8573C28 21.9806 27.0078 20.3534 25.543 19.4534ZM17.375 13.5718H21.75C23.1289 13.5718 24.25 14.7257 24.25 16.1431C24.25 17.5606 23.1289 18.7145 21.75 18.7145H17.375V13.5718ZM23 26.4282H17.375V21.2855H23C24.3789 21.2855 25.5 22.439 25.5 23.8207C25.5 25.2024 24.3789 26.4282 23 26.4282Z" fill="currentColor"/>
</svg>
