<svg viewBox="0 0 40 40" fill="none" xmlns="http://www.w3.org/2000/svg">
<path d="M32 25.2812C32 25.6875 31.8393 26.0091 31.5179 26.2461C31.4107 26.6185 31.3571 27.2448 31.3571 28.125C31.3571 29.0052 31.4107 29.6315 31.5179 30.0039C31.8393 30.2747 32 30.5964 32 30.9688V31.7812C32 32.1198 31.875 32.4076 31.625 32.6445C31.375 32.8815 31.0714 33 30.7143 33H13.1429C11.7143 33 10.5 32.526 9.5 31.5781C8.5 30.6302 8 29.4792 8 28.125V11.875C8 10.5208 8.5 9.36979 9.5 8.42188C10.5 7.47396 11.7143 7 13.1429 7H30.7143C31.0714 7 31.375 7.11849 31.625 7.35547C31.875 7.59245 32 7.88021 32 8.21875V25.2812ZM14.8571 13.8047V14.8203C14.8571 15.0234 14.9643 15.125 15.1786 15.125H26.5357C26.75 15.125 26.8571 15.0234 26.8571 14.8203V13.8047C26.8571 13.6016 26.75 13.5 26.5357 13.5H15.1786C14.9643 13.5 14.8571 13.6016 14.8571 13.8047ZM14.8571 17.0547V18.0703C14.8571 18.2734 14.9643 18.375 15.1786 18.375H26.5357C26.75 18.375 26.8571 18.2734 26.8571 18.0703V17.0547C26.8571 16.8516 26.75 16.75 26.5357 16.75H15.1786C14.9643 16.75 14.8571 16.8516 14.8571 17.0547ZM28.4107 29.75C28.3036 28.6667 28.3036 27.5833 28.4107 26.5H13.1429C12.6786 26.5 12.2679 26.6693 11.9107 27.0078C11.5893 27.3125 11.4286 27.6849 11.4286 28.125C11.4286 28.5651 11.5893 28.9544 11.9107 29.293C12.2679 29.5977 12.6786 29.75 13.1429 29.75H28.4107Z" fill="currentColor"/>
</svg>
