<svg viewBox="0 0 18 20" fill="none" xmlns="http://www.w3.org/2000/svg">
<path d="M18 14.0625C18 14.375 17.8795 14.6224 17.6384 14.8047C17.558 15.0911 17.5179 15.5729 17.5179 16.25C17.5179 16.9271 17.558 17.4089 17.6384 17.6953C17.8795 17.9036 18 18.151 18 18.4375V19.0625C18 19.3229 17.9062 19.5443 17.7188 19.7266C17.5312 19.9089 17.3036 20 17.0357 20H3.85714C2.78571 20 1.875 19.6354 1.125 18.9062C0.375 18.1771 0 17.2917 0 16.25V3.75C0 2.70833 0.375 1.82292 1.125 1.09375C1.875 0.364583 2.78571 0 3.85714 0H17.0357C17.3036 0 17.5312 0.0911458 17.7188 0.273438C17.9062 0.455729 18 0.677083 18 0.9375V14.0625ZM5.14286 5.23438V6.01562C5.14286 6.17188 5.22321 6.25 5.38393 6.25H13.9018C14.0625 6.25 14.1429 6.17188 14.1429 6.01562V5.23438C14.1429 5.07812 14.0625 5 13.9018 5H5.38393C5.22321 5 5.14286 5.07812 5.14286 5.23438ZM5.14286 7.73437V8.51562C5.14286 8.67188 5.22321 8.75 5.38393 8.75H13.9018C14.0625 8.75 14.1429 8.67188 14.1429 8.51562V7.73437C14.1429 7.57812 14.0625 7.5 13.9018 7.5H5.38393C5.22321 7.5 5.14286 7.57812 5.14286 7.73437ZM15.308 17.5C15.2277 16.6667 15.2277 15.8333 15.308 15H3.85714C3.50893 15 3.20089 15.1302 2.93304 15.3906C2.69196 15.625 2.57143 15.9115 2.57143 16.25C2.57143 16.5885 2.69196 16.888 2.93304 17.1484C3.20089 17.3828 3.50893 17.5 3.85714 17.5H15.308Z" fill="currentColor"/>
</svg>
