<svg width="40" height="40" viewBox="0 0 40 40" fill="none" xmlns="http://www.w3.org/2000/svg">
<path fill-rule="evenodd" clip-rule="evenodd" d="M16.96 11C18 11 18.85 11.84 18.85 12.88V18.37C18.85 18.64 18.63 18.85 18.37 18.85H12.88C11.85 18.85 11 18 11 16.96V12.88C11 11.85 11.85 11 12.88 11H16.96ZM12.88 17.9H17.9V12.88C17.9 12.37 17.48 11.95 16.96 11.95H12.88C12.37 11.95 11.95 12.36 11.95 12.88V16.96C11.95 17.48 12.36 17.9 12.88 17.9ZM26.86 28.75H22.78H22.77C21.74 28.75 20.89 27.91 20.89 26.87V21.38C20.89 21.11 21.11 20.9 21.37 20.9H26.86C27.9 20.9 28.75 21.75 28.75 22.79V26.87C28.75 27.9 27.9 28.75 26.86 28.75ZM26.86 21.85H21.85V26.86C21.85 27.37 22.26 27.79 22.78 27.79H26.86C27.38 27.79 27.8 27.38 27.8 26.86V22.78C27.8 22.27 27.38 21.85 26.86 21.85ZM28.75 12.88C28.75 11.84 27.9 11 26.86 11H22.78C21.74 11 20.9 11.85 20.9 12.88V18.37C20.9 18.63 21.11 18.85 21.38 18.85H26.87C27.91 18.85 28.76 18 28.76 16.96V12.88H28.75ZM27.8 16.96C27.8 17.48 27.38 17.9 26.86 17.9H21.85V12.88C21.85 12.36 22.27 11.95 22.78 11.95H26.86C27.38 11.95 27.8 12.37 27.8 12.88V16.96ZM16.96 28.75H12.88C11.85 28.75 11 27.91 11 26.87V22.79C11 21.75 11.84 20.9 12.88 20.9H18.37C18.64 20.9 18.85 21.12 18.85 21.38V26.87C18.85 27.9 18 28.75 16.96 28.75ZM12.88 21.85C12.37 21.85 11.95 22.27 11.95 22.79V26.87C11.95 27.38 12.36 27.8 12.88 27.8H16.96C17.48 27.8 17.9 27.39 17.9 26.87V21.85H12.88Z" fill="#282828"/>
</svg>
