<svg viewBox="0 0 40 40" fill="none" xmlns="http://www.w3.org/2000/svg">
<path d="M29.75 9C30.9922 9 32 10.1752 32 11.625V15.125C32 16.5742 30.9922 17.75 29.75 17.75H10.25C9.00734 17.75 8 16.5742 8 15.125V11.625C8 10.1752 9.00734 9 10.25 9H29.75ZM29 12.5H23V14.25H29V12.5ZM29.75 21.25C30.9922 21.25 32 22.4258 32 23.875V27.375C32 28.8242 30.9922 30 29.75 30H10.25C9.00734 30 8 28.8242 8 27.375V23.875C8 22.4258 9.00734 21.25 10.25 21.25H29.75ZM17 24.75V26.5H29V24.75H17Z" fill="currentColor"/>
</svg>
