<svg viewBox="0 0 16 13" fill="none" xmlns="http://www.w3.org/2000/svg">
<path d="M14.5 0C15.3281 0 16 0.727526 16 1.625V3.79167C16 4.6888 15.3281 5.41667 14.5 5.41667H1.5C0.671562 5.41667 0 4.6888 0 3.79167V1.625C0 0.727526 0.671562 0 1.5 0H14.5ZM14 2.16667H10V3.25H14V2.16667ZM14.5 7.58333C15.3281 7.58333 16 8.3112 16 9.20833V11.375C16 12.2721 15.3281 13 14.5 13H1.5C0.671562 13 0 12.2721 0 11.375V9.20833C0 8.3112 0.671562 7.58333 1.5 7.58333H14.5ZM6 9.75V10.8333H14V9.75H6Z" fill="currentColor"/>
</svg>
