<svg viewBox="0 0 40 40" fill="none" xmlns="http://www.w3.org/2000/svg">
<path d="M11.6094 17.1094C11.0156 17.7031 10.3125 18 9.5 18C8.6875 18 7.98438 17.7031 7.39062 17.1094C6.79688 16.5156 6.5 15.8125 6.5 15C6.5 14.1875 6.79688 13.4844 7.39062 12.8906C7.98438 12.2969 8.6875 12 9.5 12C10.3125 12 11.0156 12.2969 11.6094 12.8906C12.2031 13.4844 12.5 14.1875 12.5 15C12.5 15.8125 12.2031 16.5156 11.6094 17.1094ZM32.6094 17.1094C32.0156 17.7031 31.3125 18 30.5 18C29.6875 18 28.9844 17.7031 28.3906 17.1094C27.7969 16.5156 27.5 15.8125 27.5 15C27.5 14.1875 27.7969 13.4844 28.3906 12.8906C28.9844 12.2969 29.6875 12 30.5 12C31.3125 12 32.0156 12.2969 32.6094 12.8906C33.2031 13.4844 33.5 14.1875 33.5 15C33.5 15.8125 33.2031 16.5156 32.6094 17.1094ZM32 19.5C32.8125 19.5 33.5156 19.7969 34.1094 20.3906C34.7031 20.9844 35 21.6875 35 22.5V24C35 24.4062 34.8438 24.7656 34.5312 25.0781C34.25 25.3594 33.9062 25.5 33.5 25.5H30.4062C30.25 24.4062 29.8594 23.4062 29.2344 22.5C28.6094 21.5938 27.8281 20.8906 26.8906 20.3906C27.4844 19.7969 28.1875 19.5 29 19.5H32ZM23.7031 17.9531C22.6719 18.9844 21.4375 19.5 20 19.5C18.5625 19.5 17.3281 18.9844 16.2969 17.9531C15.2656 16.9219 14.75 15.6875 14.75 14.25C14.75 12.8125 15.2656 11.5781 16.2969 10.5469C17.3281 9.51562 18.5625 9 20 9C21.4375 9 22.6719 9.51562 23.7031 10.5469C24.7344 11.5781 25.25 12.8125 25.25 14.25C25.25 15.6875 24.7344 16.9219 23.7031 17.9531ZM23.6094 21C25.1094 21 26.375 21.5312 27.4062 22.5938C28.4688 23.625 29 24.8906 29 26.3906V27.75C29 28.375 28.7812 28.9062 28.3438 29.3438C27.9062 29.7812 27.375 30 26.75 30H13.25C12.625 30 12.0938 29.7812 11.6562 29.3438C11.2188 28.9062 11 28.375 11 27.75V26.3906C11 24.8906 11.5156 23.625 12.5469 22.5938C13.6094 21.5312 14.8906 21 16.3906 21H16.8125C17.8438 21.5 18.9062 21.75 20 21.75C21.0938 21.75 22.1562 21.5 23.1875 21H23.6094ZM13.1094 20.3906C12.1719 20.8906 11.3906 21.5938 10.7656 22.5C10.1406 23.4062 9.75 24.4062 9.59375 25.5H6.5C6.09375 25.5 5.73438 25.3594 5.42188 25.0781C5.14062 24.7656 5 24.4062 5 24V22.5C5 21.6875 5.29687 20.9844 5.89062 20.3906C6.48438 19.7969 7.1875 19.5 8 19.5H11C11.8125 19.5 12.5156 19.7969 13.1094 20.3906Z" fill="currentColor"/>
</svg>
