<svg viewBox="0 0 24 17" fill="none" xmlns="http://www.w3.org/2000/svg">
<path d="M5.2875 6.56473C4.8125 7.04539 4.25 7.28571 3.6 7.28571C2.95 7.28571 2.3875 7.04539 1.9125 6.56473C1.4375 6.08408 1.2 5.51488 1.2 4.85714C1.2 4.1994 1.4375 3.63021 1.9125 3.14955C2.3875 2.6689 2.95 2.42857 3.6 2.42857C4.25 2.42857 4.8125 2.6689 5.2875 3.14955C5.7625 3.63021 6 4.1994 6 4.85714C6 5.51488 5.7625 6.08408 5.2875 6.56473ZM22.0875 6.56473C21.6125 7.04539 21.05 7.28571 20.4 7.28571C19.75 7.28571 19.1875 7.04539 18.7125 6.56473C18.2375 6.08408 18 5.51488 18 4.85714C18 4.1994 18.2375 3.63021 18.7125 3.14955C19.1875 2.6689 19.75 2.42857 20.4 2.42857C21.05 2.42857 21.6125 2.6689 22.0875 3.14955C22.5625 3.63021 22.8 4.1994 22.8 4.85714C22.8 5.51488 22.5625 6.08408 22.0875 6.56473ZM21.6 8.5C22.25 8.5 22.8125 8.74033 23.2875 9.22098C23.7625 9.70164 24 10.2708 24 10.9286V12.1429C24 12.4717 23.875 12.7626 23.625 13.0156C23.4 13.2433 23.125 13.3571 22.8 13.3571H20.325C20.2 12.4717 19.8875 11.6622 19.3875 10.9286C18.8875 10.1949 18.2625 9.62574 17.5125 9.22098C17.9875 8.74033 18.55 8.5 19.2 8.5H21.6ZM14.9625 7.24777C14.1375 8.08259 13.15 8.5 12 8.5C10.85 8.5 9.8625 8.08259 9.0375 7.24777C8.2125 6.41295 7.8 5.41369 7.8 4.25C7.8 3.08631 8.2125 2.08705 9.0375 1.25223C9.8625 0.417411 10.85 0 12 0C13.15 0 14.1375 0.417411 14.9625 1.25223C15.7875 2.08705 16.2 3.08631 16.2 4.25C16.2 5.41369 15.7875 6.41295 14.9625 7.24777ZM14.8875 9.71429C16.0875 9.71429 17.1 10.1443 17.925 11.0045C18.775 11.8393 19.2 12.8638 19.2 14.0781V15.1786C19.2 15.6845 19.025 16.1146 18.675 16.4688C18.325 16.8229 17.9 17 17.4 17H6.6C6.1 17 5.675 16.8229 5.325 16.4688C4.975 16.1146 4.8 15.6845 4.8 15.1786V14.0781C4.8 12.8638 5.2125 11.8393 6.0375 11.0045C6.8875 10.1443 7.9125 9.71429 9.1125 9.71429H9.45C10.275 10.119 11.125 10.3214 12 10.3214C12.875 10.3214 13.725 10.119 14.55 9.71429H14.8875ZM6.4875 9.22098C5.7375 9.62574 5.1125 10.1949 4.6125 10.9286C4.1125 11.6622 3.8 12.4717 3.675 13.3571H1.2C0.875 13.3571 0.5875 13.2433 0.3375 13.0156C0.1125 12.7626 0 12.4717 0 12.1429V10.9286C0 10.2708 0.2375 9.70164 0.7125 9.22098C1.1875 8.74033 1.75 8.5 2.4 8.5H4.8C5.45 8.5 6.0125 8.74033 6.4875 9.22098Z" fill="currentColor"/>
</svg>
