<svg width="40" height="40" viewBox="0 0 40 40" fill="none" xmlns="http://www.w3.org/2000/svg">
<path d="M29.533 27.5207L22.1823 20.5075L29.5441 13.4943C29.6849 13.3623 29.797 13.2033 29.8736 13.0272C29.9502 12.8511 29.9897 12.6614 29.9897 12.4697C29.9897 12.2781 29.9502 12.0884 29.8736 11.9123C29.797 11.7361 29.6849 11.5772 29.5441 11.4452C29.2435 11.1662 28.8464 11.011 28.4338 11.011C28.0211 11.011 27.624 11.1662 27.3234 11.4452L19.9948 18.4255L12.6663 11.4342C12.3657 11.1553 11.9686 11 11.5559 11C11.1433 11 10.7462 11.1553 10.4455 11.4342C10.3059 11.5682 10.1947 11.7282 10.1184 11.9051C10.0421 12.082 10.0024 12.2721 10.0014 12.4643C10.0011 12.6567 10.0403 12.8471 10.1166 13.0241C10.193 13.2012 10.3049 13.3611 10.4455 13.4943L17.8074 20.5075L10.4455 27.5207C10.3048 27.6527 10.1927 27.8117 10.1161 27.9878C10.0395 28.1639 10 28.3536 10 28.5453C10 28.7369 10.0395 28.9266 10.1161 29.1027C10.1927 29.2789 10.3048 29.4378 10.4455 29.5698C10.7498 29.8417 11.1455 29.9922 11.5559 29.9922C11.9663 29.9922 12.3621 29.8417 12.6663 29.5698L19.9948 22.5895L27.3234 29.5698C27.6253 29.8463 28.0219 30 28.4338 30C28.8456 30 29.2423 29.8463 29.5441 29.5698C29.6878 29.4395 29.8025 29.2811 29.881 29.1048C29.9595 28.9284 30 28.7379 30 28.5453C30 28.3526 29.9595 28.1621 29.881 27.9858C29.8025 27.8094 29.6878 27.651 29.5441 27.5207H29.533Z" fill="#282828"/>
</svg>
