<svg viewBox="0 0 20 19" fill="none" xmlns="http://www.w3.org/2000/svg">
<path d="M19.533 16.5207L12.1823 9.5075L19.5441 2.49432C19.6849 2.36227 19.797 2.20334 19.8736 2.02721C19.9502 1.85107 19.9897 1.66141 19.9897 1.46974C19.9897 1.27807 19.9502 1.0884 19.8736 0.912264C19.797 0.736129 19.6849 0.577205 19.5441 0.445154C19.2435 0.166239 18.8464 0.0109581 18.4338 0.0109581C18.0211 0.0109581 17.624 0.166239 17.3234 0.445154L9.99484 7.42546L2.66631 0.434196C2.36566 0.155281 1.96856 0 1.55593 0C1.14329 0 0.74619 0.155281 0.445542 0.434196C0.305875 0.568156 0.194661 0.728244 0.118401 0.905105C0.0421398 1.08197 0.00236113 1.27205 0.00138897 1.46426C0.00110171 1.65665 0.0403085 1.84711 0.116644 2.02415C0.19298 2.20118 0.304862 2.36112 0.445542 2.49432L7.80739 9.5075L0.445542 16.5207C0.304772 16.6527 0.192683 16.8117 0.11609 16.9878C0.039497 17.1639 0 17.3536 0 17.5453C0 17.7369 0.039497 17.9266 0.11609 18.1027C0.192683 18.2789 0.304772 18.4378 0.445542 18.5698C0.749781 18.8417 1.14553 18.9922 1.55593 18.9922C1.96632 18.9922 2.36207 18.8417 2.66631 18.5698L9.99484 11.5895L17.3234 18.5698C17.6253 18.8463 18.0219 19 18.4338 19C18.8456 19 19.2423 18.8463 19.5441 18.5698C19.6878 18.4395 19.8025 18.2811 19.881 18.1048C19.9595 17.9284 20 17.7379 20 17.5453C20 17.3526 19.9595 17.1621 19.881 16.9858C19.8025 16.8094 19.6878 16.651 19.5441 16.5207H19.533Z" fill="currentColor"/>
</svg>
