<svg viewBox="0 0 40 40" fill="none" xmlns="http://www.w3.org/2000/svg">
<path d="M29.3204 10H10.6796C9.704 10.001 8.7687 10.3352 8.07889 10.9291C7.38908 11.5231 7.00108 12.3284 7 13.1683L7 25.8317C7.00108 26.6716 7.38908 27.4769 8.07889 28.0709C8.7687 28.6648 9.704 28.999 10.6796 29H29.3204C30.296 28.999 31.2313 28.6648 31.9211 28.0709C32.6109 27.4769 32.9989 26.6716 33 25.8317V13.1683C32.9989 12.3284 32.6109 11.5231 31.9211 10.9291C31.2313 10.3352 30.296 10.001 29.3204 10ZM16.4357 16.3523L12.5646 19.6849L16.0071 22.6477C16.1458 22.7714 16.2226 22.9371 16.2209 23.109C16.2191 23.2809 16.139 23.4454 15.9978 23.567C15.8566 23.6886 15.6655 23.7576 15.4658 23.759C15.2661 23.7605 15.0737 23.6944 14.93 23.575L10.9488 20.1475C10.8059 20.0245 10.7257 19.8577 10.7257 19.6838C10.7257 19.5099 10.8059 19.3432 10.9488 19.2202L15.3581 15.4241C15.501 15.3011 15.6949 15.232 15.8971 15.2321C16.0992 15.2321 16.293 15.3013 16.4359 15.4244C16.5788 15.5474 16.6591 15.7143 16.659 15.8884C16.659 16.0624 16.5786 16.2293 16.4357 16.3523ZM22.7188 14.809L18.6909 24.6277C18.6235 24.7917 18.4833 24.926 18.3009 25.001C18.1186 25.076 17.9092 25.0855 17.7187 25.0275C17.5281 24.9696 17.3722 24.8488 17.2851 24.6918C17.198 24.5349 17.1869 24.3546 17.2543 24.1905L21.2822 14.3718C21.3496 14.2078 21.4898 14.0736 21.6722 13.9986C21.8545 13.9236 22.0639 13.9141 22.2544 13.972C22.4449 14.03 22.6009 14.1508 22.688 14.3077C22.7751 14.4647 22.7862 14.645 22.7188 14.809ZM29.0513 19.7794L24.6419 23.5754C24.499 23.6984 24.3052 23.7676 24.1031 23.7676C23.901 23.7676 23.7072 23.6984 23.5643 23.5754C23.4214 23.4524 23.3412 23.2856 23.3412 23.1116C23.3412 22.9376 23.4214 22.7707 23.5643 22.6477L27.4354 19.3151L23.9929 16.3523C23.8542 16.2286 23.7774 16.0629 23.7791 15.891C23.7809 15.7191 23.861 15.5546 24.0022 15.433C24.1434 15.3114 24.3345 15.2424 24.5342 15.241C24.7339 15.2395 24.9263 15.3056 25.07 15.425L29.0513 18.8525C29.194 18.9755 29.2743 19.1423 29.2743 19.3162C29.2743 19.4901 29.194 19.6568 29.0513 19.7798V19.7794Z" fill="currentColor"/>
</svg>
