<svg viewBox="0 0 20 15" fill="none" xmlns="http://www.w3.org/2000/svg">
<path d="M17.1695 0H2.83047C2.08 0.00082218 1.36054 0.264623 0.829915 0.733533C0.299289 1.20244 0.000826957 1.83817 0 2.50127L0 12.4987C0.000826957 13.1618 0.299289 13.7976 0.829915 14.2665C1.36054 14.7354 2.08 14.9992 2.83047 15H17.1695C17.92 14.9992 18.6395 14.7354 19.1701 14.2665C19.7007 13.7976 19.9992 13.1618 20 12.4987V2.50127C19.9992 1.83817 19.7007 1.20244 19.1701 0.733533C18.6395 0.264623 17.92 0.00082218 17.1695 0ZM7.2582 5.01496L4.28047 7.646L6.92852 9.98504C7.03525 10.0827 7.09431 10.2135 7.09297 10.3492C7.09164 10.485 7.03002 10.6148 6.92138 10.7108C6.81274 10.8068 6.66578 10.8612 6.51215 10.8624C6.35852 10.8636 6.21051 10.8114 6.1 10.7171L3.0375 8.01116C2.92765 7.91407 2.86595 7.78241 2.86595 7.64513C2.86595 7.50785 2.92765 7.37619 3.0375 7.27911L6.4293 4.28221C6.53927 4.18509 6.6884 4.13055 6.84389 4.13058C6.99937 4.13061 7.14848 4.18522 7.2584 4.28239C7.36832 4.37955 7.43005 4.51132 7.43001 4.64871C7.42998 4.78609 7.36817 4.91783 7.2582 5.01496ZM12.0914 3.79659L8.99297 11.5482C8.94117 11.6777 8.83328 11.7837 8.69303 11.8429C8.55278 11.9021 8.39166 11.9096 8.24512 11.8638C8.09857 11.8181 7.97861 11.7227 7.91162 11.5988C7.84463 11.4749 7.83609 11.3325 7.88789 11.2031L10.9863 3.45145C11.0381 3.32197 11.146 3.21597 11.2863 3.15678C11.4265 3.09759 11.5876 3.09005 11.7342 3.13582C11.8807 3.18158 12.0007 3.27691 12.0677 3.40083C12.1347 3.52475 12.1432 3.66711 12.0914 3.79659ZM16.9625 7.72055L13.5707 10.7174C13.4608 10.8146 13.3117 10.8691 13.1562 10.8691C13.0008 10.8691 12.8517 10.8146 12.7418 10.7174C12.6319 10.6203 12.5701 10.4886 12.5701 10.3512C12.5701 10.2139 12.6319 10.0822 12.7418 9.98504L15.7195 7.354L13.0715 5.01496C12.9648 4.91731 12.9057 4.78654 12.907 4.65079C12.9084 4.51505 12.97 4.3852 13.0786 4.28921C13.1873 4.19322 13.3342 4.13877 13.4879 4.13759C13.6415 4.13642 13.7895 4.1886 13.9 4.2829L16.9625 6.98884C17.0723 7.08593 17.1341 7.21759 17.1341 7.35487C17.1341 7.49215 17.0723 7.62381 16.9625 7.72089V7.72055Z" fill="currentColor"/>
</svg>
