<svg width="40" height="40" viewBox="0 0 40 40" fill="none" xmlns="http://www.w3.org/2000/svg">
<path d="M31.2826 17H9.18741C8.34206 17 7.53133 17.3358 6.93357 17.9336C6.33582 18.5313 6 19.3421 6 20.1874C6 21.0328 6.33582 21.8435 6.93357 22.4413C7.53133 23.039 8.34206 23.3748 9.18741 23.3748H31.2826C31.7012 23.3748 32.1156 23.2924 32.5024 23.1322C32.8891 22.972 33.2404 22.7372 33.5364 22.4413C33.8324 22.1453 34.0672 21.7939 34.2274 21.4072C34.3876 21.0205 34.47 20.606 34.47 20.1874C34.47 19.7688 34.3876 19.3544 34.2274 18.9676C34.0672 18.5809 33.8324 18.2295 33.5364 17.9336C33.2404 17.6376 32.8891 17.4028 32.5024 17.2426C32.1156 17.0824 31.7012 17 31.2826 17ZM9.18741 22.4719C8.58153 22.4719 8.00047 22.2312 7.57205 21.8028C7.14363 21.3744 6.90295 20.7933 6.90295 20.1874C6.90295 19.5815 7.14363 19.0005 7.57205 18.5721C8.00047 18.1436 8.58153 17.9029 9.18741 17.9029H15.192V22.4719H9.18741ZM16.095 22.4719V17.9029H24.3841V22.4719H16.095ZM31.2826 22.4719H25.287V17.9029H31.2826C31.8885 17.9029 32.4695 18.1436 32.8979 18.5721C33.3264 19.0005 33.567 19.5815 33.567 20.1874C33.567 20.7933 33.3264 21.3744 32.8979 21.8028C32.4695 22.2312 31.8885 22.4719 31.2826 22.4719Z" fill="#282828"/>
</svg>
