<svg viewBox="0 0 17 18" fill="none" xmlns="http://www.w3.org/2000/svg">
<path d="M16.7587 11.1774C16.9732 11.2742 17.0447 11.4435 16.9732 11.6855C16.568 12.9677 15.9125 14.1048 15.0068 15.0968C14.8638 15.2661 14.697 15.3024 14.5063 15.2056L12.969 14.2984C12.3254 14.8548 11.5985 15.2782 10.7881 15.5685V17.3468C10.7881 17.5887 10.6809 17.7339 10.4664 17.7823C9.15545 18.0726 7.85647 18.0726 6.5694 17.7823C6.33106 17.7339 6.21188 17.5887 6.21188 17.3468V15.5685C5.40151 15.2782 4.67455 14.8548 4.03102 14.2984L2.52944 15.2056C2.31493 15.3024 2.13617 15.2661 1.99317 15.0968C1.08745 14.1048 0.432001 12.9677 0.0268139 11.6855C-0.0446898 11.4677 0.0268139 11.2984 0.241325 11.1774L1.7429 10.2702C1.6714 9.85887 1.63565 9.43548 1.63565 9C1.63565 8.56452 1.6714 8.14113 1.7429 7.72984L0.241325 6.82258C0.0268139 6.72581 -0.0446898 6.55645 0.0268139 6.31452C0.432001 5.03226 1.08745 3.89516 1.99317 2.90323C2.13617 2.73387 2.31493 2.70968 2.52944 2.83065L4.03102 3.70161C4.67455 3.14516 5.40151 2.72177 6.21188 2.43145V0.653226C6.21188 0.41129 6.31914 0.266129 6.53365 0.217742C7.84455 -0.0725806 9.15545 -0.0725806 10.4664 0.217742C10.6809 0.266129 10.7881 0.41129 10.7881 0.653226V2.43145C11.5985 2.72177 12.3254 3.14516 12.969 3.70161L14.4706 2.79435C14.6851 2.69758 14.8638 2.73387 15.0068 2.90323C15.9125 3.89516 16.568 5.03226 16.9732 6.31452C17.0447 6.55645 16.9732 6.72581 16.7587 6.82258L15.2571 7.72984C15.4001 8.57661 15.4001 9.42339 15.2571 10.2702L16.7587 11.1774ZM6.46215 11.0685C7.03417 11.625 7.71346 11.9032 8.5 11.9032C9.28654 11.9032 9.95391 11.625 10.5021 11.0685C11.0741 10.4879 11.3601 9.79839 11.3601 9C11.3601 8.20161 11.0741 7.52419 10.5021 6.96774C9.95391 6.3871 9.28654 6.09677 8.5 6.09677C7.71346 6.09677 7.03417 6.3871 6.46215 6.96774C5.91395 7.52419 5.63985 8.20161 5.63985 9C5.63985 9.79839 5.91395 10.4879 6.46215 11.0685Z" fill="currentColor"/>
</svg>
