<svg viewBox="0 0 40 40" fill="none" xmlns="http://www.w3.org/2000/svg">
<path d="M33.6167 23.3871C33.9574 23.5376 34.071 23.8011 33.9574 24.1774C33.3139 26.172 32.2729 27.9409 30.8344 29.4839C30.6073 29.7473 30.3423 29.8038 30.0394 29.6532L27.5978 28.2419C26.5757 29.1075 25.4211 29.7661 24.1341 30.2177V32.9839C24.1341 33.3602 23.9637 33.586 23.623 33.6613C21.541 34.1129 19.4779 34.1129 17.4338 33.6613C17.0552 33.586 16.8659 33.3602 16.8659 32.9839V30.2177C15.5789 29.7661 14.4243 29.1075 13.4022 28.2419L11.0174 29.6532C10.6767 29.8038 10.3927 29.7473 10.1656 29.4839C8.72713 27.9409 7.68612 26.172 7.04259 24.1774C6.92902 23.8387 7.04259 23.5753 7.38328 23.3871L9.76814 21.9758C9.65457 21.336 9.59779 20.6774 9.59779 20C9.59779 19.3226 9.65457 18.664 9.76814 18.0242L7.38328 16.6129C7.04259 16.4624 6.92902 16.1989 7.04259 15.8226C7.68612 13.828 8.72713 12.0591 10.1656 10.5161C10.3927 10.2527 10.6767 10.2151 11.0174 10.4032L13.4022 11.7581C14.4243 10.8925 15.5789 10.2339 16.8659 9.78226V7.01613C16.8659 6.63978 17.0363 6.41398 17.377 6.33871C19.459 5.8871 21.541 5.8871 23.623 6.33871C23.9637 6.41398 24.1341 6.63978 24.1341 7.01613V9.78226C25.4211 10.2339 26.5757 10.8925 27.5978 11.7581L29.9827 10.3468C30.3233 10.1962 30.6073 10.2527 30.8344 10.5161C32.2729 12.0591 33.3139 13.828 33.9574 15.8226C34.071 16.1989 33.9574 16.4624 33.6167 16.6129L31.2319 18.0242C31.459 19.3414 31.459 20.6586 31.2319 21.9758L33.6167 23.3871ZM17.2634 23.2177C18.1719 24.0833 19.2508 24.5161 20.5 24.5161C21.7492 24.5161 22.8091 24.0833 23.6798 23.2177C24.5883 22.3145 25.0426 21.2419 25.0426 20C25.0426 18.7581 24.5883 17.7043 23.6798 16.8387C22.8091 15.9355 21.7492 15.4839 20.5 15.4839C19.2508 15.4839 18.1719 15.9355 17.2634 16.8387C16.3927 17.7043 15.9574 18.7581 15.9574 20C15.9574 21.2419 16.3927 22.3145 17.2634 23.2177Z" fill="currentColor"/>
</svg>
