<svg viewBox="0 0 40 40" fill="none" xmlns="http://www.w3.org/2000/svg">
<path d="M26.5 11.875V7H20.8125C19.4663 7 18.375 8.09129 18.375 9.4375V24.0625C18.375 25.4087 19.4663 26.5 20.8125 26.5H30.5625C31.9087 26.5 33 25.4087 33 24.0625V13.5H28.1707C27.2312 13.5 26.5 12.7688 26.5 11.875ZM28.125 7V11.875H33L28.125 7ZM16.75 24.875V13.5H9.4375C8.09129 13.5 7 14.5913 7 15.9375V30.5625C7 31.9087 8.09129 33 9.4375 33H19.1875C20.5337 33 21.625 31.9087 21.625 30.5625V28.125H20C18.2074 28.125 16.75 26.6676 16.75 24.875Z" fill="currentColor"/>
</svg>
