<svg viewBox="0 0 20 20" fill="none" xmlns="http://www.w3.org/2000/svg">
<path fill-rule="evenodd" clip-rule="evenodd" d="M11.2664 0.585787C10.4854 -0.195262 9.21902 -0.195262 8.43797 0.585786L0.585786 8.43797C-0.195262 9.21902 -0.195263 10.4854 0.585786 11.2664L8.43797 19.1186C9.21902 19.8996 10.4854 19.8996 11.2664 19.1186L19.1186 11.2664C19.8996 10.4854 19.8996 9.21902 19.1186 8.43797L11.2664 0.585787ZM9.75322 4.53611C9.28492 4.53611 8.907 4.91403 8.907 5.37412V9.83529C8.907 10.3036 9.35065 10.6733 9.78609 10.6733C10.2215 10.6733 10.5994 10.2954 10.5994 9.83529V5.37412C10.5994 4.91403 10.2215 4.53611 9.75322 4.53611ZM8.64409 12.9244C8.64409 13.5242 9.13704 14.0171 9.75322 14.0171C10.3694 14.0171 10.8624 13.5324 10.8624 12.9244C10.8624 12.3247 10.3694 11.8317 9.75322 11.8317C9.13704 11.8317 8.64409 12.3247 8.64409 12.9244Z" fill="currentColor"/>
</svg>
