<svg width="22" height="18" viewBox="0 0 22 18" fill="none" xmlns="http://www.w3.org/2000/svg">
<path d="M3.20833 3.41518C5.37269 1.13839 7.96991 0 11 0C14.0301 0 16.6146 1.13839 18.7535 3.41518C20.9178 5.66518 22 8.38393 22 11.5714C22 13.6607 21.5035 15.6027 20.5104 17.3973C20.2812 17.7991 19.9375 18 19.4792 18H2.52083C2.0625 18 1.71875 17.7991 1.48958 17.3973C0.496528 15.6027 0 13.6607 0 11.5714C0 8.38393 1.06944 5.66518 3.20833 3.41518ZM11 2.57143C10.669 2.57143 10.3762 2.70536 10.1215 2.97321C9.89236 3.21429 9.77778 3.50893 9.77778 3.85714C9.77778 4.20536 9.89236 4.51339 10.1215 4.78125C10.3762 5.02232 10.669 5.14286 11 5.14286C11.2292 5.14286 11.4583 5.0625 11.6875 4.90179L12.0312 3.77679C12.0312 3.75 12.044 3.70982 12.0694 3.65625C12.1204 3.57589 12.1458 3.53571 12.1458 3.53571C12.0694 3.24107 11.9294 3.01339 11.7257 2.85268C11.522 2.66518 11.2801 2.57143 11 2.57143ZM2.78819 13.7812C3.04282 14.0223 3.33565 14.1429 3.66667 14.1429C3.99769 14.1429 4.27778 14.0223 4.50694 13.7812C4.76157 13.5134 4.88889 13.2054 4.88889 12.8571C4.88889 12.5089 4.76157 12.2143 4.50694 11.9732C4.27778 11.7054 3.99769 11.5714 3.66667 11.5714C3.33565 11.5714 3.04282 11.7054 2.78819 11.9732C2.55903 12.2143 2.44444 12.5089 2.44444 12.8571C2.44444 13.2054 2.55903 13.5134 2.78819 13.7812ZM4.62153 7.35268C4.87616 7.59375 5.16898 7.71429 5.5 7.71429C5.83102 7.71429 6.11111 7.59375 6.34028 7.35268C6.59491 7.08482 6.72222 6.77679 6.72222 6.42857C6.72222 6.08036 6.59491 5.78571 6.34028 5.54464C6.11111 5.27679 5.83102 5.14286 5.5 5.14286C5.16898 5.14286 4.87616 5.27679 4.62153 5.54464C4.39236 5.78571 4.27778 6.08036 4.27778 6.42857C4.27778 6.77679 4.39236 7.08482 4.62153 7.35268ZM14.934 4.82143C15.0104 4.55357 14.985 4.29911 14.8576 4.05804C14.7558 3.81696 14.5775 3.65625 14.3229 3.57589C14.0938 3.49554 13.8646 3.52232 13.6354 3.65625C13.4062 3.76339 13.2535 3.9375 13.1771 4.17857L10.8472 11.5714C10.2106 11.625 9.66319 11.9062 9.20486 12.4152C8.77199 12.8973 8.55556 13.4732 8.55556 14.1429C8.55556 14.5982 8.67014 15.0268 8.89931 15.4286H13.1007C13.3299 15.0268 13.4444 14.5982 13.4444 14.1429C13.4444 13.3661 13.1516 12.7232 12.566 12.2143L14.934 4.82143ZM15.4688 7.11161C15.7234 7.51339 16.0671 7.71429 16.5 7.71429C16.831 7.71429 17.1111 7.59375 17.3403 7.35268C17.5949 7.08482 17.7222 6.77679 17.7222 6.42857C17.7222 6.08036 17.5949 5.78571 17.3403 5.54464C17.1111 5.27679 16.831 5.14286 16.5 5.14286C16.3727 5.14286 16.2326 5.16964 16.0799 5.22321L15.4688 7.11161ZM17.4549 13.7812C17.7095 14.0223 18.0023 14.1429 18.3333 14.1429C18.6644 14.1429 18.9444 14.0223 19.1736 13.7812C19.4282 13.5134 19.5556 13.2054 19.5556 12.8571C19.5556 12.5089 19.4282 12.2143 19.1736 11.9732C18.9444 11.7054 18.6644 11.5714 18.3333 11.5714C18.0023 11.5714 17.7095 11.7054 17.4549 11.9732C17.2257 12.2143 17.1111 12.5089 17.1111 12.8571C17.1111 13.2054 17.2257 13.5134 17.4549 13.7812Z" fill="#282828"/>
</svg>
