<svg viewBox="0 0 40 40" fill="none" xmlns="http://www.w3.org/2000/svg">
<path d="M9.375 12.5536C12.3264 9.51786 15.8681 8 20 8C24.1319 8 27.6563 9.51786 30.5729 12.5536C33.5243 15.5536 35 19.1786 35 23.4286C35 26.2143 34.3229 28.8036 32.9688 31.1964C32.6563 31.7321 32.1875 32 31.5625 32H8.4375C7.8125 32 7.34375 31.7321 7.03125 31.1964C5.67708 28.8036 5 26.2143 5 23.4286C5 19.1786 6.45833 15.5536 9.375 12.5536ZM20 11.4286C19.5486 11.4286 19.1493 11.6071 18.8021 11.9643C18.4896 12.2857 18.3333 12.6786 18.3333 13.1429C18.3333 13.6071 18.4896 14.0179 18.8021 14.375C19.1493 14.6964 19.5486 14.8571 20 14.8571C20.3125 14.8571 20.625 14.75 20.9375 14.5357L21.4062 13.0357C21.4062 13 21.4236 12.9464 21.4583 12.875C21.5278 12.7679 21.5625 12.7143 21.5625 12.7143C21.4583 12.3214 21.2674 12.0179 20.9896 11.8036C20.7118 11.5536 20.3819 11.4286 20 11.4286ZM8.80208 26.375C9.14931 26.6964 9.54861 26.8571 10 26.8571C10.4514 26.8571 10.8333 26.6964 11.1458 26.375C11.4931 26.0179 11.6667 25.6071 11.6667 25.1429C11.6667 24.6786 11.4931 24.2857 11.1458 23.9643C10.8333 23.6071 10.4514 23.4286 10 23.4286C9.54861 23.4286 9.14931 23.6071 8.80208 23.9643C8.48958 24.2857 8.33333 24.6786 8.33333 25.1429C8.33333 25.6071 8.48958 26.0179 8.80208 26.375ZM11.3021 17.8036C11.6493 18.125 12.0486 18.2857 12.5 18.2857C12.9514 18.2857 13.3333 18.125 13.6458 17.8036C13.9931 17.4464 14.1667 17.0357 14.1667 16.5714C14.1667 16.1071 13.9931 15.7143 13.6458 15.3929C13.3333 15.0357 12.9514 14.8571 12.5 14.8571C12.0486 14.8571 11.6493 15.0357 11.3021 15.3929C10.9896 15.7143 10.8333 16.1071 10.8333 16.5714C10.8333 17.0357 10.9896 17.4464 11.3021 17.8036ZM25.3646 14.4286C25.4688 14.0714 25.434 13.7321 25.2604 13.4107C25.1215 13.0893 24.8785 12.875 24.5313 12.7679C24.2188 12.6607 23.9063 12.6964 23.5938 12.875C23.2813 13.0179 23.0729 13.25 22.9688 13.5714L19.7917 23.4286C18.9236 23.5 18.1771 23.875 17.5521 24.5536C16.9618 25.1964 16.6667 25.9643 16.6667 26.8571C16.6667 27.4643 16.8229 28.0357 17.1354 28.5714H22.8646C23.1771 28.0357 23.3333 27.4643 23.3333 26.8571C23.3333 25.8214 22.934 24.9643 22.1354 24.2857L25.3646 14.4286ZM26.0938 17.4821C26.441 18.0179 26.9097 18.2857 27.5 18.2857C27.9514 18.2857 28.3333 18.125 28.6458 17.8036C28.9931 17.4464 29.1667 17.0357 29.1667 16.5714C29.1667 16.1071 28.9931 15.7143 28.6458 15.3929C28.3333 15.0357 27.9514 14.8571 27.5 14.8571C27.3264 14.8571 27.1354 14.8929 26.9271 14.9643L26.0938 17.4821ZM28.8021 26.375C29.1493 26.6964 29.5486 26.8571 30 26.8571C30.4514 26.8571 30.8333 26.6964 31.1458 26.375C31.4931 26.0179 31.6667 25.6071 31.6667 25.1429C31.6667 24.6786 31.4931 24.2857 31.1458 23.9643C30.8333 23.6071 30.4514 23.4286 30 23.4286C29.5486 23.4286 29.1493 23.6071 28.8021 23.9643C28.4896 24.2857 28.3333 24.6786 28.3333 25.1429C28.3333 25.6071 28.4896 26.0179 28.8021 26.375Z" fill="currentColor"/>
</svg>
