<svg viewBox="0 0 40 40" fill="none" xmlns="http://www.w3.org/2000/svg">
<path d="M20.3306 21.1922C21.2217 21.4656 22.1346 21.9239 22.91 22.5386L31.3257 19.5991C31.7621 19.4419 31.9968 18.9495 31.8468 18.4917L28.6994 8.58398C28.5562 8.11903 28.0803 7.87305 27.6509 8.03055L24.4655 9.14453L26.1913 14.5794L23.0257 15.6802L21.2998 10.2454L18.0899 11.3665C17.6536 11.5169 17.4192 12.0162 17.5689 12.4668L20.3306 21.1922ZM34.9316 22.9477C34.6401 22.0316 33.6982 21.5307 32.8223 21.8413L22.2701 25.5333C21.3728 24.3296 19.9997 23.5421 18.438 23.5115L13.6345 8.39258C13.176 6.96141 11.9045 6 10.4663 6H6.6675C5.74673 6 5 6.78367 5 7.75C5 8.71633 5.74673 9.5 6.6675 9.5H10.4684L15.2739 24.632C14.1035 25.5891 13.3375 27.0711 13.3375 28.75C13.3375 31.6495 15.5772 34 18.34 34C21.0705 34 23.2821 31.7015 23.3331 28.8484L33.8749 25.1603C34.7493 24.8562 35.1766 23.8609 34.9316 22.9477ZM18.34 30.5C17.4192 30.5 16.6725 29.7163 16.6725 28.75C16.6725 27.7837 17.4192 27.0492 18.34 27.0492C19.2608 27.0492 20.0075 27.782 20.0075 28.75C20.0075 29.718 19.2623 30.5 18.34 30.5Z" fill="currentColor"/>
</svg>
