<svg viewBox="0 0 18 16" fill="none" xmlns="http://www.w3.org/2000/svg">
<path d="M9.19835 8.68125C9.733 8.8375 10.2808 9.09938 10.746 9.45063L15.7954 7.77094C16.0573 7.68109 16.1981 7.39969 16.1081 7.13812L14.2196 1.47656C14.1337 1.21088 13.8482 1.07031 13.5906 1.16031L11.6793 1.79688L12.7148 4.9025L10.8154 5.53156L9.77989 2.42594L7.85393 3.06656C7.59214 3.1525 7.45154 3.43781 7.54134 3.69531L9.19835 8.68125ZM17.959 9.68437C17.7841 9.16094 17.2189 8.87469 16.6934 9.05219L10.3621 11.1619C9.82367 10.4741 8.99982 10.0241 8.06279 10.0066L5.18072 1.36719C4.90558 0.549375 4.1427 0 3.27977 0H1.0005C0.448037 0 0 0.447812 0 1C0 1.55219 0.448037 2 1.0005 2H3.28102L6.16433 10.6469C5.46211 11.1938 5.0025 12.0406 5.0025 13C5.0025 14.6569 6.3463 16 8.00401 16C9.64233 16 10.9692 14.6866 10.9999 13.0562L17.3249 10.9487C17.8496 10.775 18.1059 10.2063 17.959 9.68437ZM8.00401 14C7.45154 14 7.0035 13.5522 7.0035 13C7.0035 12.4478 7.45154 12.0281 8.00401 12.0281C8.55647 12.0281 9.00451 12.4469 9.00451 13C9.00451 13.5531 8.55741 14 8.00401 14Z" fill="currentColor"/>
</svg>
