<svg viewBox="0 0 40 40" fill="currentColor" xmlns="http://www.w3.org/2000/svg">
<path fill-rule="evenodd" clip-rule="evenodd" d="M27.1037 13.1769L33.6173 19.5942C33.8738 19.8429 34 20.1718 34 20.5006C34 20.8295 33.8728 21.1576 33.6183 21.4079L27.1047 27.8252C26.5958 28.3265 25.7715 28.3265 25.2626 27.8252C24.7537 27.3238 24.7537 26.5116 25.2626 26.0103L29.5545 21.7841L7.26377 21.7841C6.54361 21.7841 5.99769 21.2093 5.99769 20.5367C5.99769 19.8641 6.54361 19.2172 7.26377 19.2172L29.5545 19.2172L25.2636 14.9898C24.7547 14.4884 24.7547 13.6763 25.2636 13.1749C25.7725 12.6736 26.5948 12.6756 27.1037 13.1769ZM21.1196 26.8008C21.1196 27.4194 20.6182 27.9209 19.9995 27.9209L7.39851 27.9209C6.7799 27.9209 6.27841 27.4194 6.27841 26.8008C6.27841 26.1822 6.7799 25.6807 7.39851 25.6807L19.9995 25.6807C20.6182 25.6807 21.1196 26.1822 21.1196 26.8008ZM19.9995 15.3197C20.6182 15.3197 21.1196 14.8182 21.1196 14.1996C21.1196 13.581 20.6182 13.0795 19.9995 13.0795L7.39851 13.0795C6.7799 13.0795 6.27841 13.581 6.27841 14.1996C6.27841 14.8182 6.7799 15.3197 7.39851 15.3197L19.9995 15.3197Z" fill="currentColor"/>
</svg>
