<svg viewBox="0 0 40 40" fill="none" xmlns="http://www.w3.org/2000/svg">
<path d="M33 19.9543C33 20.0457 32.9543 20.0914 32.9543 20.1371C32.9797 21.9906 31.2937 23.2043 29.4402 23.2043H24.4688C23.123 23.2043 22.0312 24.3418 22.0312 25.6875C22.0312 25.8602 22.0516 26.0277 22.082 26.1902C22.1938 26.7082 22.4121 27.1652 22.6355 27.7086C22.9402 28.4094 23.25 29.1051 23.25 29.8414C23.25 31.4613 22.1531 32.9238 20.5383 32.9898C20.3605 32.9949 20.1777 33 20 33C12.8195 33 7 27.1805 7 20C7 12.8195 12.8195 7 20 7C27.1805 7 33 12.8195 33 20V19.9543ZM11.875 19.9543C10.9777 19.9543 10.25 20.7262 10.25 21.5793C10.25 22.5238 10.9777 23.2043 11.875 23.2043C12.7738 23.2043 13.5 22.5238 13.5 21.5793C13.5 20.7262 12.7738 19.9543 11.875 19.9543ZM13.5 16.7043C14.3988 16.7043 15.125 16.0238 15.125 15.0793C15.125 14.2262 14.3988 13.4543 13.5 13.4543C12.6012 13.4543 11.875 14.2262 11.875 15.0793C11.875 16.0238 12.6012 16.7043 13.5 16.7043ZM20 10.2043C19.1012 10.2043 18.375 10.9777 18.375 11.8293C18.375 12.7738 19.1012 13.4543 20 13.4543C20.8988 13.4543 21.625 12.7738 21.625 11.8293C21.625 10.9777 20.8988 10.2043 20 10.2043ZM26.5 16.7043C27.3988 16.7043 28.125 16.0238 28.125 15.0793C28.125 14.2262 27.3988 13.4543 26.5 13.4543C25.6012 13.4543 24.875 14.2262 24.875 15.0793C24.875 16.0238 25.6012 16.7043 26.5 16.7043Z" fill="currentColor"/>
</svg>
