<svg width="20" height="20" viewBox="0 0 20 20" fill="none" xmlns="http://www.w3.org/2000/svg">
<path d="M20 9.96484C20 10.0352 19.9648 10.0703 19.9648 10.1055C19.9844 11.5312 18.6875 12.4648 17.2617 12.4648H13.4375C12.4023 12.4648 11.5625 13.3398 11.5625 14.375C11.5625 14.5078 11.5781 14.6367 11.6016 14.7617C11.6875 15.1602 11.8555 15.5117 12.0273 15.9297C12.2617 16.4688 12.5 17.0039 12.5 17.5703C12.5 18.8164 11.6562 19.9414 10.4141 19.9922C10.2773 19.9961 10.1367 20 10 20C4.47656 20 0 15.5234 0 10C0 4.47656 4.47656 0 10 0C15.5234 0 20 4.47656 20 10V9.96484ZM3.75 9.96484C3.05977 9.96484 2.5 10.5586 2.5 11.2148C2.5 11.9414 3.05977 12.4648 3.75 12.4648C4.44141 12.4648 5 11.9414 5 11.2148C5 10.5586 4.44141 9.96484 3.75 9.96484ZM5 7.46484C5.69141 7.46484 6.25 6.94141 6.25 6.21484C6.25 5.55859 5.69141 4.96484 5 4.96484C4.30859 4.96484 3.75 5.55859 3.75 6.21484C3.75 6.94141 4.30859 7.46484 5 7.46484ZM10 2.46484C9.30859 2.46484 8.75 3.05977 8.75 3.71484C8.75 4.44141 9.30859 4.96484 10 4.96484C10.6914 4.96484 11.25 4.44141 11.25 3.71484C11.25 3.05977 10.6914 2.46484 10 2.46484ZM15 7.46484C15.6914 7.46484 16.25 6.94141 16.25 6.21484C16.25 5.55859 15.6914 4.96484 15 4.96484C14.3086 4.96484 13.75 5.55859 13.75 6.21484C13.75 6.94141 14.3086 7.46484 15 7.46484Z" fill="#282828"/>
</svg>
