<svg width="16" height="16" viewBox="0 0 16 16" fill="none" xmlns="http://www.w3.org/2000/svg">
<path d="M11.707 8.707C12.098 8.316 12.098 7.684 11.707 7.293C11.512 7.098 11.256 7 11 7C10.744 7 10.488 7.098 10.293 7.293L9.00001 8.586V1C9.00001 0.448 8.55301 0 8.00001 0C7.44701 0 7.00001 0.448 7.00001 1V8.586L5.70701 7.293C5.31601 6.902 4.68401 6.902 4.29301 7.293C3.90201 7.684 3.90201 8.316 4.29301 8.707L7.29301 11.707C7.68401 12.098 8.31601 12.098 8.70701 11.707L11.707 8.707Z" fill="#282828"/>
<path d="M1 14.0003C0.447715 14.0003 0 14.448 0 15.0003C0 15.5525 0.447715 16.0003 1 16.0003H15C15.5523 16.0003 16 15.5525 16 15.0003C16 14.448 15.5523 14.0003 15 14.0003H1Z" fill="#282828"/>
</svg>
