<svg viewBox="0 0 40 40" fill="none" xmlns="http://www.w3.org/2000/svg">
<path d="M26.0239 21.1487C26.6593 20.5133 26.6593 19.4863 26.0239 18.8509C25.707 18.5341 25.291 18.3748 24.875 18.3748C24.459 18.3748 24.043 18.5341 23.7261 18.8509L21.625 20.952V8.62497C21.625 7.72799 20.8986 7 20 7C19.1014 7 18.375 7.72799 18.375 8.62497V20.952L16.2739 18.8509C15.6385 18.2156 14.6115 18.2156 13.9761 18.8509C13.3408 19.4863 13.3408 20.5133 13.9761 21.1487L18.8511 26.0236C19.4865 26.6589 20.5135 26.6589 21.1489 26.0236L26.0239 21.1487Z" fill="currentColor"/>
<path d="M8.625 29.7501C7.72754 29.7501 7 30.4776 7 31.375C7 32.2725 7.72754 33 8.625 33H31.375C32.2725 33 33 32.2725 33 31.375C33 30.4776 32.2725 29.7501 31.375 29.7501H8.625Z" fill="currentColor"/>
</svg>
