<svg viewBox="0 0 40 40" fill="none" xmlns="http://www.w3.org/2000/svg">
<path d="M6.147 17.2497C6.43416 16.8828 6.96121 16.828 7.32413 17.1269L9.7061 19.0886C9.24677 13.8765 12.3797 8.89749 17.4503 7.3533C20.281 6.49124 23.2869 6.81289 25.9143 8.25913C26.3244 8.48478 26.4827 9.00491 26.2679 9.42069C26.0533 9.83659 25.5468 9.99082 25.1369 9.76503C22.9062 8.53712 20.3541 8.26408 17.9507 8.99601C13.5442 10.3379 10.8635 14.7351 11.4104 19.2725L13.6425 16.4211C13.9296 16.0541 14.4567 15.9993 14.8196 16.2983C15.1826 16.5973 15.2442 17.1369 14.957 17.5037L11.6252 21.76C11.6249 21.7603 11.6248 21.7605 11.6246 21.7607C11.5432 21.8646 11.4427 21.9435 11.3319 21.9965C11.2951 22.0141 11.257 22.0289 11.2182 22.0407C10.9627 22.1185 10.6733 22.0695 10.4475 21.8836L6.28454 18.4551C5.92137 18.1561 5.85991 17.6164 6.147 17.2497Z" fill="currentColor"/>
<path d="M31.2995 18.4577C30.5601 18.6558 30.1208 19.4167 30.319 20.1561L30.7377 21.7188C30.7707 21.842 30.6975 21.9688 30.5743 22.0018C30.451 22.0349 30.3242 21.9616 30.2912 21.8384L29.6332 19.3827C29.4351 18.6434 28.6742 18.2041 27.9348 18.4022C27.1954 18.6003 26.7562 19.3612 26.9543 20.1006L27.6123 22.5562C27.6453 22.6795 27.5721 22.8063 27.4488 22.8393C27.3256 22.8723 27.1988 22.7991 27.1658 22.6759L26.2685 19.3272C26.0704 18.5878 25.3095 18.1485 24.5702 18.3467C23.8308 18.5448 23.3915 19.3056 23.5896 20.045L24.4869 23.3937C24.5199 23.5169 24.4467 23.6437 24.3234 23.6767C24.2002 23.7098 24.0734 23.6365 24.0404 23.5133L21.5878 14.3603C21.3897 13.621 20.6289 13.1817 19.8895 13.3798C19.1501 13.5779 18.7108 14.3388 18.9089 15.0782L21.7067 25.5197L18.362 24.5276L18.3593 24.5283C18.1293 24.4559 17.8691 24.4491 17.6101 24.5185C16.8689 24.7171 16.431 25.4757 16.6296 26.2169C16.699 26.4758 16.8374 26.7067 17.0264 26.8762L17.0236 26.8731L22.9935 32.69C23.9273 33.5997 25.2713 33.9507 26.5313 33.6131L32.5365 32.004C34.5091 31.4755 35.6799 29.4476 35.1513 27.475L32.9979 19.4383C32.7998 18.6989 32.0389 18.2596 31.2995 18.4577Z" fill="currentColor"/>
</svg>
