<svg viewBox="0 0 19 19" fill="none" xmlns="http://www.w3.org/2000/svg">
<path d="M18.3841 1.31774C19.2053 2.13774 19.2053 3.46728 18.3841 4.28728L17.2593 5.41585L13.5847 1.74217L14.7133 0.615097C15.5345 -0.205032 16.8618 -0.205032 17.683 0.615097L18.3841 1.31774ZM6.46426 8.86532L12.7373 2.59029L16.4119 6.26322L10.1351 12.536C9.90636 12.7685 9.62514 12.9409 9.31393 13.0459L5.98431 14.1557C5.6281 14.2607 5.30564 14.1782 5.06192 13.9045C4.82194 13.6946 4.73945 13.3384 4.84444 13.0159L5.95431 9.68644C6.0593 9.37524 6.23178 9.09403 6.46426 8.86532ZM7.19917 2.16886C7.86284 2.16886 8.39903 2.73989 8.39903 3.36867C8.39903 4.06606 7.86284 4.56848 7.19917 4.56848H3.59959C2.93704 4.56848 2.39972 5.1384 2.39972 5.7683V15.4006C2.39972 16.0642 2.93704 16.6004 3.59959 16.6004H13.1985C13.8622 16.6004 14.3983 16.0642 14.3983 15.4006V11.7674C14.3983 11.1375 14.9345 10.5676 15.5982 10.5676C16.2619 10.5676 16.7981 11.1375 16.7981 11.7674V15.4006C16.7981 17.3878 15.1858 19 13.1985 19H3.59959C1.61156 19 0 17.3878 0 15.4006V5.7683C0 3.78111 1.61156 2.16886 3.59959 2.16886H7.19917Z" fill="currentColor"/>
</svg>
