<svg viewBox="0 0 40 40" fill="none" xmlns="http://www.w3.org/2000/svg">
<path d="M32.1896 8.73387C33.2701 9.81281 33.2701 11.5622 32.1896 12.6412L30.7096 14.1261L25.8746 9.29233L27.3596 7.80934C28.4401 6.73022 30.1866 6.73022 31.2671 7.80934L32.1896 8.73387ZM16.5056 18.6649L24.7596 10.4083L29.5946 15.2411L21.3356 23.4947C21.0347 23.8006 20.6647 24.0275 20.2552 24.1657L15.8741 25.626C15.4054 25.7641 14.9811 25.6556 14.6604 25.2954C14.3447 25.0192 14.2361 24.5505 14.3743 24.1262L15.8346 19.7453C15.9728 19.3358 16.1997 18.9658 16.5056 18.6649ZM17.4726 9.85376C18.3458 9.85376 19.0514 10.6051 19.0514 11.4325C19.0514 12.3501 18.3458 13.0112 17.4726 13.0112H12.7363C11.8645 13.0112 11.1575 13.761 11.1575 14.5899V27.2639C11.1575 28.1371 11.8645 28.8426 12.7363 28.8426H25.3664C26.2397 28.8426 26.9452 28.1371 26.9452 27.2639V22.4834C26.9452 21.6546 27.6507 20.9047 28.524 20.9047C29.3972 20.9047 30.1027 21.6546 30.1027 22.4834V27.2639C30.1027 29.8786 27.9813 32 25.3664 32H12.7363C10.1205 32 8 29.8786 8 27.2639V14.5899C8 11.9751 10.1205 9.85376 12.7363 9.85376H17.4726Z" fill="currentColor"/>
</svg>
