<svg viewBox="0 0 48 48" fill="none" xmlns="http://www.w3.org/2000/svg">
<path d="M42 24C42 33.9382 33.9457 41.9955 24.0082 42H23.814C22.9415 41.9909 22.0707 41.919 21.2085 41.7847C20.5025 41.6756 19.8037 41.5238 19.116 41.3302C15.3403 40.2648 12.0159 37.9954 9.64838 34.8672C7.28086 31.739 5.99979 27.9231 6 24C6 14.0603 14.0565 6.00001 24 6.00001H24.0082C26.4571 5.99782 28.8804 6.49687 31.1291 7.46644C33.3778 8.43601 35.4043 9.85558 37.0837 11.6378C40.2425 14.9786 42.0017 19.4023 42 24Z" fill="white"/>
<path d="M19.457 18.6467V19.4567H16.8402L9.49023 13.345C9.94455 12.727 10.4381 12.1388 10.9677 11.584L19.457 18.6467Z" fill="#D80027"/>
<path d="M38.533 13.3785L31.2257 19.4535H28.543V18.702L37.0615 11.6152L37.084 11.6385C37.575 12.1561 38.0343 12.7028 38.4595 13.2757L38.533 13.3785Z" fill="#D80027"/>
<path d="M19.4562 28.543V29.353L10.967 36.4172C10.892 36.3422 10.817 36.2612 10.7465 36.1825C10.2999 35.6973 9.88053 35.1877 9.49023 34.6562L16.8402 28.543H19.4562Z" fill="#D80027"/>
<path d="M38.5337 34.6225C38.0812 35.2409 37.5897 35.8299 37.0622 36.3857L28.543 29.2982V28.543H31.2257L38.5337 34.6225Z" fill="#D80027"/>
<path d="M13.1886 19.4564H6.57812C6.95367 18.0162 7.50798 16.6287 8.22812 15.3262L13.1886 19.4564Z" fill="#012169"/>
<path d="M13.0394 28.541L8.17487 32.5865C7.47972 31.3081 6.94349 29.9496 6.57812 28.541H13.0394Z" fill="#012169"/>
<path d="M19.4562 32.3457V41.4207C19.3422 41.3915 19.2312 41.3607 19.115 41.3285C16.7564 40.6643 14.5589 39.5238 12.6582 37.9775L19.4562 32.3457Z" fill="#012169"/>
<path d="M19.4565 6.57812V15.5106L12.7598 9.93962C14.7305 8.36017 17.0125 7.21468 19.4565 6.57812Z" fill="#012169"/>
<path d="M35.3425 10.0229L28.543 15.6591V6.57812L28.6457 6.60437C31.0945 7.25763 33.377 8.42275 35.3425 10.0229Z" fill="#012169"/>
<path d="M41.4227 19.456H34.9727L39.8259 15.418C40.5204 16.694 41.0566 18.05 41.4227 19.456Z" fill="#012169"/>
<path d="M35.3984 37.9339C33.3929 39.5783 31.0547 40.7684 28.5449 41.4222V32.2324L35.3984 37.9339Z" fill="#012169"/>
<path d="M41.4211 28.541C41.0635 29.9156 40.5436 31.2426 39.8723 32.4943L35.1211 28.541H41.4211Z" fill="#012169"/>
<path d="M42 23.8117V24.171C41.9922 25.0103 41.9263 25.848 41.8027 26.6782H26.6782V41.802C25.8533 41.925 25.0208 41.9912 24.1867 42H23.8117C22.9774 41.9914 22.1447 41.925 21.3195 41.8012V26.6782H6.198C6.07493 25.8523 6.00877 25.0188 6 24.1837C6 24.066 6 23.9475 6 23.829C6.00776 22.9894 6.07367 22.1514 6.19725 21.321H21.3217V6.198C22.1071 6.08058 22.8993 6.01444 23.6932 6H24.2737C25.0314 6.01083 25.7877 6.06945 26.538 6.1755L26.6782 6.1965V21.321H41.802C41.925 22.1457 41.9912 22.9779 42 23.8117Z" fill="#D80027"/>
</svg>
