<svg viewBox="0 0 40 40" fill="none" xmlns="http://www.w3.org/2000/svg">
<path d="M30.0209 11H16.068C15.2436 11 14.4496 11.3389 13.8884 11.9307L7.21856 18.9571C6.92715 19.2631 6.92715 19.7369 7.21856 20.0429L13.8884 27.0682C14.4496 27.6611 15.2436 28 16.068 28H30.0209C31.6643 28 33 26.6899 33 25.0781V13.9219C33 12.3101 31.6643 11 30.0209 11ZM28.1057 22.4952C28.513 22.9255 28.4881 23.5981 28.0493 23.9976C27.8413 24.1877 27.5759 24.2812 27.3116 24.2812C27.0202 24.2812 26.7309 24.1676 26.5186 23.9423L23.792 21.0608L21.0642 23.9412C20.8519 24.1665 20.5616 24.2802 20.2712 24.2802C20.0069 24.2802 19.7426 24.1867 19.5335 23.9965C19.0959 23.597 19.0699 22.9244 19.4772 22.4941L22.3143 19.5L19.4783 16.5048C19.0709 16.0745 19.0959 15.4019 19.5346 15.0024C19.9712 14.6029 20.6591 14.6263 21.0653 15.0577L23.793 17.9381L26.5208 15.0577C26.9259 14.6263 27.6138 14.6029 28.0515 15.0024C28.4891 15.4019 28.5151 16.0745 28.1078 16.5048L25.2696 19.5L28.1057 22.4952Z" fill="currentColor"/>
</svg>
