<svg viewBox="0 0 40 40" fill="none" xmlns="http://www.w3.org/2000/svg">
<path fill-rule="evenodd" clip-rule="evenodd" d="M21.5867 6.4725C20.8057 5.69146 19.5394 5.69146 18.7583 6.47251L6.4725 18.7583C5.69146 19.5394 5.69146 20.8057 6.47251 21.5867L18.7583 33.8726C19.5394 34.6536 20.8057 34.6536 21.5867 33.8726L33.8726 21.5867C34.6536 20.8057 34.6536 19.5394 33.8726 18.7583L21.5867 6.4725ZM20.0327 12.6503C19.37 12.6503 18.8352 13.1851 18.8352 13.8362V20.1492C18.8352 20.8119 19.463 21.3351 20.0792 21.3351C20.6954 21.3351 21.2302 20.8003 21.2302 20.1492V13.8362C21.2302 13.1851 20.6954 12.6503 20.0327 12.6503ZM18.4632 24.5207C18.4632 25.3694 19.1607 26.067 20.0327 26.067C20.9047 26.067 21.6022 25.3811 21.6022 24.5207C21.6022 23.672 20.9047 22.9744 20.0327 22.9744C19.1607 22.9744 18.4632 23.672 18.4632 24.5207Z" fill="#EB0000"/>
</svg>
