<svg viewBox="0 0 40 40" fill="currentColor" xmlns="http://www.w3.org/2000/svg">
<path fill-rule="evenodd" clip-rule="evenodd" d="M26.4 24.8V26.4C26.4 27.2848 25.6848 28 24.8 28H13.6C12.68 28 12 27.2256 12 26.4V15.2C12 14.3168 12.7168 13.6 13.6 13.6H15.2C16.8591 13.6 16.8649 16 15.2 16C14.9155 16.008 14.6353 16 14.4 16V25.6H24C24 25.6 24 25.0845 24 24.8C24 23.2 26.4 23.2 26.4 24.8ZM20.4 13.2C20.4 12.5373 20.9373 12 21.6 12H28V18.4C28 19.0627 27.4627 19.6 26.8 19.6C26.1373 19.6 25.6 19.0627 25.6 18.4V16.0971L20.4485 21.2485C19.9799 21.7172 19.2201 21.7172 18.7515 21.2485C18.2828 20.7799 18.2828 20.0201 18.7515 19.5515L23.9029 14.4H21.6C20.9373 14.4 20.4 13.8627 20.4 13.2Z" fill="currentColor"/>
</svg>
