<svg xmlns="http://www.w3.org/2000/svg" fill="none" viewBox="0 0 20 20"><path fill="currentColor" d="M19.896 9.492c.07.158.104.327.104.508 0 .18-.035.35-.104.508a11.552 11.552 0 0 1-4.097 4.367C14.039 15.958 12.107 16.5 10 16.5c-2.106 0-4.04-.542-5.799-1.625a11.552 11.552 0 0 1-4.097-4.367A1.248 1.248 0 0 1 0 10c0-.18.035-.35.104-.508A11.3 11.3 0 0 1 4.201 5.16C5.961 4.053 7.894 3.5 10 3.5c2.107 0 4.04.553 5.799 1.659a11.3 11.3 0 0 1 4.097 4.333zM10 14.875c1.389 0 2.57-.474 3.542-1.422S15 11.354 15 10c0-1.354-.486-2.505-1.458-3.453-.973-.948-2.153-1.422-3.542-1.422-1.389 0-2.57.474-3.542 1.422S5 8.646 5 10c0 1.354.486 2.505 1.458 3.453.973.948 2.153 1.422 3.542 1.422zm0-8.125c.926 0 1.713.316 2.361.948.648.632.972 1.4.972 2.302 0 .88-.324 1.648-.972 2.302-.648.632-1.435.948-2.361.948-.903 0-1.69-.316-2.361-.948-.648-.654-.972-1.422-.972-2.302 0-.293.046-.576.139-.846.277.203.601.304.972.304.463 0 .856-.158 1.18-.474.324-.316.486-.7.486-1.15a1.51 1.51 0 0 0-.312-.949A2.79 2.79 0 0 1 10 6.75z"/></svg>
