<svg viewBox="0 0 40 40" fill="none" xmlns="http://www.w3.org/2000/svg">
<path d="M33.8542 18.7578C33.9514 18.9887 34 19.2361 34 19.5C34 19.7639 33.9514 20.0113 33.8542 20.2422C32.4931 22.8811 30.581 25.0087 28.1181 26.625C25.6551 28.2083 22.9491 29 20 29C17.0509 29 14.3449 28.2083 11.8819 26.625C9.41898 25.0087 7.50694 22.8811 6.14583 20.2422C6.04861 20.0113 6 19.7639 6 19.5C6 19.2361 6.04861 18.9887 6.14583 18.7578C7.50694 16.1189 9.41898 14.0078 11.8819 12.4245C14.3449 10.8082 17.0509 10 20 10C22.9491 10 25.6551 10.8082 28.1181 12.4245C30.581 14.0078 32.4931 16.1189 33.8542 18.7578ZM20 26.625C21.9444 26.625 23.5972 25.9323 24.9583 24.5469C26.3194 23.1615 27 21.4792 27 19.5C27 17.5208 26.3194 15.8385 24.9583 14.4531C23.5972 13.0677 21.9444 12.375 20 12.375C18.0556 12.375 16.4028 13.0677 15.0417 14.4531C13.6806 15.8385 13 17.5208 13 19.5C13 21.4792 13.6806 23.1615 15.0417 24.5469C16.4028 25.9323 18.0556 26.625 20 26.625ZM20 14.75C21.2963 14.75 22.3981 15.2118 23.3056 16.1354C24.213 17.059 24.6667 18.1806 24.6667 19.5C24.6667 20.7865 24.213 21.908 23.3056 22.8646C22.3981 23.7882 21.2963 24.25 20 24.25C18.7361 24.25 17.6343 23.7882 16.6944 22.8646C15.787 21.908 15.3333 20.7865 15.3333 19.5C15.3333 19.0712 15.3981 18.6589 15.5278 18.263C15.9167 18.5599 16.3704 18.7083 16.8889 18.7083C17.537 18.7083 18.088 18.4774 18.5417 18.0156C18.9954 17.5538 19.2222 16.9931 19.2222 16.3333C19.2222 15.8056 19.0764 15.3438 18.7847 14.9479C19.1736 14.816 19.5787 14.75 20 14.75Z" fill="currentColor"/>
</svg>
