<svg width="20" height="13" viewBox="0 0 20 13" fill="none" xmlns="http://www.w3.org/2000/svg">
<path d="M19.8958 5.99219C19.9653 6.15017 20 6.31944 20 6.5C20 6.68056 19.9653 6.84983 19.8958 7.00781C18.9236 8.81337 17.5579 10.2691 15.7986 11.375C14.0394 12.4583 12.1065 13 10 13C7.89352 13 5.96065 12.4583 4.20139 11.375C2.44213 10.2691 1.07639 8.81337 0.104167 7.00781C0.0347222 6.84983 0 6.68056 0 6.5C0 6.31944 0.0347222 6.15017 0.104167 5.99219C1.07639 4.18663 2.44213 2.74219 4.20139 1.65885C5.96065 0.552951 7.89352 0 10 0C12.1065 0 14.0394 0.552951 15.7986 1.65885C17.5579 2.74219 18.9236 4.18663 19.8958 5.99219ZM10 11.375C11.3889 11.375 12.5694 10.901 13.5417 9.95312C14.5139 9.00521 15 7.85417 15 6.5C15 5.14583 14.5139 3.99479 13.5417 3.04688C12.5694 2.09896 11.3889 1.625 10 1.625C8.61111 1.625 7.43056 2.09896 6.45833 3.04688C5.48611 3.99479 5 5.14583 5 6.5C5 7.85417 5.48611 9.00521 6.45833 9.95312C7.43056 10.901 8.61111 11.375 10 11.375ZM10 3.25C10.9259 3.25 11.713 3.56597 12.3611 4.19792C13.0093 4.82986 13.3333 5.59722 13.3333 6.5C13.3333 7.38021 13.0093 8.14757 12.3611 8.80208C11.713 9.43403 10.9259 9.75 10 9.75C9.09722 9.75 8.31019 9.43403 7.63889 8.80208C6.99074 8.14757 6.66667 7.38021 6.66667 6.5C6.66667 6.2066 6.71296 5.92448 6.80556 5.65365C7.08333 5.85677 7.40741 5.95833 7.77778 5.95833C8.24074 5.95833 8.63426 5.80035 8.95833 5.48438C9.28241 5.1684 9.44444 4.78472 9.44444 4.33333C9.44444 3.97222 9.34028 3.65625 9.13194 3.38542C9.40972 3.29514 9.69907 3.25 10 3.25Z" fill="#282828"/>
</svg>
