<svg width="64" height="64" viewBox="0 0 64 64" fill="currentColor" xmlns="http://www.w3.org/2000/svg">
<path d="M58 32.157C57.9995 27.1578 56.5753 22.2635 53.896 18.0534C51.2167 13.8434 47.3946 10.4939 42.8821 8.40153C38.3696 6.30918 33.3557 5.56158 28.434 6.24723C23.5123 6.93289 18.8889 9.02309 15.1113 12.2704C11.3336 15.5177 8.55978 19.7861 7.11827 24.5702C5.67676 29.3543 5.62789 34.4539 6.97746 39.2651C8.32702 44.0763 11.0185 48.3977 14.7332 51.7177C18.448 55.0376 23.0304 57.2172 27.9381 57.9982V39.7195H21.3365V32.1551H27.9381V26.3948C27.9381 19.8393 31.8207 16.2163 37.7599 16.2163C39.7098 16.2436 41.6551 16.4146 43.5802 16.7281V23.1677H40.2995C39.7409 23.0931 39.1727 23.1459 38.6371 23.3221C38.1015 23.4983 37.6121 23.7935 37.2052 24.1858C36.7983 24.578 36.4843 25.0573 36.2864 25.5882C36.0885 26.1191 36.0118 26.688 36.0619 27.2527V32.157H43.2728L42.1201 39.7214H36.0619V58C42.1775 57.0249 47.7467 53.8865 51.7681 49.1493C55.7895 44.4121 57.9992 38.3869 58 32.157Z" fill="currentColor"/>
</svg>
