<svg width="48" height="48" viewBox="0 0 48 48" fill="none" xmlns="http://www.w3.org/2000/svg">
<path d="M7.11914 30.2605C9.66241 37.1148 16.2602 41.9996 23.9996 41.9996C31.7389 41.9996 38.3367 37.1148 40.88 30.2605L23.9996 28.6953L7.11914 30.2605Z" fill="#FFDA44"/>
<path d="M23.9996 6C16.2602 6 9.66241 10.8847 7.11914 17.7392L23.9996 19.3043L40.88 17.7391C38.3367 10.8847 31.7389 6 23.9996 6Z" fill="black"/>
<path d="M7.11959 17.7383C6.39607 19.6883 6 21.7974 6 23.9991C6 26.2009 6.39607 28.31 7.11959 30.26H40.8805C41.604 28.31 42 26.2009 42 23.9991C42 21.7974 41.604 19.6883 40.8804 17.7383H7.11959Z" fill="#D80027"/>
</svg>
