<svg width="64" height="64" viewBox="0 0 64 64" fill="currentColor" xmlns="http://www.w3.org/2000/svg">
<path d="M32.0054 6C25.8296 6.00354 19.8564 8.25797 15.1537 12.3602C10.4511 16.4624 7.3256 22.145 6.33617 28.3918C5.34673 34.6387 6.55783 41.0425 9.75292 46.4584C12.948 51.8742 17.9188 55.9489 23.7764 57.9539C25.0765 58.2053 25.5544 57.3797 25.5544 56.6723C25.5544 56.0399 25.5325 54.3605 25.5215 52.1389C18.2831 53.747 16.7578 48.5625 16.7578 48.5625C16.2785 46.9465 15.2502 45.5599 13.8592 44.6539C11.5026 43.0008 14.0423 43.0346 14.0423 43.0346C14.8675 43.1498 15.6559 43.4572 16.3472 43.933C17.0385 44.4089 17.6143 45.0406 18.0305 45.7798C18.3832 46.4382 18.8598 47.0184 19.4327 47.4869C20.0057 47.9554 20.6636 48.3028 21.3684 48.509C22.0732 48.7153 22.8109 48.7763 23.5388 48.6885C24.2668 48.6007 24.9705 48.3659 25.6094 47.9977C25.7257 46.6458 26.3103 45.3811 27.2574 44.4325C21.4784 43.7664 15.4047 41.4734 15.4047 31.2564C15.3664 28.6098 16.3252 26.0499 18.0817 24.1092C17.2683 21.8144 17.3503 19.2864 18.3106 17.052C18.3106 17.052 20.4896 16.3371 25.4665 19.7841C29.7213 18.5862 34.2126 18.5862 38.4673 19.7841C43.4113 16.3352 45.5903 17.052 45.5903 17.052C46.5352 19.2883 46.628 21.8063 45.8503 24.1092C47.6016 26.0554 48.5561 28.6169 48.5164 31.2639C48.5164 41.5072 42.4335 43.7626 36.6454 44.4175C37.2629 45.065 37.7389 45.8398 38.0416 46.6903C38.3444 47.5408 38.4671 48.4477 38.4014 49.3506C38.4014 52.9157 38.3685 55.7847 38.3685 56.6516C38.3685 57.3515 38.8244 58.1847 40.1574 57.9182C46.0241 55.9341 51.0091 51.8732 54.2184 46.4636C57.4277 41.0541 58.6514 34.6499 57.6699 28.3995C56.6885 22.1491 53.5662 16.4615 48.863 12.3566C44.1598 8.25174 38.1833 5.99815 32.0054 6Z" fill="currentColor"/>
</svg>
