<svg viewBox="0 0 40 40" fill="currentColor" xmlns="http://www.w3.org/2000/svg">
<path fill-rule="evenodd" clip-rule="evenodd" d="M8.61173 18.2838L6.45868 20.4398C5.87366 21.0258 5.87366 21.9759 6.45968 22.5609C7.04569 23.1459 7.99572 23.1459 8.58073 22.5599L11.2468 19.8918C13.1448 20.8748 15.4369 21.6979 18.02 21.9329V25.5C18.02 26.328 18.692 27 19.52 27C20.348 27 21.02 26.328 21.02 25.5V21.9289C23.1671 21.7279 25.1111 21.1228 26.7942 20.3578L29.9933 23.5599C30.5783 24.1459 31.5283 24.1459 32.1143 23.5609C32.7003 22.9759 32.7003 22.0259 32.1153 21.4399L29.5362 18.8588C32.1263 17.1937 33.6273 15.4897 33.6273 15.4897C34.1734 14.8677 34.1124 13.9197 33.4903 13.3727C32.8683 12.8266 31.9203 12.8876 31.3733 13.5097C31.3733 13.5097 26.5592 18.9998 19.5 18.9998C12.4408 18.9998 7.62671 13.5097 7.62671 13.5097C7.07969 12.8876 6.13167 12.8266 5.50966 13.3727C4.88764 13.9197 4.82664 14.8677 5.37265 15.4897C5.37265 15.4897 6.54768 16.8237 8.61173 18.2838Z" fill="currentColor"/>
</svg>
