<svg width="40" height="40" viewBox="0 0 40 40" fill="none" xmlns="http://www.w3.org/2000/svg">
<path d="M16.125 28.2647C16.485 28.2647 16.865 28.3047 17.225 28.3747C17.675 28.7247 18.305 28.6847 18.705 28.2747L19.185 27.7847L30.025 15.0747C30.385 14.6247 30.355 13.9647 29.945 13.5547L26.825 10.3347C26.405 9.91469 25.735 9.88469 25.285 10.2747L12.875 21.3847L12.385 21.8847C12.175 22.0947 12.055 22.3947 12.055 22.6847C12.055 22.9447 12.135 23.1947 12.285 23.3947C12.385 23.8547 12.705 25.8747 11.435 27.1747C11.335 27.2847 11.295 27.4347 11.325 27.5847L10.135 28.7847C9.955 28.9647 9.955 29.2647 10.135 29.4447C10.165 29.4747 10.205 29.5047 10.255 29.5347L11.585 30.2147C11.645 30.2447 11.725 30.2647 11.795 30.2647H22.475C22.725 30.2647 22.935 30.0547 22.935 29.8047C22.935 29.5547 22.725 29.3447 22.475 29.3447H13.425C13.425 29.3447 13.485 29.3047 13.515 29.2747C14.225 28.6047 15.155 28.2547 16.135 28.2947L16.125 28.2647ZM13.855 21.7447L25.885 10.9747C25.965 10.9047 26.095 10.9047 26.165 10.9847L29.315 14.1747C29.395 14.2547 29.405 14.3747 29.335 14.4547L18.815 26.7847L13.855 21.7347V21.7447ZM12.355 28.7347L11.745 29.2347L11.245 28.9847L11.925 28.2947L12.365 28.7447L12.355 28.7347ZM13.015 22.5647C13.015 22.5647 13.025 22.5547 13.035 22.5447L13.185 22.3947L18.205 27.4847L18.055 27.6347C18.055 27.6347 17.965 27.6947 17.905 27.6947C17.905 27.6947 17.815 27.6747 17.785 27.6547L17.765 27.6347C17.705 27.5747 17.635 27.5347 17.555 27.5147C17.095 27.4047 16.635 27.3447 16.165 27.3447H16.125C15.075 27.2947 14.045 27.6447 13.205 28.2847L12.395 27.4647C13.845 25.6147 13.165 23.0747 13.155 23.0447L13.015 22.5647Z" fill="#282828"/>
</svg>
