<svg viewBox="0 0 40 40" fill="currentColor" xmlns="http://www.w3.org/2000/svg">
<path d="M13.7545 27.9376C11.9286 27.9376 10.3045 26.7585 9.71481 25.0032L9.67489 24.8709C9.53575 24.4062 9.47758 24.0151 9.47758 23.624V15.7812L6.71068 25.0963C6.35484 26.4664 7.16575 27.887 8.52639 28.2654L26.1623 33.0288C26.3824 33.0863 26.6025 33.1139 26.8192 33.1139C27.9551 33.1139 28.993 32.3536 29.2839 31.2332L30.3115 27.9376H13.7545Z" fill="currentColor"/>
<path d="M16.8924 15.859C18.1504 15.859 19.1734 14.8272 19.1734 13.5584C19.1734 12.2896 18.1504 11.2578 16.8924 11.2578C15.6344 11.2578 14.6113 12.2896 14.6113 13.5584C14.6113 14.8272 15.6344 15.859 16.8924 15.859Z" fill="currentColor"/>
<path d="M31.1486 7.80664H14.0408C12.4691 7.80664 11.1895 9.09727 11.1895 10.6824V23.3356C11.1895 24.9207 12.4691 26.2114 14.0408 26.2114H31.1486C32.7202 26.2114 33.9999 24.9207 33.9999 23.3356V10.6824C33.9999 9.09727 32.7202 7.80664 31.1486 7.80664ZM14.0408 10.1072H31.1486C31.4634 10.1072 31.7188 10.3649 31.7188 10.6824V18.8483L28.1159 14.6083C27.7338 14.1563 27.1807 13.9147 26.5865 13.9009C25.9957 13.9044 25.4414 14.1689 25.0627 14.6267L20.8269 19.7548L19.4468 18.3664C18.6667 17.5796 17.3973 17.5796 16.6183 18.3664L13.4705 21.54V10.6824C13.4705 10.3649 13.726 10.1072 14.0408 10.1072Z" fill="currentColor"/>
</svg>
