<svg width="18" height="19" viewBox="0 0 18 19" fill="none" xmlns="http://www.w3.org/2000/svg">
<path d="M9 0C4.02891 0 0 4.25273 0 9.5C0 14.7473 4.02891 19 9 19C13.9711 19 18 14.7473 18 9.5C18 4.25273 13.9711 0 9 0ZM9 14.8438C8.36719 14.8438 7.875 14.3242 7.875 13.6562C7.875 12.9883 8.33555 12.4688 9 12.4688C9.60117 12.4688 10.125 12.9883 10.125 13.6562C10.125 14.3242 9.60117 14.8438 9 14.8438ZM11.4293 9.57422L9.84375 10.6133V10.6875C9.84375 11.1699 9.45703 11.5781 9 11.5781C8.54297 11.5781 8.15625 11.1699 8.15625 10.6875V10.0938C8.15625 9.79688 8.29688 9.5 8.57812 9.31445L10.582 8.05273C10.8281 7.9043 10.9688 7.64453 10.9688 7.34766C10.9688 6.90234 10.5855 6.53125 10.1637 6.53125H8.36719C7.91367 6.53125 7.59375 6.90234 7.59375 7.34766C7.59375 7.83008 7.20703 8.23828 6.75 8.23828C6.29297 8.23828 5.90625 7.83008 5.90625 7.34766C5.90625 5.90039 6.99609 4.75 8.33555 4.75H10.132C11.5664 4.75 12.6562 5.90039 12.6562 7.34766C12.6562 8.23828 12.1992 9.0918 11.4293 9.57422Z" fill="#282828"/>
</svg>
