<svg viewBox="0 0 40 40" fill="none" xmlns="http://www.w3.org/2000/svg">
<path d="M20 7C12.8202 7 7 12.8204 7 20C7 27.18 12.8202 33 20 33C27.1798 33 33 27.18 33 20C33 12.8204 27.1798 7 20 7ZM20 13.5C20.8975 13.5 21.625 14.2276 21.625 15.125C21.625 16.0228 20.8975 16.75 20 16.75C19.1025 16.75 18.375 16.0228 18.375 15.125C18.375 14.2276 19.1025 13.5 20 13.5ZM22.4375 26.5H17.5625C17.1138 26.5 16.75 26.1366 16.75 25.6875C16.75 25.2388 17.1138 24.875 17.5625 24.875H18.375V20H17.5625C17.1138 20 16.75 19.6366 16.75 19.1875C16.75 18.7388 17.1138 18.375 17.5625 18.375H20.8125C21.2612 18.375 21.625 18.7388 21.625 19.1875V24.875H22.4375C22.8862 24.875 23.25 25.2388 23.25 25.6875C23.25 26.1366 22.8862 26.5 22.4375 26.5Z" fill="currentColor"/>
</svg>
