<svg viewBox="0 0 48 48" fill="none" xmlns="http://www.w3.org/2000/svg">
<mask id="mask0_2829_91345" style="mask-type:luminance" maskUnits="userSpaceOnUse" x="4" y="3">
<path d="M44 23.9141C44 29.2184 41.8929 34.3055 38.1421 38.0562C34.3914 41.8069 29.3043 43.9141 24 43.9141C18.6957 43.9141 13.6086 41.8069 9.85787 38.0562C6.10714 34.3055 4 29.2184 4 23.9141C4 18.6097 6.10714 13.5227 9.85787 9.77193C13.6086 6.0212 18.6957 3.91406 24 3.91406C29.3043 3.91406 34.3914 6.0212 38.1421 9.77193C41.8929 13.5227 44 18.6097 44 23.9141Z" fill="white"/>
</mask>
<g mask="url(#mask0_2829_91345)">
<path d="M4.03906 3.91797H17.3724V43.918H4.03906V3.91797Z" fill="#00933E"/>
<path d="M17.3711 3.91797H30.7044V43.918H17.3711V3.91797Z" fill="white"/>
<path d="M30.7051 3.91797H44.0384V43.918H30.7051V3.91797Z" fill="#D80027"/>
</g>
</svg>
