<svg width="40" height="40" viewBox="0 0 40 40" fill="none" xmlns="http://www.w3.org/2000/svg">
<path d="M27 12.2857C27 12.9965 26.4783 13.5714 25.8333 13.5714H23.6943L18.8344 26.4286H21.1667C21.8116 26.4286 22.3333 27.0035 22.3333 27.7143C22.3333 28.425 21.8116 29 21.1667 29H14.1667C13.5217 29 13 28.425 13 27.7143C13 27.0035 13.5217 26.4286 14.1667 26.4286H16.3057L21.1656 13.5714H18.8333C18.1884 13.5714 17.6667 12.9965 17.6667 12.2857C17.6667 11.575 18.1884 11 18.8333 11H25.8333C26.4786 11 27 11.5754 27 12.2857Z" fill="#282828"/>
</svg>
