<svg viewBox="0 0 40 40" fill="none" xmlns="http://www.w3.org/2000/svg">
<path fill-rule="evenodd" clip-rule="evenodd" d="M27.1428 19.0767C27.0181 19.1972 26.9186 19.3412 26.8502 19.5005C26.7818 19.6598 26.7458 19.8311 26.7443 20.0045C26.7427 20.1778 26.7758 20.3498 26.8414 20.5102C26.9071 20.6707 27.004 20.8164 27.1266 20.939C27.2492 21.0616 27.395 21.1586 27.5554 21.2242C27.7159 21.2899 27.8878 21.3229 28.0611 21.3214C28.2345 21.3199 28.4058 21.2839 28.5651 21.2154C28.7244 21.147 28.8685 21.0475 28.9889 20.9228L31.0047 18.907C32.2942 17.5877 33.0114 15.8131 33.0009 13.9683C32.9903 12.1235 32.2528 10.3572 30.9483 9.05272C29.6438 7.74822 27.8775 7.01069 26.0327 7.00012C24.1879 6.98955 22.4133 7.70679 21.094 8.99626L19.0781 11.0121C18.9534 11.1325 18.854 11.2766 18.7856 11.4359C18.7171 11.5952 18.6811 11.7665 18.6796 11.9398C18.6781 12.1132 18.7111 12.2851 18.7768 12.4456C18.8424 12.606 18.9394 12.7518 19.062 12.8744C19.1845 12.997 19.3303 13.0939 19.4908 13.1596C19.6512 13.2252 19.8231 13.2582 19.9965 13.2567C20.1699 13.2552 20.3412 13.2192 20.5005 13.1508C20.6597 13.0824 20.8038 12.9829 20.9242 12.8582L22.9401 10.8424C23.3476 10.4304 23.8325 10.103 24.367 9.87905C24.9014 9.6551 25.4749 9.53899 26.0543 9.53741C26.6338 9.53582 27.2079 9.64879 27.7436 9.86981C28.2792 10.0908 28.7659 10.4156 29.1757 10.8253C29.5854 11.2351 29.9102 11.7218 30.1312 12.2574C30.3522 12.7931 30.4652 13.3672 30.4636 13.9467C30.462 14.5261 30.3459 15.0996 30.1219 15.634C29.898 16.1685 29.5706 16.6534 29.1586 17.0609L27.1428 19.0767ZM12.8582 20.9242C12.9829 20.8038 13.0824 20.6597 13.1508 20.5005C13.2192 20.3412 13.2552 20.1699 13.2567 19.9965C13.2582 19.8231 13.2252 19.6512 13.1596 19.4908C13.0939 19.3303 12.997 19.1845 12.8744 19.062C12.7518 18.9394 12.606 18.8424 12.4456 18.7768C12.2851 18.7111 12.1132 18.6781 11.9398 18.6796C11.7665 18.6811 11.5952 18.7171 11.4359 18.7856C11.2766 18.854 11.1325 18.9534 11.0121 19.0781L8.99626 21.094C7.70679 22.4133 6.98955 24.1879 7.00012 26.0327C7.01069 27.8775 7.74822 29.6438 9.05272 30.9483C10.3572 32.2528 12.1235 32.9903 13.9683 33.0009C15.8131 33.0114 17.5877 32.2942 18.907 31.0047L20.9228 28.9889C21.1607 28.7427 21.2923 28.4129 21.2893 28.0705C21.2863 27.7282 21.149 27.4008 20.9069 27.1587C20.6649 26.9166 20.3374 26.7793 19.9951 26.7763C19.6528 26.7734 19.323 26.905 19.0767 27.1428L17.0609 29.1586C16.2347 29.9758 15.1187 30.4327 13.9566 30.4296C12.7946 30.4264 11.681 29.9634 10.8593 29.1417C10.0376 28.32 9.5746 27.2064 9.57143 26.0444C9.56825 24.8823 10.0252 23.7663 10.8424 22.9401L12.8582 20.9242ZM15.9663 25.3444C15.6201 25.3444 15.2881 25.2069 15.0433 24.9621C14.9211 24.8408 14.8241 24.6965 14.758 24.5375C14.6918 24.3785 14.6577 24.208 14.6577 24.0358C14.6577 23.8636 14.6918 23.6931 14.758 23.5341C14.8241 23.3752 14.9211 23.2308 15.0433 23.1095L23.1131 15.0462C23.2336 14.9215 23.3776 14.822 23.5369 14.7536C23.6962 14.6851 23.8675 14.6491 24.0409 14.6476C24.2142 14.6461 24.3862 14.6791 24.5466 14.7448C24.7071 14.8104 24.8528 14.9074 24.9754 15.03C25.098 15.1526 25.1949 15.2983 25.2606 15.4588C25.3262 15.6192 25.3593 15.7912 25.3578 15.9645C25.3563 16.1379 25.3202 16.3092 25.2518 16.4685C25.1834 16.6278 25.0839 16.7718 24.9592 16.8923L16.8894 24.9621C16.6445 25.2069 16.3125 25.3444 15.9663 25.3444Z" fill="currentColor"/>
</svg>
