<svg width="40" height="40" viewBox="0 0 40 40" fill="none" xmlns="http://www.w3.org/2000/svg">
<path d="M11.5693 11.9108C11.5693 11.4076 12.0081 11 12.4741 11H13.6804C14.2157 11 14.5852 11.4076 14.5852 11.9108V16.4633H15.1883C15.7237 16.4633 16.0931 16.8731 16.0931 17.3741C16.0931 17.8788 15.7237 18.2848 15.1883 18.2848H12.1725C11.7065 18.2848 11.2677 17.8788 11.2677 17.3741C11.2677 16.8731 11.7065 16.4633 12.1725 16.4633H12.7756V12.8216H12.4741C12.0081 12.8216 11.5693 12.4136 11.5693 11.9108ZM13.9669 22.7326C13.7181 22.4517 13.277 22.4707 13.0603 22.7781L12.6411 23.3663C12.3508 23.7762 11.7857 23.8711 11.3789 23.5788C10.9722 23.2866 10.8783 22.7174 11.1686 22.3113L11.5878 21.7193C12.4827 20.4556 14.3137 20.3645 15.3278 21.5334C16.1308 22.4252 16.1119 23.8445 15.2864 24.7477L13.9707 26.1784H15.2223C15.7237 26.1784 16.127 26.5845 16.127 27.0892C16.127 27.5939 15.7237 28 15.2223 28H11.9048C11.5456 28 11.2202 27.7875 11.0762 27.4535C10.9318 27.1234 10.9963 26.7363 11.2398 26.4706L13.9556 23.5105C14.1554 23.2904 14.1592 22.9565 13.9669 22.7326ZM28.7937 12.2129C29.4609 12.2129 30 12.7567 30 13.4273C30 14.099 29.4609 14.6417 28.7937 14.6417H19.1429C18.4756 14.6417 17.9365 14.099 17.9365 13.4273C17.9365 12.7567 18.4756 12.2129 19.1429 12.2129H28.7937ZM28.7937 18.2848C29.4609 18.2848 30 18.8275 30 19.4992C30 20.171 29.4609 20.7136 28.7937 20.7136H19.1429C18.4756 20.7136 17.9365 20.171 17.9365 19.4992C17.9365 18.8275 18.4756 18.2848 19.1429 18.2848H28.7937ZM28.7937 24.3568C29.4609 24.3568 30 24.8995 30 25.5712C30 26.2429 29.4609 26.7856 28.7937 26.7856H19.1429C18.4756 26.7856 17.9365 26.2429 17.9365 25.5712C17.9365 24.8995 18.4756 24.3568 19.1429 24.3568H28.7937Z" fill="#282828"/>
</svg>
