<svg width="40" height="40" viewBox="0 0 40 40" fill="none" xmlns="http://www.w3.org/2000/svg">
<path d="M11 13.8462C11 12.8265 11.8232 12 12.8387 12C13.8542 12 14.6774 12.8265 14.6774 13.8462C14.6774 14.8654 13.8542 15.6923 12.8387 15.6923C11.8232 15.6923 11 14.8654 11 13.8462ZM28.7742 12.6154C29.4522 12.6154 30 13.1665 30 13.8462C30 14.5269 29.4522 15.0769 28.7742 15.0769H17.7419C17.0639 15.0769 16.5161 14.5269 16.5161 13.8462C16.5161 13.1665 17.0639 12.6154 17.7419 12.6154H28.7742ZM28.7742 18.7692C29.4522 18.7692 30 19.3192 30 20C30 20.6808 29.4522 21.2308 28.7742 21.2308H17.7419C17.0639 21.2308 16.5161 20.6808 16.5161 20C16.5161 19.3192 17.0639 18.7692 17.7419 18.7692H28.7742ZM28.7742 24.9231C29.4522 24.9231 30 25.4731 30 26.1538C30 26.8346 29.4522 27.3846 28.7742 27.3846H17.7419C17.0639 27.3846 16.5161 26.8346 16.5161 26.1538C16.5161 25.4731 17.0639 24.9231 17.7419 24.9231H28.7742ZM11 26.1538C11 25.1346 11.8232 24.3077 12.8387 24.3077C13.8542 24.3077 14.6774 25.1346 14.6774 26.1538C14.6774 27.1731 13.8542 28 12.8387 28C11.8232 28 11 27.1731 11 26.1538ZM14.6774 20C14.6774 21.0192 13.8542 21.8462 12.8387 21.8462C11.8232 21.8462 11 21.0192 11 20C11 18.9808 11.8232 18.1538 12.8387 18.1538C13.8542 18.1538 14.6774 18.9808 14.6774 20Z" fill="#282828"/>
</svg>
