<svg width="17" height="15" viewBox="0 0 17 15" fill="none" xmlns="http://www.w3.org/2000/svg">
<path d="M3.1875 15H5.3125C5.9002 15 6.375 14.5212 6.375 13.9286C6.375 13.3359 5.9002 12.8571 5.3125 12.8571H3.1875C2.6008 12.8571 2.125 12.3773 2.125 11.7857V3.21429C2.125 2.62266 2.6008 2.14286 3.1875 2.14286H5.3125C5.9002 2.14286 6.375 1.66306 6.375 1.07143C6.375 0.479799 5.9002 0 5.3125 0H3.1875C1.42707 0 0 1.43906 0 3.21429V11.7857C0 13.5603 1.42707 15 3.1875 15ZM16.7609 6.91406L11.9764 2.36049C11.7448 2.14025 11.4053 2.08008 11.1131 2.20667C10.8208 2.33381 10.6313 2.6242 10.6313 2.94496L10.6283 5.35567L6.37826 5.35564C5.7909 5.35564 5.3151 5.83543 5.3151 6.42706V8.56992C5.3151 9.16155 5.79123 9.64135 6.37826 9.64135L10.6283 9.64138L10.6313 12.022C10.6313 12.3427 10.8208 12.633 11.1131 12.7602C11.4054 12.8868 11.7449 12.8267 11.9764 12.6064L16.7609 8.05286C17.0797 7.78125 17.0797 7.21875 16.7609 6.91406Z" fill="#282828"/>
</svg>
