<svg viewBox="0 0 40 40" fill="none" xmlns="http://www.w3.org/2000/svg">
<path d="M13.3125 30H16.1875C16.9826 30 17.625 29.3297 17.625 28.5C17.625 27.6703 16.9826 27 16.1875 27H13.3125C12.5187 27 11.875 26.3283 11.875 25.5V13.5C11.875 12.6717 12.5187 12 13.3125 12H16.1875C16.9826 12 17.625 11.3283 17.625 10.5C17.625 9.67172 16.9826 9 16.1875 9H13.3125C10.9307 9 9 11.0147 9 13.5V25.5C9 27.9844 10.9307 30 13.3125 30ZM31.6766 18.6797L25.2033 12.3047C24.89 11.9963 24.4307 11.9121 24.0354 12.0893C23.6399 12.2673 23.3835 12.6739 23.3835 13.1229L23.3794 16.4979L17.6294 16.4979C16.8347 16.4979 16.191 17.1696 16.191 17.9979V20.9979C16.191 21.8262 16.8352 22.4979 17.6294 22.4979L23.3794 22.4979L23.3835 25.8307C23.3835 26.2797 23.6399 26.6862 24.0354 26.8643C24.4308 27.0416 24.8902 26.9573 25.2033 26.649L31.6766 20.274C32.1078 19.8937 32.1078 19.1062 31.6766 18.6797Z" fill="currentColor"/>
</svg>
