<svg viewBox="0 0 40 40" fill="none" xmlns="http://www.w3.org/2000/svg">
<path d="M27.5839 22.4223L20.5004 29.5795C20.2259 29.8613 19.8629 30 19.4999 30C19.1369 30 18.7747 29.8602 18.4985 29.5806L11.415 22.4234C10.8617 21.8642 10.8617 20.9584 11.415 20.3992C11.9684 19.8401 12.8649 19.8401 13.4183 20.3992L18.0832 25.1152L18.0832 11.3912C18.0832 10.5999 18.7176 10 19.46 10C20.2025 10 20.9166 10.5999 20.9166 11.3912L20.9166 25.1152L25.5828 20.4004C26.1362 19.8412 27.0327 19.8412 27.5861 20.4004C28.1395 20.9595 28.1372 21.8631 27.5839 22.4223Z" fill="currentColor"/>
</svg>
