<svg viewBox="0 0 40 40" fill="none" xmlns="http://www.w3.org/2000/svg">
<path d="M22.4223 11.4161L29.5795 18.4996C29.8613 18.7741 30 19.1371 30 19.5001C30 19.8631 29.8602 20.2253 29.5806 20.5015L22.4234 27.585C21.8642 28.1383 20.9584 28.1383 20.3992 27.585C19.8401 27.0316 19.8401 26.1351 20.3992 25.5817L25.1152 20.9168L11.3912 20.9168C10.5999 20.9168 10 20.2824 10 19.54C10 18.7975 10.5999 18.0834 11.3912 18.0834L25.1152 18.0834L20.4004 13.4172C19.8412 12.8638 19.8412 11.9673 20.4004 11.4139C20.9595 10.8605 21.8631 10.8628 22.4223 11.4161Z" fill="currentColor"/>
</svg>
