<svg viewBox="0 0 40 40" fill="none" xmlns="http://www.w3.org/2000/svg">
<path d="M11.4162 17.5777L18.4996 10.4205C18.7741 10.1387 19.1371 10 19.5001 10C19.8631 10 20.2253 10.1398 20.5015 10.4194L27.585 17.5766C28.1383 18.1358 28.1383 19.0416 27.585 19.6008C27.0316 20.1599 26.1351 20.1599 25.5817 19.6008L20.9168 14.8848L20.9168 28.6088C20.9168 29.4001 20.2824 30 19.54 30C18.7975 30 18.0834 29.4001 18.0834 28.6088L18.0834 14.8848L13.4172 19.5996C12.8638 20.1588 11.9673 20.1588 11.4139 19.5996C10.8605 19.0405 10.8628 18.1369 11.4162 17.5777Z" fill="currentColor"/>
</svg>
