<svg viewBox="0 0 17 20" fill="none" xmlns="http://www.w3.org/2000/svg">
<path d="M0.41615 7.57772L7.49958 0.420489C7.77406 0.138673 8.13709 1.13253e-06 8.50011 1.16426e-06C8.86314 1.196e-06 9.22528 0.139791 9.50153 0.419372L16.585 7.57661C17.1383 8.13577 17.1383 9.0416 16.585 9.60076C16.0316 10.1599 15.1351 10.1599 14.5817 9.60076L9.9168 4.88481L9.9168 18.6088C9.9168 19.4001 9.28239 20 8.53995 20C7.79752 20 7.08342 19.4001 7.08342 18.6088L7.08343 4.88481L2.41722 9.59964C1.86383 10.1588 0.96733 10.1588 0.413938 9.59964C-0.139455 9.04048 -0.137242 8.13688 0.41615 7.57772Z" fill="currentColor"/>
</svg>
