<svg width="20" height="18" viewBox="0 0 20 18" fill="none" xmlns="http://www.w3.org/2000/svg">
<path d="M7.57772 17.0839L0.42049 10.0004C0.138673 9.72594 1.51994e-06 9.36291 1.53581e-06 8.99989C1.55167e-06 8.63686 0.139791 8.27472 0.419372 7.99847L7.57661 0.915044C8.13577 0.361651 9.0416 0.361651 9.60076 0.915044C10.1599 1.46844 10.1599 2.36493 9.60076 2.91833L4.88481 7.5832L18.6088 7.5832C19.4001 7.5832 20 8.21761 20 8.96005C20 9.70248 19.4001 10.4166 18.6088 10.4166L4.88481 10.4166L9.59964 15.0828C10.1588 15.6362 10.1588 16.5327 9.59964 17.0861C9.04048 17.6395 8.13688 17.6372 7.57772 17.0839Z" fill="#282828"/>
</svg>
