<svg viewBox="0 0 40 40" fill="none" xmlns="http://www.w3.org/2000/svg">
<path d="M17.5777 27.5839L10.4205 20.5004C10.1387 20.2259 10 19.8629 10 19.4999C10 19.1369 10.1398 18.7747 10.4194 18.4985L17.5766 11.415C18.1358 10.8617 19.0416 10.8617 19.6008 11.415C20.1599 11.9684 20.1599 12.8649 19.6008 13.4183L14.8848 18.0832L28.6088 18.0832C29.4001 18.0832 30 18.7176 30 19.46C30 20.2025 29.4001 20.9166 28.6088 20.9166L14.8848 20.9166L19.5996 25.5828C20.1588 26.1362 20.1588 27.0327 19.5996 27.5861C19.0405 28.1395 18.1369 28.1372 17.5777 27.5839Z" fill="currentColor"/>
</svg>
