<svg viewBox="0 0 17 20" fill="none" xmlns="http://www.w3.org/2000/svg">
<path d="M16.5839 12.4223L9.50042 19.5795C9.22594 19.8613 8.86292 20 8.49989 20C8.13686 20 7.77472 19.8602 7.49847 19.5806L0.415044 12.4234C-0.138348 11.8642 -0.138348 10.9584 0.415044 10.3992C0.968437 9.84008 1.86493 9.84008 2.41833 10.3992L7.0832 15.1152L7.0832 1.39119C7.0832 0.599866 7.71761 0 8.46005 0C9.20248 0 9.91658 0.599866 9.91658 1.39119L9.91658 15.1152L14.5828 10.4004C15.1362 9.8412 16.0327 9.8412 16.5861 10.4004C17.1395 10.9595 17.1372 11.8631 16.5839 12.4223Z" fill="currentColor"/>
</svg>
