<svg viewBox="0 0 20 18" fill="none" xmlns="http://www.w3.org/2000/svg">
<path d="M12.4223 0.916149L19.5795 7.99957C19.8613 8.27406 20 8.63708 20 9.00011C20 9.36313 19.8602 9.72528 19.5806 10.0015L12.4234 17.085C11.8642 17.6383 10.9584 17.6383 10.3992 17.085C9.84008 16.5316 9.84008 15.6351 10.3992 15.0817L15.1152 10.4168L1.39119 10.4168C0.599865 10.4168 -3.37348e-07 9.78239 -3.698e-07 9.03995C-4.02253e-07 8.29752 0.599865 7.58342 1.39119 7.58342L15.1152 7.58342L10.4004 2.91722C9.8412 2.36383 9.8412 1.46733 10.4004 0.913936C10.9595 0.360544 11.8631 0.362756 12.4223 0.916149Z" fill="currentColor"/>
</svg>
