<svg viewBox="0 0 40 40" fill="none" xmlns="http://www.w3.org/2000/svg">
<path d="M10.725 13H30.275C31.2279 13 32 12.3286 32 11.5C32 10.6714 31.2279 10 30.275 10H10.725C9.77209 10 9 10.6714 9 11.5C9 12.3286 9.77209 13 10.725 13Z" fill="currentColor"/>
<path d="M10.725 21H30.275C31.2279 21 32 20.3286 32 19.5C32 18.6714 31.2279 18 30.275 18H10.725C9.77209 18 9 18.6714 9 19.5C9 20.3286 9.77209 21 10.725 21Z" fill="currentColor"/>
<path d="M30.275 26H10.725C9.77209 26 9 26.6714 9 27.5C9 28.3286 9.77209 29 10.725 29H30.275C31.2279 29 32 28.3286 32 27.5C32 26.6714 31.2279 26 30.275 26Z" fill="currentColor"/>
</svg>
