<svg width="20" height="18" viewBox="0 0 20 18" fill="none" xmlns="http://www.w3.org/2000/svg">
<path d="M18.0208 10.1734C18.6458 10.1734 19.1319 10.3963 19.4792 10.8422C19.8264 11.2881 20 11.8279 20 12.4615C20 13.0952 19.8264 13.6232 19.4792 14.0456C19.1551 14.4446 18.6921 14.6441 18.0903 14.6441C17.6273 14.6441 17.1065 14.4329 16.5278 14.0104C15.9722 13.588 15.4977 13.3768 15.1042 13.3768C14.7106 13.3768 14.4097 13.5293 14.2014 13.8344C13.9931 14.116 13.8773 14.4681 13.8542 14.8905C13.8542 15.2894 13.8773 15.6884 13.9236 16.0874C13.9699 16.5098 14.0278 16.8735 14.0972 17.1786L14.2014 17.601C13.9236 17.601 13.4838 17.6362 12.8819 17.7066C12.2801 17.7771 11.713 17.8357 11.1806 17.8827C10.6713 17.9296 10.1505 17.9413 9.61806 17.9179C9.08565 17.9179 8.66898 17.8123 8.36806 17.601C8.06713 17.3898 7.91667 17.0847 7.91667 16.6858C7.91667 16.2868 8.125 15.8057 8.54167 15.2425C8.95833 14.6793 9.16667 14.1512 9.16667 13.6584C9.16667 13.0717 8.95833 12.6141 8.54167 12.2855C8.14815 11.9335 7.63889 11.7575 7.01389 11.7575C6.38889 11.7575 5.86806 11.9335 5.45139 12.2855C5.03472 12.6141 4.82639 13.0952 4.82639 13.7288C4.82639 14.1512 4.94213 14.5502 5.17361 14.9257C5.40509 15.2777 5.63657 15.5828 5.86806 15.8409C6.09954 16.1226 6.21528 16.369 6.21528 16.5802C6.21528 17.0495 5.99537 17.4016 5.55556 17.6362C5.13889 17.8709 4.61806 17.9883 3.99306 17.9883C3.3912 18.0117 2.78935 18 2.1875 17.9531C1.58565 17.9061 1.06481 17.8357 0.625 17.7419L0 17.601V5.87875C0 5.87875 0.740741 5.99609 2.22222 6.23077C4.81482 6.48892 6.11111 6.03129 6.11111 4.85789C6.11111 4.64668 5.92593 4.24772 5.55556 3.66102C5.18519 3.07432 5 2.51108 5 1.97132C5 1.36115 5.21991 0.880052 5.65972 0.528031C6.12269 0.17601 6.67824 0 7.32639 0C7.92824 0 8.42593 0.17601 8.81944 0.528031C9.23611 0.856584 9.44444 1.32595 9.44444 1.93611C9.44444 2.40548 9.23611 2.92177 8.81944 3.48501C8.40278 4.04824 8.19444 4.54107 8.19444 4.96349C8.19444 5.50326 8.42593 5.87875 8.88889 6.08996C9.35185 6.30117 9.91898 6.35984 10.5903 6.26597C11.2616 6.1721 11.9329 6.04302 12.6042 5.87875C13.2755 5.691 13.8426 5.51499 14.3056 5.35072L15 5.0691C15 5.0691 14.8032 5.87875 14.4097 7.49804C13.9699 10.0091 14.2245 11.2647 15.1736 11.2647C15.3819 11.2647 15.7755 11.0887 16.3542 10.7366C16.9329 10.3611 17.4884 10.1734 18.0208 10.1734Z" fill="#282828"/>
</svg>
