<svg viewBox="0 0 40 40" fill="none" xmlns="http://www.w3.org/2000/svg">
<path d="M31.2292 21.6949C32.1042 21.6949 32.7847 22.0169 33.2708 22.661C33.7569 23.3051 34 24.0847 34 25C34 25.9153 33.7569 26.678 33.2708 27.2881C32.8171 27.8644 32.169 28.1525 31.3264 28.1525C30.6782 28.1525 29.9491 27.8475 29.1389 27.2373C28.3611 26.6271 27.6968 26.322 27.1458 26.322C26.5949 26.322 26.1736 26.5424 25.8819 26.9831C25.5903 27.3898 25.4282 27.8983 25.3958 28.5085C25.3958 29.0847 25.4282 29.661 25.4931 30.2373C25.5579 30.8475 25.6389 31.3729 25.7361 31.8136L25.8819 32.4237C25.4931 32.4237 24.8773 32.4746 24.0347 32.5763C23.1921 32.678 22.3981 32.7627 21.6528 32.8305C20.9398 32.8983 20.2106 32.9153 19.4653 32.8814C18.7199 32.8814 18.1366 32.7288 17.7153 32.4237C17.294 32.1186 17.0833 31.678 17.0833 31.1017C17.0833 30.5254 17.375 29.8305 17.9583 29.0169C18.5417 28.2034 18.8333 27.4407 18.8333 26.7288C18.8333 25.8814 18.5417 25.2203 17.9583 24.7458C17.4074 24.2373 16.6944 23.9831 15.8194 23.9831C14.9444 23.9831 14.2153 24.2373 13.6319 24.7458C13.0486 25.2203 12.7569 25.9153 12.7569 26.8305C12.7569 27.4407 12.919 28.0169 13.2431 28.5593C13.5671 29.0678 13.8912 29.5085 14.2153 29.8814C14.5394 30.2881 14.7014 30.6441 14.7014 30.9492C14.7014 31.6271 14.3935 32.1356 13.7778 32.4746C13.1944 32.8136 12.4653 32.9831 11.5903 32.9831C10.7477 33.0169 9.90509 33 9.0625 32.9322C8.21991 32.8644 7.49074 32.7627 6.875 32.6271L6 32.4237V15.4915C6 15.4915 7.03704 15.661 9.11111 16C12.7407 16.3729 14.5556 15.7119 14.5556 14.0169C14.5556 13.7119 14.2963 13.1356 13.7778 12.2881C13.2593 11.4407 13 10.6271 13 9.84746C13 8.9661 13.3079 8.27119 13.9236 7.76271C14.5718 7.25424 15.3495 7 16.2569 7C17.0995 7 17.7963 7.25424 18.3472 7.76271C18.9306 8.23729 19.2222 8.91525 19.2222 9.79661C19.2222 10.4746 18.9306 11.2203 18.3472 12.0339C17.7639 12.8475 17.4722 13.5593 17.4722 14.1695C17.4722 14.9492 17.7963 15.4915 18.4444 15.7966C19.0926 16.1017 19.8866 16.1864 20.8264 16.0508C21.7662 15.9153 22.706 15.7288 23.6458 15.4915C24.5856 15.2203 25.3796 14.9661 26.0278 14.7288L27 14.322C27 14.322 26.7245 15.4915 26.1736 17.8305C25.5579 21.4576 25.9144 23.2712 27.2431 23.2712C27.5347 23.2712 28.0856 23.0169 28.8958 22.5085C29.706 21.9661 30.4838 21.6949 31.2292 21.6949Z" fill="currentColor"/>
</svg>
