<svg viewBox="0 0 40 40" fill="none" xmlns="http://www.w3.org/2000/svg">
<path d="M33.6992 19.2088L29.7891 15.3402C29.3516 14.9027 28.6406 14.9027 28.2031 15.3402C27.9844 15.5452 27.875 15.8323 27.875 16.133C27.875 16.4338 27.998 16.7072 28.2031 16.9259L30.1855 18.8944H20.8613V9.83108L22.8301 11.8133C23.2539 12.237 23.9922 12.237 24.416 11.8133C24.8535 11.3758 24.8535 10.665 24.416 10.2275L20.5332 6.31783C20.1094 5.89406 19.3711 5.89406 18.9473 6.31783L15.0781 10.2275C14.6406 10.665 14.6406 11.3758 15.0781 11.8133C15.502 12.237 16.2402 12.237 16.6641 11.8133L18.6328 9.83108V18.8808H9.8418L11.8242 16.9122C12.043 16.7072 12.1523 16.4201 12.1523 16.1194C12.1523 15.8186 12.0293 15.5452 11.8242 15.3265C11.3867 14.8891 10.6758 14.8891 10.2383 15.3265L6.32812 19.2088C6.10938 19.4139 6 19.701 6 20.0017C6 20.3025 6.12305 20.5895 6.32812 20.7946L10.2383 24.6632C10.6758 25.1007 11.3867 25.1007 11.8242 24.6632C12.043 24.4582 12.1523 24.1711 12.1523 23.8704C12.1523 23.5696 12.0293 23.2962 11.8242 23.0775L9.8418 21.109H18.6191V30.1587L16.6504 28.1765C16.4453 27.9578 16.1582 27.8484 15.8574 27.8484C15.5566 27.8484 15.2832 27.9714 15.0645 28.1765C14.627 28.6139 14.627 29.3248 15.0645 29.7622L18.9336 33.6719C19.1387 33.8906 19.4258 34 19.7266 34C20.0273 34 20.3145 33.877 20.5195 33.6719L24.3887 29.7622C24.8262 29.3248 24.8262 28.6139 24.3887 28.1765C23.9648 27.7527 23.2266 27.7527 22.8027 28.1765L20.834 30.1587V21.109H30.1582L28.1758 23.0775C27.957 23.2826 27.8477 23.5696 27.8477 23.8704C27.8477 24.1711 27.9707 24.4445 28.1758 24.6632C28.6133 25.1007 29.3242 25.1007 29.7617 24.6632L33.6719 20.7946C33.8906 20.5895 34 20.3025 34 20.0017C34 19.701 33.877 19.4139 33.6719 19.2088H33.6992Z" fill="currentColor"/>
</svg>
