<svg viewBox="0 0 40 40" fill="none" xmlns="http://www.w3.org/2000/svg">
<path d="M31.7543 21.6973C31.6293 22.3158 31.2698 22.625 30.676 22.625H16.9392L17.2205 24.1875H29.8321C30.1759 24.1875 30.4572 24.334 30.676 24.627C30.8948 24.9199 30.9729 25.2454 30.9104 25.6035L30.6291 26.8242C31.6293 27.3125 32.1294 28.1263 32.1294 29.2656C32.1294 30.0143 31.8637 30.6491 31.3323 31.1699C30.8323 31.7233 30.2228 32 29.5039 32C28.785 32 28.1599 31.7233 27.6286 31.1699C27.1285 30.6491 26.8785 30.0143 26.8785 29.2656C26.8785 28.4844 27.1441 27.8333 27.6755 27.3125H17.83C18.3613 27.8333 18.627 28.4844 18.627 29.2656C18.627 30.0143 18.3613 30.6491 17.83 31.1699C17.3299 31.7233 16.7204 32 16.0016 32C15.2827 32 14.6576 31.7233 14.1262 31.1699C13.6262 30.6491 13.3761 30.0143 13.3761 29.2656C13.3761 28.224 13.8137 27.4264 14.6888 26.873L11.407 10.125H8.1252C7.81264 10.125 7.54697 10.0111 7.32818 9.7832C7.10939 9.55534 7 9.27865 7 8.95312V8.17188C7 7.84635 7.10939 7.56966 7.32818 7.3418C7.54697 7.11393 7.81264 7 8.1252 7H12.9542C13.2042 7 13.423 7.09766 13.6105 7.29297C13.8293 7.45573 13.97 7.66732 14.0325 7.92773L14.4544 10.125H32.8795C33.2546 10.125 33.5515 10.2715 33.7703 10.5645C33.9891 10.8574 34.0516 11.1829 33.9578 11.541L31.7543 21.6973Z" fill="currentColor"/>
</svg>
