<svg width="21" height="19" viewBox="0 0 21 19" fill="none" xmlns="http://www.w3.org/2000/svg">
<path d="M19.2533 11.1699C19.1561 11.64 18.8765 11.875 18.4147 11.875H7.73051L7.9493 13.0625H17.7583C18.0257 13.0625 18.2445 13.1738 18.4147 13.3965C18.5848 13.6191 18.6456 13.8665 18.597 14.1387L18.3782 15.0664C19.1561 15.4375 19.5451 16.056 19.5451 16.9219C19.5451 17.4909 19.3384 17.9733 18.9252 18.3691C18.5362 18.7897 18.0622 19 17.503 19C16.9439 19 16.4577 18.7897 16.0445 18.3691C15.6555 17.9733 15.461 17.4909 15.461 16.9219C15.461 16.3281 15.6677 15.8333 16.0809 15.4375H8.42334C8.8366 15.8333 9.04324 16.3281 9.04324 16.9219C9.04324 17.4909 8.8366 17.9733 8.42334 18.3691C8.03438 18.7897 7.56034 19 7.00122 19C6.44209 19 5.95589 18.7897 5.54263 18.3691C5.15367 17.9733 4.95919 17.4909 4.95919 16.9219C4.95919 16.1302 5.29953 15.5241 5.9802 15.1035L3.42768 2.375H0.875152C0.632054 2.375 0.425421 2.28841 0.255253 2.11523C0.0850842 1.94206 0 1.73177 0 1.48438V0.890625C0 0.643229 0.0850842 0.432943 0.255253 0.259766C0.425421 0.0865885 0.632054 0 0.875152 0H4.63101C4.82549 0 4.99566 0.0742188 5.14152 0.222656C5.31169 0.346354 5.42108 0.507161 5.4697 0.705078L5.79788 2.375H20.1285C20.4202 2.375 20.6512 2.48633 20.8213 2.70898C20.9915 2.93164 21.0401 3.17904 20.9672 3.45117L19.2533 11.1699Z" fill="#282828"/>
</svg>
