<svg width="48" height="48" viewBox="0 0 48 48" fill="none" xmlns="http://www.w3.org/2000/svg">
<mask id="mask0_2829_91346" style="mask-type:luminance" maskUnits="userSpaceOnUse" x="6" y="6" width="36" height="36">
<path d="M24.0003 6C33.9415 6 42.0005 14.0591 42.0005 23.9996C42.0005 33.9408 33.9416 42 24.0003 42C14.0589 42 6 33.9408 6 23.9996C6 14.0591 14.0591 6 24.0003 6Z" fill="white"/>
</mask>
<g mask="url(#mask0_2829_91346)">
<path d="M-2.60547 6H18.9939V42H-2.60547V6Z" fill="#076629"/>
<path d="M18.9902 6H51.3888V42H18.9902V6Z" fill="#D80027"/>
<path d="M11.4716 20.3755C11.5205 20.4523 11.57 20.5297 11.6204 20.6041C12.6032 20.9297 14.4682 21.387 17.4021 21.4963C18.0152 21.5204 18.5035 21.5234 18.7802 21.5204H18.9655H19.0276H19.2135C19.4894 21.5234 19.9785 21.5204 20.5909 21.4963C23.5248 21.3886 25.3897 20.9313 26.3742 20.6041C26.4239 20.5297 26.475 20.4521 26.5215 20.3755C26.6347 20.1948 26.7416 20.0089 26.8423 19.8181C26.7944 19.7267 26.7448 19.6376 26.692 19.5469C25.6984 19.915 23.276 20.601 19.0274 20.5738V20.5722C19.0181 20.5738 18.9755 20.5738 18.9654 20.5722V20.5738C14.7175 20.601 12.2953 19.915 11.3008 19.5469C11.2488 19.6376 11.1993 19.7267 11.1504 19.8181C11.2507 20.0073 11.3584 20.1948 11.4716 20.3755C11.473 20.3755 11.473 20.3755 11.4716 20.3755Z" fill="#F5E600"/>
<path d="M19.3863 21.5409C19.3213 21.5409 19.2623 21.5409 19.2119 21.5409H19.1879H19.1002L19.0048 21.5385H18.9955H18.9769L18.8909 21.5409H18.8033H18.7802C18.7291 21.5409 18.6701 21.5409 18.605 21.5409C18.3384 21.5409 17.9128 21.5355 17.4005 21.5169C14.5224 21.4091 12.6652 20.9704 11.6125 20.623L11.6063 20.62L11.6032 20.6137C11.5566 20.5447 11.5078 20.4703 11.4536 20.385L11.4203 20.3308C11.3219 20.1719 11.2249 20.002 11.1296 19.8277L11.125 19.8161L11.1296 19.8068C11.1808 19.7114 11.2295 19.6215 11.2808 19.5339L11.2901 19.5176L11.3079 19.5246C12.3396 19.9066 14.6751 20.5501 18.7183 20.5501C18.7927 20.5501 18.8672 20.5501 18.9424 20.5485H18.9642H18.9959H19.0501C19.1247 20.5501 19.199 20.5501 19.2726 20.5501C23.3173 20.5501 25.652 19.9066 26.683 19.5246L26.7016 19.5176L26.7109 19.5339C26.7605 19.6192 26.8118 19.7099 26.8629 19.8068L26.8691 19.8161L26.8629 19.8277C26.7667 20.0036 26.6707 20.1735 26.5715 20.3324L26.5373 20.385C26.4847 20.4703 26.4349 20.5447 26.3886 20.6137L26.3855 20.62L26.3777 20.623C25.3281 20.9703 23.4678 21.4075 20.5898 21.5169C20.0785 21.5356 19.6531 21.5409 19.3863 21.5409ZM19.188 21.496H19.2121H19.3865C19.6531 21.496 20.0787 21.493 20.5896 21.472C23.4568 21.3657 25.3078 20.9309 26.3573 20.5836C26.3945 20.5278 26.4332 20.4688 26.4752 20.4021L26.5 20.3641C26.6085 20.1944 26.7139 20.0099 26.8163 19.8177C26.7714 19.734 26.7263 19.6525 26.6815 19.5751C25.6382 19.9595 23.3011 20.5975 19.2726 20.5975C19.1912 20.5975 19.1106 20.5975 19.0277 20.5975H19.0052H18.9959H18.9773H18.9642C18.882 20.5975 18.7991 20.5975 18.7185 20.5975C14.6892 20.5975 12.3523 19.9611 11.3096 19.5751C11.2647 19.6525 11.2189 19.7356 11.1747 19.8177C11.2763 20.0099 11.3824 20.1928 11.4902 20.3641L11.5235 20.4153C11.5615 20.4765 11.6003 20.5323 11.6336 20.5836C12.6823 20.9308 14.5334 21.3641 17.4006 21.472C17.9115 21.4928 18.337 21.496 18.6037 21.496H18.7789H19.188Z" fill="#101211"/>
<path d="M18.9631 21.34H19.0251C23.0465 21.3655 25.4323 20.7533 26.5176 20.375C26.471 20.4518 26.42 20.5292 26.3703 20.6036C25.2217 20.9834 22.8729 21.5439 19.0252 21.5183C19.0159 21.5183 18.9725 21.5183 18.9632 21.5183C15.1154 21.5439 12.766 20.9835 11.6195 20.6036C11.5691 20.5292 11.5196 20.4516 11.4707 20.375C12.5557 20.7533 14.9423 21.3655 18.9631 21.34Z" fill="#F5E600"/>
<path d="M19.2719 21.5404C19.1904 21.5404 19.1084 21.5404 19.0255 21.538H19.003H18.9937H18.9767H18.9636C15.0444 21.5653 12.6678 20.973 11.6121 20.6241L11.6059 20.6211L11.6028 20.615C11.5562 20.5459 11.5075 20.4715 11.4533 20.3862L11.4199 20.332L11.4804 20.3545C12.5137 20.715 14.8282 21.3179 18.721 21.3179H18.9451V21.3163H18.9668H18.9985H19.0528V21.3179H19.2769C23.1674 21.3179 25.4827 20.7126 26.5182 20.3545L26.5771 20.332L26.5445 20.3862C26.4919 20.4699 26.4437 20.5443 26.3942 20.615L26.3911 20.6211L26.3849 20.6241C25.3428 20.9654 23.0469 21.5404 19.2719 21.5404ZM19.0495 21.4955C22.9399 21.5196 25.3025 20.9336 26.3583 20.5848C26.394 20.5321 26.4296 20.4777 26.4683 20.4181C25.3801 20.7879 22.9973 21.3878 19.0271 21.3638H19.0046H18.9953H18.9767H18.9636C18.8813 21.3638 18.8 21.3638 18.7194 21.3638C14.8949 21.3638 12.5903 20.7809 11.5245 20.4181C11.564 20.4793 11.6012 20.5337 11.6346 20.5848C12.6895 20.9336 15.0491 21.518 18.9434 21.4955H18.9652H18.9969H19.0495Z" fill="#101211"/>
<path d="M18.9614 20.7521H19.0234C23.3936 20.78 25.8337 20.0552 26.7701 19.6949C26.7422 19.6452 26.7174 19.5948 26.6863 19.5469C25.6927 19.915 23.2704 20.601 19.0218 20.5738V20.5722C19.0125 20.5738 18.9691 20.5738 18.9598 20.5722V20.5738C14.7119 20.601 12.2888 19.915 11.2951 19.5469C11.2672 19.5948 11.24 19.6453 11.2129 19.6949C12.1524 20.0552 14.5911 20.78 18.9614 20.7521Z" fill="#F5E600"/>
<path d="M19.2705 20.7753C19.1891 20.7753 19.107 20.7753 19.0241 20.7737H19.0017H18.9924H18.9754H18.9622C18.88 20.7753 18.7971 20.7753 18.7165 20.7753C14.4299 20.7753 12.0378 20.0343 11.2076 19.7149L11.1836 19.7056L11.1959 19.6832C11.223 19.6343 11.2503 19.5848 11.279 19.5359L11.2883 19.5195L11.3061 19.5266C12.3378 19.9086 14.6733 20.5521 18.7165 20.5521C18.7909 20.5521 18.8654 20.552 18.9406 20.5505H18.9624H18.9941H19.0483C19.1228 20.552 19.1972 20.5521 19.2708 20.5521C23.3155 20.5521 25.6501 19.9086 26.6812 19.5266L26.6998 19.5195L26.7091 19.5359C26.737 19.5848 26.7649 19.6343 26.7928 19.6832L26.8053 19.7056L26.7803 19.7149C25.9492 20.0343 23.5563 20.7753 19.2705 20.7753ZM19.0482 20.7311C23.4277 20.7567 25.878 20.0118 26.7399 19.6832C26.7212 19.6482 26.7011 19.6119 26.6811 19.577C25.6377 19.9615 23.3007 20.5995 19.2723 20.5995C19.1908 20.5995 19.1102 20.5995 19.0273 20.5995H19.0049H18.9956H18.9754H18.9622C18.88 20.5995 18.7971 20.5995 18.7165 20.5995C14.6872 20.5995 12.3503 19.9631 11.3077 19.577C11.2867 19.6119 11.2681 19.6484 11.2472 19.6832C12.0968 20.0056 14.478 20.7311 18.7165 20.7311H18.9406H18.9624H18.9941H19.0482Z" fill="#101211"/>
<path d="M18.3872 25.9749C24.0194 29.2057 25.6031 29.4755 26.0168 29.4491C26.147 29.2833 26.2727 29.1065 26.3905 28.9314C26.5704 28.6384 26.7377 28.3362 26.885 28.0244C26.3517 28.0043 24.6324 27.5842 19.346 24.5487C13.0597 20.9428 11.9876 19.1413 11.8241 18.7793C11.6908 18.9507 11.5644 19.1281 11.4419 19.3094C11.245 19.6257 11.0676 19.9543 10.9102 20.2971C11.1892 20.811 12.507 22.6039 18.3872 25.9749Z" fill="#F5E600"/>
<path d="M25.9631 29.4714C25.5043 29.4714 23.8471 29.1333 18.3746 25.9926C12.447 22.5943 11.1487 20.7797 10.8914 20.3053L10.8867 20.2944L10.8914 20.2851C11.0472 19.9448 11.2262 19.613 11.4247 19.2944C11.5472 19.1131 11.6759 18.9341 11.8093 18.7627L11.8333 18.7324L11.8472 18.7658C11.9922 19.0905 13.0378 20.9021 19.3575 24.5228C24.7355 27.608 26.4143 27.9799 26.8872 27.9969H26.9214L26.9074 28.0295C26.7602 28.3411 26.5927 28.6466 26.4098 28.9397C26.2936 29.1163 26.1681 29.2946 26.0378 29.4605L26.0315 29.4667H26.0206C26.0004 29.4714 25.9849 29.4714 25.9631 29.4714ZM10.9364 20.2928C11.2046 20.7797 12.5223 22.5834 18.3986 25.9553C23.8611 29.09 25.5089 29.4279 25.9647 29.4279C25.9802 29.4279 25.9942 29.4279 26.0065 29.4249C26.1337 29.2606 26.2545 29.09 26.3708 28.9164C26.546 28.6343 26.7072 28.3412 26.8498 28.0421C26.2267 28.0064 24.4314 27.4871 19.3356 24.568C13.1919 21.0448 12.0198 19.2248 11.8215 18.8194C11.6982 18.9829 11.5773 19.1495 11.4634 19.3194C11.2665 19.6325 11.0882 19.9595 10.9364 20.2928Z" fill="#101211"/>
<path d="M18.3876 25.9753C24.0198 29.2061 25.6034 29.4759 26.0172 29.4494C26.0452 29.4169 26.0685 29.3798 26.0978 29.3488C25.5289 29.3146 23.7562 28.8494 18.5 25.8342C12.7918 22.5592 11.3345 20.7577 10.9772 20.1562C10.9547 20.2019 10.9346 20.2492 10.9121 20.2973C11.1896 20.8114 12.5073 22.6042 18.3876 25.9753Z" fill="#F5E600"/>
<path d="M25.9631 29.4719C25.5043 29.4719 23.8471 29.1339 18.3746 25.9932C12.447 22.5949 11.1487 20.7802 10.8914 20.3059L10.8867 20.295L10.8914 20.2857C10.9138 20.2376 10.9348 20.1903 10.9565 20.1438L10.9743 20.1074L10.996 20.1424C11.3649 20.7648 12.8362 22.5569 18.5102 25.8133C23.6928 28.7836 25.4888 29.286 26.0965 29.3232H26.1369L26.112 29.3573C26.0856 29.3899 26.0593 29.4286 26.0328 29.4612L26.0266 29.4674H26.0157C26.0004 29.4719 25.9849 29.4719 25.9631 29.4719ZM10.9364 20.2934C11.2046 20.7802 12.5223 22.584 18.3986 25.9558C23.8611 29.0906 25.5089 29.4285 25.9647 29.4285C25.9802 29.4285 25.9942 29.4285 26.0065 29.4255C26.0235 29.4069 26.0391 29.3867 26.053 29.3634C25.402 29.3076 23.5657 28.765 18.4877 25.8505C12.909 22.6507 11.3835 20.857 10.9789 20.2028C10.9643 20.2314 10.9502 20.2632 10.9364 20.2934Z" fill="#101211"/>
<path d="M11.8248 18.7773C11.7822 18.8331 11.7381 18.8897 11.6953 18.9471C11.9776 19.4711 13.3123 21.2842 19.2561 24.6942C24.3487 27.6148 26.168 28.142 26.7973 28.2009C26.8268 28.142 26.8562 28.083 26.8841 28.021C26.3508 28.0023 24.6315 27.5806 19.3451 24.5482C13.0589 20.9408 11.9869 19.1409 11.8248 18.7773Z" fill="#F5E600"/>
<path d="M26.8096 28.2249L26.7942 28.2218C26.1554 28.163 24.3215 27.6234 19.2451 24.7119C13.251 21.2718 11.9363 19.4386 11.6742 18.9573L11.668 18.945L11.6757 18.9341C11.7183 18.8752 11.7617 18.8194 11.8059 18.7627L11.8299 18.7324L11.8438 18.7658C11.988 19.0905 13.0344 20.9021 19.3543 24.5228C24.7321 27.608 26.4111 27.9799 26.884 27.9969H26.9181L26.9042 28.0295C26.8747 28.0915 26.8468 28.1488 26.8158 28.2079L26.8096 28.2249ZM11.7216 18.9493C11.9967 19.4463 13.3348 21.2685 19.2691 24.6746C24.2982 27.5566 26.1337 28.1101 26.7849 28.1784C26.8082 28.1318 26.8283 28.0837 26.85 28.042C26.2268 28.0048 24.4316 27.4855 19.3358 24.5662C13.1921 21.0432 12.02 19.2223 11.8217 18.8177C11.7867 18.8618 11.7534 18.9052 11.7216 18.9493Z" fill="#101211"/>
<path d="M18.997 29.2458C15.1717 29.2333 12.8695 28.7714 11.523 28.3125C11.4696 28.3931 11.4183 28.4768 11.3672 28.5606C11.544 28.8582 11.7378 29.1389 11.947 29.4132C14.8856 30.2288 18.9969 30.2288 18.9969 30.2288C18.9969 30.2288 23.1105 30.2288 26.0483 29.4132C26.2559 29.1389 26.4513 28.8567 26.628 28.5606C26.5768 28.4752 26.5255 28.3931 26.4699 28.3125C25.1245 28.7714 22.8232 29.2334 18.997 29.2458Z" fill="#F5E600"/>
<path d="M18.9961 30.2506C18.955 30.2506 14.8468 30.2413 11.94 29.4351L11.9322 29.4321L11.9267 29.4258C11.7174 29.153 11.5221 28.8662 11.3461 28.5732L11.3398 28.5608L11.3461 28.5499C11.4049 28.4491 11.4538 28.3747 11.5019 28.3003L11.5112 28.2832L11.5267 28.291C12.7523 28.7096 15.0437 29.2104 18.9945 29.2242C22.9462 29.2104 25.2367 28.7096 26.4629 28.291L26.4784 28.2832L26.4893 28.3003C26.5372 28.3747 26.5869 28.4523 26.6459 28.5499L26.652 28.5608L26.6459 28.5732C26.4691 28.8678 26.2737 29.153 26.0661 29.4258L26.0598 29.4321L26.0537 29.4351C23.1463 30.2412 19.0372 30.2506 18.9961 30.2506ZM11.9586 29.3948C14.8591 30.1947 18.955 30.207 18.9961 30.207C19.0372 30.207 23.1331 30.1947 26.0335 29.3948C26.2382 29.1282 26.429 28.8459 26.5994 28.5608C26.5499 28.477 26.5032 28.4057 26.4599 28.3374C25.229 28.756 22.9345 29.2583 18.9945 29.2676C15.056 29.2583 12.7624 28.756 11.5283 28.3374C11.4857 28.4057 11.4416 28.477 11.3903 28.5608C11.5633 28.8491 11.754 29.1283 11.9586 29.3948Z" fill="#101211"/>
<path d="M18.997 29.4236C15.084 29.4143 12.7649 28.9306 11.4308 28.4609C11.4092 28.4935 11.3898 28.5291 11.3672 28.5647C11.4959 28.7787 11.6331 28.988 11.7788 29.1895C14.7236 30.0514 18.997 30.0514 18.997 30.0514C18.997 30.0514 23.2688 30.0514 26.2158 29.1895C26.3616 28.9879 26.4979 28.7787 26.6266 28.5647C26.6066 28.5289 26.5849 28.4935 26.563 28.4609C25.23 28.9306 22.9107 29.4143 18.997 29.4236Z" fill="#F5E600"/>
<path d="M18.9964 30.0748C18.9537 30.0748 14.6866 30.0623 11.772 29.2097L11.7635 29.2066L11.7589 29.2004C11.6148 28.9988 11.4768 28.788 11.348 28.574L11.3418 28.5647L11.3735 28.5121C11.3859 28.4905 11.3984 28.4687 11.4115 28.4471L11.4208 28.4316L11.4386 28.4378C12.6656 28.8704 14.974 29.3896 18.9978 29.4005C23.0223 29.388 25.3313 28.8704 26.5578 28.4378L26.5732 28.4316L26.5841 28.4471C26.5964 28.4687 26.6089 28.4905 26.6229 28.5121L26.6553 28.5647L26.6476 28.574C26.5189 28.7879 26.3809 28.9988 26.2353 29.2004L26.2306 29.2066L26.2228 29.2097C23.3069 30.0623 19.039 30.0748 18.9964 30.0748ZM11.7906 29.1693C14.699 30.0189 18.9537 30.0282 18.9964 30.0282C19.039 30.0282 23.2938 30.0189 26.2027 29.1693C26.3422 28.9739 26.4756 28.7693 26.5995 28.5646L26.5841 28.5321C26.5716 28.5151 26.5623 28.4997 26.5531 28.4825C25.3191 28.915 23.0077 29.436 18.9964 29.4422C14.985 29.4329 12.6751 28.915 11.4402 28.4825C11.4301 28.4997 11.4208 28.5151 11.4115 28.5321L11.3937 28.5646C11.5162 28.7694 11.6496 28.974 11.7906 29.1693Z" fill="#101211"/>
<path d="M18.9965 26.2346C18.9965 26.2346 25.2758 26.2346 27.8585 24.6998C27.8725 24.5417 27.8803 24.3805 27.885 24.2192C27.8819 24.0363 27.8741 23.8564 27.8585 23.6758C27.0709 24.1945 24.7657 25.2363 18.9965 25.2517C13.231 25.2363 10.924 24.1945 10.1334 23.6758C10.1195 23.8564 10.1134 24.0363 10.1094 24.2192C10.1132 24.3805 10.1225 24.5417 10.1349 24.6998C12.7178 26.2346 18.9965 26.2346 18.9965 26.2346Z" fill="#F5E600"/>
<path d="M18.9967 26.2601C18.933 26.2601 12.6815 26.2415 10.1244 24.7191L10.1151 24.7112L10.1135 24.6989C10.1002 24.5392 10.0925 24.3795 10.0879 24.2167C10.0909 24.015 10.0988 23.8384 10.1111 23.6747L10.1135 23.6367L10.1453 23.6577C10.8591 24.1267 13.1497 25.2151 18.9951 25.2306C24.8403 25.2151 27.1301 24.1267 27.8463 23.6577L27.8789 23.6367L27.8819 23.6747C27.8943 23.8398 27.902 24.015 27.9052 24.2167C27.9021 24.3795 27.8927 24.5392 27.8803 24.6989V24.7112L27.8679 24.7191C25.3101 26.2415 19.0587 26.2601 18.9967 26.2601ZM10.1562 24.6881C12.7103 26.195 18.9332 26.2136 18.9967 26.2136C19.0602 26.2136 25.2822 26.1948 27.837 24.6881C27.8495 24.53 27.8587 24.375 27.8619 24.22C27.8588 24.0371 27.8526 23.8696 27.8402 23.7162C27.0884 24.1983 24.7707 25.2618 18.9967 25.2772C13.2234 25.2618 10.9057 24.1983 10.153 23.7162C10.1414 23.8696 10.1352 24.0371 10.132 24.22C10.1368 24.3749 10.1454 24.5299 10.1562 24.6881Z" fill="#101211"/>
<path d="M18.9964 25.4324C13.2309 25.417 10.924 24.3722 10.1333 23.8574C10.1224 24.0031 10.1163 24.152 10.1133 24.3008C10.1149 24.3722 10.1179 24.4435 10.1226 24.5148C12.6992 26.0589 18.9964 26.0589 18.9964 26.0589C18.9964 26.0589 25.2945 26.0589 27.8709 24.5148C27.874 24.4435 27.8772 24.3722 27.8802 24.3008C27.8772 24.152 27.8709 24.0031 27.8584 23.8574C27.0678 24.3722 24.7642 25.417 18.9964 25.4324Z" fill="#F5E600"/>
<path d="M18.9956 26.0802C18.9319 26.0802 12.6618 26.0616 10.1108 24.5331L10.1007 24.5268L10.0991 24.5161C10.0961 24.4416 10.093 24.3702 10.0898 24.2989C10.0945 24.1238 10.1007 23.9826 10.1108 23.8524L10.1124 23.8145L10.1442 23.8354C10.858 24.3021 13.1486 25.3952 18.994 25.4106C24.8392 25.3952 27.129 24.3037 27.8452 23.8354L27.8778 23.8145L27.8808 23.8524C27.89 23.9826 27.8962 24.1238 27.9009 24.2958C27.8978 24.3704 27.8946 24.4417 27.8916 24.5175V24.5268L27.8808 24.5331C25.3307 26.0617 19.0576 26.0802 18.9956 26.0802ZM10.1443 24.502C12.6922 26.0182 18.9337 26.0368 18.9957 26.0368C19.0577 26.0368 25.2997 26.0182 27.8485 24.502C27.8515 24.4337 27.8547 24.3656 27.8577 24.2973C27.8547 24.1423 27.8485 24.012 27.8391 23.8942C27.0873 24.3749 24.7696 25.4383 18.9956 25.4539C13.2223 25.4368 10.9046 24.3733 10.1519 23.8942C10.1442 24.012 10.1371 24.1423 10.1341 24.3004C10.1357 24.3656 10.1389 24.4339 10.1443 24.502Z" fill="#101211"/>
<path d="M18.9941 15.1094C14.0858 15.1094 10.1055 19.0889 10.1055 23.9988C10.1055 28.91 14.0858 32.888 18.9941 32.888C23.9031 32.888 27.8841 28.91 27.8841 23.9988C27.8842 19.0889 23.9031 15.1094 18.9941 15.1094ZM18.9941 31.9983C14.5765 31.9983 10.9931 28.4171 10.9931 23.9988C10.9931 19.5812 14.5749 15.9984 18.9941 15.9984C23.4138 15.9984 26.9942 19.5811 26.9942 23.9988C26.9942 28.4171 23.4124 31.9983 18.9941 31.9983Z" fill="#F5E600"/>
<path d="M18.9923 32.9092C14.0794 32.9092 10.082 28.9125 10.082 23.9981C10.082 19.0867 14.0794 15.0879 18.9923 15.0879C23.9058 15.0879 27.904 19.0867 27.904 23.9981C27.9041 28.9125 23.9059 32.9092 18.9923 32.9092ZM18.9923 15.1328C14.1027 15.1328 10.1261 19.1093 10.1261 23.9981C10.1261 28.8877 14.1041 32.8657 18.9923 32.8657C23.8803 32.8657 27.8575 28.8877 27.8575 23.9981C27.8575 19.1092 23.8819 15.1328 18.9923 15.1328ZM18.9923 32.0224C14.5677 32.0224 10.9711 28.4226 10.9711 23.998C10.9711 19.5742 14.5693 15.9752 18.9923 15.9752C23.4152 15.9752 27.0141 19.5758 27.0141 23.998C27.0141 28.4227 23.4168 32.0224 18.9923 32.0224ZM18.9923 16.0218C14.5933 16.0218 11.0152 19.6015 11.0152 23.9981C11.0152 28.398 14.5933 31.9759 18.9923 31.9759C23.3912 31.9759 26.9707 28.3979 26.9707 23.9981C26.9707 19.6015 23.3912 16.0218 18.9923 16.0218Z" fill="#101211"/>
<path d="M18.9974 15.2891C14.1861 15.2891 10.2871 19.1896 10.2871 23.9994C10.2871 28.8116 14.1876 32.712 18.9974 32.712C23.8079 32.712 27.7076 28.8116 27.7076 23.9994C27.7076 19.1896 23.8095 15.2891 18.9974 15.2891ZM18.9974 32.1786C14.4813 32.1786 10.8204 28.5169 10.8204 23.9993C10.8204 19.4848 14.4815 15.8231 18.9974 15.8231C23.5142 15.8231 27.1743 19.4848 27.1743 23.9993C27.1743 28.5169 23.5142 32.1786 18.9974 32.1786Z" fill="#F5E600"/>
<path d="M18.9964 32.7344C14.1804 32.7344 10.2637 28.8153 10.2637 24C10.2637 19.184 14.182 15.2695 18.9964 15.2695C23.8117 15.2695 27.7283 19.1855 27.7283 24C27.7283 28.8153 23.8117 32.7344 18.9964 32.7344ZM18.9964 15.3107C14.2053 15.3107 10.3079 19.2081 10.3079 24C10.3079 28.7904 14.2053 32.691 18.9964 32.691C23.7875 32.691 27.685 28.7904 27.685 24C27.685 19.2097 23.7876 15.3107 18.9964 15.3107ZM18.9964 32.2009C14.475 32.2009 10.7954 28.5253 10.7954 23.9999C10.7954 19.4793 14.4734 15.8011 18.9964 15.8011C23.5193 15.8011 27.1981 19.4777 27.1981 23.9999C27.1951 28.5238 23.5178 32.2009 18.9964 32.2009ZM18.9964 15.8439C14.4991 15.8439 10.8419 19.5033 10.8419 23.9999C10.8419 28.499 14.5005 32.1576 18.9964 32.1576C23.4922 32.1576 27.1517 28.499 27.1517 23.9999C27.1517 19.5033 23.4923 15.8439 18.9964 15.8439Z" fill="#101211"/>
<path d="M18.5508 15.1094H19.4398V32.888H18.5508V15.1094Z" fill="#F5E600"/>
<path d="M19.4603 32.9092H18.5254V15.0879H19.4603V32.9092ZM18.5712 32.8657H19.4162V15.1342H18.5712V32.8657Z" fill="#101211"/>
<path d="M18.5508 15.0215H18.7282V32.9777H18.5508V15.0215Z" fill="#F5E600"/>
<path d="M18.7495 33H18.5254V15.002H18.7495V33ZM18.5712 32.9566H18.7046V15.043H18.5712V32.9566Z" fill="#101211"/>
<path d="M19.2617 15.0215H19.44V32.9777H19.2617V15.0215Z" fill="#F5E600"/>
<path d="M19.4604 33H19.2363V15.002H19.4604V33ZM19.283 32.9566H19.4163V15.043H19.283V32.9566Z" fill="#101211"/>
<path d="M10.1125 23.6749C10.1095 23.7826 10.1055 23.8895 10.1055 23.9982C10.1055 24.2306 10.114 24.4602 10.1326 24.6881C10.9216 24.1703 13.2285 23.1277 18.9956 23.1114C24.7633 23.1277 27.0686 24.1702 27.8593 24.6881C27.878 24.4602 27.8872 24.2322 27.8872 23.9982C27.8872 23.8911 27.8842 23.7842 27.8795 23.6749C25.309 22.127 18.9971 22.127 18.9971 22.127C18.9971 22.127 12.682 22.127 10.1125 23.6749Z" fill="#F5E600"/>
<path d="M27.8761 24.7271L27.8435 24.7054C27.1303 24.2372 24.8375 23.1481 18.9923 23.1325C13.1469 23.1481 10.8563 24.2372 10.1425 24.7054L10.1107 24.7271L10.1091 24.6913C10.0913 24.4603 10.082 24.2292 10.082 23.9984C10.082 23.9022 10.0836 23.8007 10.0881 23.675V23.6627L10.0974 23.6564C12.6439 22.1225 18.9286 22.1055 18.9923 22.1055C19.0559 22.1055 25.3413 22.1225 27.8854 23.6564L27.8963 23.6627L27.8979 23.675C27.9025 23.7991 27.9057 23.9022 27.9057 23.9984C27.9057 24.2294 27.8948 24.4603 27.8778 24.6913L27.8761 24.7271ZM18.9937 23.0876C24.7676 23.1054 27.0854 24.169 27.8373 24.6465C27.8527 24.4326 27.8621 24.2155 27.8621 23.9985C27.8621 23.9055 27.8591 23.8071 27.8559 23.6891C25.312 22.1683 19.0574 22.1497 18.9939 22.1497C18.9304 22.1497 12.6757 22.1683 10.1324 23.6891C10.1293 23.8069 10.1263 23.9054 10.1263 23.9985C10.1263 24.2155 10.134 24.4326 10.1503 24.6465C10.9028 24.1689 13.2205 23.1054 18.9937 23.0876Z" fill="#101211"/>
<path d="M18.994 22.3047C18.994 22.3047 12.682 22.3047 10.1124 23.8518C10.1108 23.8921 10.1108 23.9324 10.1094 23.9759C10.1124 24.1527 10.1187 24.3325 10.1326 24.5093C10.9217 23.9914 13.2286 22.9473 18.9957 22.9318C24.7634 22.9473 27.0687 23.9914 27.8593 24.5093C27.8733 24.3325 27.8811 24.1527 27.8843 23.9759C27.8827 23.9324 27.8812 23.8922 27.8796 23.8518C25.3058 22.3047 18.994 22.3047 18.994 22.3047Z" fill="#F5E600"/>
<path d="M27.8769 24.5474L27.8444 24.5288C27.1312 24.0605 24.8383 22.9708 18.9931 22.9528C13.1478 22.9706 10.8572 24.0605 10.1433 24.5288L10.1116 24.5474L10.11 24.5103C10.0968 24.349 10.089 24.1754 10.0859 23.9768C10.0859 23.9334 10.0875 23.8932 10.089 23.8528V23.8404L10.0983 23.8358C12.6447 22.3018 18.9295 22.2832 18.9931 22.2832C19.0567 22.2832 25.3422 22.3018 27.8862 23.8358L27.8971 23.8404L27.8987 23.8528C27.8987 23.893 27.9003 23.9334 27.9034 23.9736C27.8987 24.1753 27.8909 24.3489 27.8785 24.5102L27.8769 24.5474ZM10.1331 23.8683C10.1315 23.9024 10.1315 23.9396 10.13 23.9768C10.1331 24.1567 10.1393 24.3211 10.151 24.4699C10.9038 23.9892 13.2214 22.9257 18.9947 22.9102C24.7686 22.9257 27.0864 23.9892 27.8383 24.4699C27.8506 24.3211 27.8569 24.1583 27.8599 23.9738C27.8569 23.9396 27.8569 23.9024 27.8569 23.8684C25.313 22.3468 19.0583 22.329 18.9948 22.329C18.9313 22.329 12.6765 22.3451 10.1331 23.8683Z" fill="#101211"/>
<path d="M10.9434 20.2383C11.5907 19.9531 14.0626 19.0352 18.9661 19.0671V19.0686H19.0282V19.0671C23.9317 19.0353 26.4059 19.9547 27.0539 20.2383C26.8942 19.9018 26.7158 19.5778 26.5205 19.267C26.4739 19.1902 26.4229 19.1128 26.3732 19.0384C25.3904 18.7128 23.5239 18.2554 20.59 18.1461C19.9777 18.1221 19.4886 18.119 19.2125 18.1221C19.1505 18.1221 19.0901 18.1221 19.0266 18.1221C19.0173 18.1221 18.9738 18.1221 18.9645 18.1221C18.9009 18.1221 18.8405 18.1221 18.7792 18.1221C18.5025 18.119 18.0133 18.1221 17.4009 18.1461C14.467 18.2538 12.6021 18.7112 11.6192 19.0384C11.5689 19.1128 11.5193 19.1903 11.4704 19.267C11.2782 19.5779 11.1 19.9019 10.9434 20.2383Z" fill="#F5E600"/>
<path d="M10.8965 20.2803L10.922 20.2283C11.0693 19.9136 11.236 19.6028 11.4204 19.3059L11.4537 19.2548C11.5081 19.168 11.5568 19.0935 11.6033 19.0246L11.6063 19.0185L11.6126 19.0154C12.6652 18.6682 14.5225 18.231 17.4006 18.1217C17.9129 18.1031 18.3385 18.0977 18.6051 18.0977C18.6702 18.0977 18.7292 18.0977 18.7803 18.0993H18.8052H18.8927H18.9881H18.9974H19.0168H19.102H19.1897H19.2137C19.2641 18.0977 19.3231 18.0977 19.3882 18.0977C19.6548 18.0977 20.0804 18.1031 20.5927 18.1217C23.4708 18.2294 25.3296 18.6682 26.3807 19.0154L26.3869 19.0185L26.3932 19.0246C26.4381 19.0936 26.4877 19.1664 26.5419 19.2548L26.5745 19.3059C26.759 19.6044 26.9295 19.9136 27.0721 20.2283L27.0984 20.2803L27.0458 20.257C26.4118 19.9787 23.9429 19.0579 19.0534 19.0881H19.031H18.9992H18.9449C18.8705 19.0865 18.796 19.0865 18.7216 19.0865C13.9809 19.0865 11.5763 19.9818 10.9524 20.257L10.8965 20.2803ZM11.5174 19.2392L11.4933 19.2756C11.308 19.5725 11.136 19.8803 10.9887 20.1934C11.6902 19.895 14.1002 19.0422 18.7215 19.0422H18.9672H18.9897H18.999H19.0184H19.0308C23.8127 19.0105 26.2954 19.8888 27.01 20.1934C26.8613 19.8803 26.6907 19.5709 26.5046 19.2756L26.4705 19.2245H26.4735C26.4333 19.1633 26.3961 19.1089 26.3619 19.0562C25.3124 18.709 23.4614 18.2757 20.5948 18.1679C20.0833 18.1469 19.6577 18.1439 19.3911 18.1439C19.326 18.1439 19.267 18.1439 19.2167 18.1439H18.785C18.7338 18.1439 18.6748 18.1439 18.6106 18.1439C18.3432 18.1439 17.9184 18.1469 17.4067 18.1679C14.5395 18.2741 12.6884 18.709 11.6396 19.0562C11.598 19.1121 11.56 19.1711 11.5174 19.2392Z" fill="#101211"/>
<path d="M19.0282 18.8876C19.0189 18.8876 18.9754 18.8876 18.9661 18.8876C14.3037 18.8559 11.8401 19.6859 11.0511 20.0131C11.0147 20.0883 10.9783 20.1627 10.9434 20.2372C11.5907 19.952 14.0626 19.0341 18.9661 19.066V19.0676H19.0282V19.066C23.9317 19.0343 26.4059 19.9536 27.0539 20.2372C27.0167 20.1627 26.9793 20.0868 26.9421 20.0131C26.1547 19.6845 23.6905 18.8573 19.0282 18.8876Z" fill="#F5E600"/>
<path d="M10.8965 20.2799L10.922 20.228C10.9569 20.152 10.9933 20.0768 11.0313 20.0024L11.0344 19.9947L11.0429 19.9916C11.8745 19.6467 14.3333 18.8344 18.9656 18.8661H18.9881H18.9974H19.0168H19.0292C23.6598 18.8344 26.1187 19.6467 26.9527 19.9916L26.9605 19.9947L26.9651 20.0024C27.0009 20.0769 27.0395 20.152 27.0721 20.228L27.0984 20.2799L27.0472 20.2566C26.4116 19.9784 23.9428 19.0576 19.0533 19.0877H19.0308H18.9991H18.9456C14.0575 19.059 11.5871 19.98 10.9523 20.2566L10.8965 20.2799ZM11.0678 20.0295C11.0399 20.0853 11.0143 20.1372 10.9872 20.1946C11.7035 19.89 14.1863 19.0133 18.9657 19.0435H18.9882H18.9975H19.0169H19.0294H19.2758C23.8964 19.0435 26.3063 19.8947 27.007 20.1946C26.9821 20.1388 26.9558 20.0869 26.9265 20.0295C26.1048 19.6916 23.7268 18.9102 19.2759 18.9102C19.2007 18.9102 19.1263 18.9102 19.0518 18.9102H19.0294H18.9976H18.9441C14.3482 18.8831 11.905 19.6847 11.0678 20.0295Z" fill="#101211"/>
<path d="M18.9631 18.3002C18.9724 18.3002 19.0157 18.3002 19.0251 18.3018V18.3002C23.0465 18.2747 25.4323 18.8869 26.5176 19.2652C26.471 19.1885 26.42 19.111 26.3703 19.0366C25.2217 18.6569 22.8729 18.0963 19.0252 18.1219C19.0159 18.1219 18.9725 18.1219 18.9632 18.1219C15.1154 18.0963 12.766 18.6567 11.6195 19.0366C11.5691 19.111 11.5196 19.1886 11.4707 19.2652C12.5557 18.8871 14.9423 18.2763 18.9631 18.3002Z" fill="#F5E600"/>
<path d="M11.418 19.307L11.4513 19.2544C11.5056 19.1677 11.5544 19.0924 11.6009 19.0242L11.6039 19.0181L11.6102 19.0151C12.6659 18.6654 15.0441 18.0755 18.9616 18.1004H18.9841H18.9934H19.0128H19.0252C22.9466 18.0755 25.3209 18.6654 26.3765 19.0151L26.3828 19.0181L26.3874 19.0242C26.4354 19.0948 26.4851 19.1692 26.5362 19.2544L26.5703 19.307L26.5099 19.2846C25.479 18.9242 23.1621 18.3211 19.2694 18.3211C19.195 18.3211 19.1206 18.3211 19.0461 18.3227H19.0236H18.9919H18.9376C18.8632 18.3211 18.7887 18.3211 18.7143 18.3211C14.8232 18.3211 12.5069 18.9258 11.4738 19.2846L11.418 19.307ZM11.6342 19.056C11.6009 19.1071 11.5637 19.1614 11.5241 19.2227C12.6117 18.8529 14.9913 18.253 18.9648 18.277H18.9872H18.9965H19.0159H19.0284C23.0018 18.2514 25.3815 18.8514 26.4681 19.2227C26.431 19.163 26.3937 19.1087 26.3597 19.056C25.3054 18.7072 22.9452 18.1228 19.0509 18.1453H19.0284H18.9967H18.9431C15.0473 18.1227 12.6876 18.7072 11.6342 19.056Z" fill="#101211"/>
<path d="M11.0547 27.9984C11.1958 28.2775 11.3516 28.5503 11.5197 28.8108C12.8676 28.3487 15.1699 27.8868 18.9936 27.8775C22.8198 27.8868 25.121 28.3488 26.4682 28.8108C26.6357 28.5503 26.7907 28.2773 26.9334 27.9984C24.0258 26.8945 18.9936 26.8945 18.9936 26.8945C18.9936 26.8945 13.9631 26.8947 11.0547 27.9984Z" fill="#F5E600"/>
<path d="M26.4783 28.8384L26.4627 28.8321C25.238 28.412 22.9461 27.9112 18.9944 27.8988C15.0435 27.9113 12.7521 28.412 11.5266 28.8321L11.5111 28.8384L11.5018 28.8228C11.3335 28.5623 11.1762 28.2864 11.0343 28.0059L11.0234 27.9826L11.0475 27.9734C13.9256 26.882 18.9455 26.8711 18.9959 26.8711C19.047 26.8711 24.066 26.8834 26.9448 27.9734L26.968 27.9826L26.9557 28.0059C26.8161 28.285 26.658 28.5623 26.489 28.8228L26.4783 28.8384ZM11.0856 28.0104C11.2206 28.2738 11.3701 28.5343 11.5298 28.7855C12.7638 28.3639 15.0559 27.8647 18.996 27.8554C22.936 27.8647 25.2288 28.3639 26.4627 28.7855C26.6225 28.5343 26.7698 28.2738 26.9061 28.0104C24.0312 26.9283 19.047 26.916 18.996 26.916C18.9455 26.916 13.9605 26.9283 11.0856 28.0104Z" fill="#101211"/>
<path d="M11.127 28.1461C11.2207 28.3229 11.3192 28.4935 11.4254 28.6639C12.7595 28.1926 15.0786 27.709 18.9917 27.6997C22.9053 27.7088 25.2245 28.1942 26.5576 28.6639C26.6631 28.4935 26.7623 28.3229 26.8553 28.1461C23.9385 27.0703 18.9915 27.0703 18.9915 27.0703C18.9915 27.0703 14.0469 27.0703 11.127 28.1461Z" fill="#F5E600"/>
<path d="M26.5694 28.6921L26.554 28.686C25.326 28.2518 23.017 27.7311 18.994 27.7216C14.9702 27.7325 12.6634 28.2518 11.4348 28.686L11.417 28.6921L11.4077 28.6767C11.303 28.5062 11.203 28.3325 11.1092 28.1557L11.0977 28.1341L11.1217 28.1248C14.0114 27.0613 18.9436 27.0488 18.9925 27.0488C19.0421 27.0488 23.9759 27.0613 26.864 28.1248L26.8872 28.1341L26.8734 28.1557C26.7803 28.3325 26.6827 28.5062 26.5757 28.6767L26.5694 28.6921ZM18.994 27.6753C23.0053 27.6876 25.3167 28.2024 26.5508 28.6363C26.6469 28.4797 26.7399 28.32 26.8267 28.1588C23.9424 27.1046 19.0435 27.0907 18.994 27.0907C18.9451 27.0907 14.0462 27.1046 11.1612 28.1588C11.2472 28.32 11.341 28.4797 11.4364 28.6363C12.6712 28.2022 14.9827 27.6875 18.994 27.6753Z" fill="#101211"/>
<path d="M26.0087 29.4593C26.3669 29.0005 26.6801 28.5074 26.9435 27.9803C26.7125 27.5214 25.4817 25.7231 19.4471 22.2613C13.6863 18.9561 12.1608 18.7514 11.7903 18.791C11.4686 19.236 11.1857 19.7119 10.9492 20.2134C11.4825 20.2328 13.2018 20.6568 18.4882 23.6868C24.7746 27.2951 25.8459 29.0964 26.0087 29.4593Z" fill="#F5E600"/>
<path d="M26.002 29.502L25.9866 29.4678C25.8407 29.1423 24.7959 27.3345 18.4755 23.71C13.1014 20.6272 11.4202 20.2559 10.9474 20.2381L10.9141 20.2365L10.928 20.2048C11.1629 19.7064 11.4474 19.2258 11.7728 18.7778L11.7775 18.7699L11.7868 18.7683C11.8123 18.7669 11.8394 18.7637 11.8681 18.7637C12.327 18.7637 13.9843 19.1032 19.4559 22.2418C25.478 25.6959 26.7213 27.4988 26.9616 27.9701L26.9661 27.9794L26.9616 27.9919C26.6981 28.5128 26.3832 29.0119 26.0251 29.4738L26.002 29.502ZM10.9837 20.1955C11.6077 20.2319 13.4044 20.7497 18.4987 23.6704C24.6425 27.1952 25.813 29.0119 26.0114 29.4182C26.3587 28.9685 26.6625 28.485 26.9167 27.9796C26.6687 27.499 25.4068 25.7069 19.4336 22.2814C13.9712 19.149 12.3233 18.8095 11.8682 18.8095C11.8442 18.8095 11.8217 18.8111 11.8017 18.8126C11.4882 19.2475 11.2139 19.7125 10.9837 20.1955Z" fill="#101211"/>
<path d="M18.5773 23.5434C13.4846 20.6227 11.6655 20.0956 11.0368 20.0352C11.0065 20.0941 10.9779 20.1562 10.9492 20.2142C11.4825 20.2336 13.2018 20.6576 18.4882 23.6876C24.7746 27.2929 25.8458 29.0958 26.0086 29.4571C26.052 29.4013 26.0953 29.3471 26.1388 29.2881C25.8566 28.7673 24.5202 26.9533 18.5773 23.5434Z" fill="#F5E600"/>
<path d="M26.002 29.5027L25.9866 29.4686C25.8407 29.143 24.7959 27.3353 18.4755 23.7107C13.1014 20.6279 11.4202 20.2567 10.9474 20.2389L10.9141 20.2373L10.928 20.2055C10.9567 20.1451 10.9869 20.0853 11.0155 20.0265L11.0218 20.0117L11.0381 20.0133C11.6776 20.0738 13.5094 20.6117 18.5864 23.5232C24.5806 26.9633 25.8951 28.7988 26.1556 29.278L26.1634 29.2918L26.1556 29.3011C26.1123 29.3599 26.0672 29.4157 26.0254 29.4732L26.002 29.5027ZM10.9837 20.1962C11.6077 20.2326 13.4044 20.7504 18.4987 23.6712C24.6425 27.1959 25.813 29.0127 26.0114 29.4189C26.0456 29.3756 26.0797 29.3321 26.1123 29.2887C25.8378 28.7927 24.4998 26.9665 18.5656 23.565C13.5349 20.6784 11.7 20.1279 11.0505 20.0614C11.0263 20.1039 11.0045 20.1497 10.9837 20.1962Z" fill="#101211"/>
<path d="M19.3345 22.4046C25.1418 25.7355 26.5479 27.5431 26.875 28.1137C26.8984 28.0702 26.9216 28.0268 26.9432 27.9803C26.7107 27.5214 25.4798 25.7231 19.4469 22.2613C13.686 18.9561 12.1606 18.7514 11.7901 18.791C11.7668 18.8243 11.7428 18.8577 11.7188 18.891C12.2697 18.9164 14.0209 19.3583 19.3345 22.4046Z" fill="#F5E600"/>
<path d="M26.8761 28.1598L26.8545 28.124C26.4994 27.5056 25.0592 25.7166 19.3225 22.426C14.1027 19.4323 12.3167 18.9434 11.7168 18.9161L11.6758 18.9147L11.7184 18.8541C11.7362 18.8293 11.7534 18.8052 11.7712 18.7797L11.7758 18.7719L11.7851 18.7703C11.8106 18.7687 11.8377 18.7656 11.8665 18.7656C12.3255 18.7656 13.9827 19.1051 19.4544 22.2437C25.478 25.6978 26.7214 27.4992 26.9601 27.9705L26.9646 27.9798L26.9601 27.9936C26.9383 28.0293 26.9197 28.0712 26.898 28.11L26.8761 28.1598ZM11.7593 18.8736C12.4012 18.9179 14.2281 19.4512 19.3448 22.3865C24.9877 25.625 26.4854 27.4158 26.8731 28.0684C26.8885 28.0389 26.9039 28.0126 26.9164 27.9801C26.6684 27.4995 25.4064 25.7074 19.4333 22.2819C13.9709 19.1495 12.3229 18.81 11.8679 18.81C11.8438 18.81 11.8214 18.8116 11.8013 18.813C11.788 18.8324 11.7741 18.8526 11.7593 18.8736Z" fill="#101211"/>
<path d="M14.4399 27.5779C15.3306 29.2862 16.8615 30.1513 18.9962 30.1513C21.1301 30.1513 22.6619 29.2862 23.5525 27.5779C24.2176 26.2989 24.2539 24.9981 24.2539 24.9858V18.0039H13.7383V24.9887C13.7383 24.9981 13.7732 26.3003 14.4399 27.5779Z" fill="white"/>
<path d="M24.2548 18.0051V24.9846C24.2548 24.997 24.2184 26.2992 23.5533 27.5768C23.1642 28.3255 22.6371 28.9208 21.9914 29.3472C21.1799 29.8805 20.1737 30.1502 18.9986 30.1502C17.8243 30.1502 16.8158 29.8805 16.0066 29.3472C15.3586 28.9192 14.833 28.324 14.4447 27.5768C13.7773 26.2993 13.7424 24.997 13.7424 24.9877V18.0051H24.2548ZM24.3439 17.916H13.6523V24.9877C13.6523 24.9877 13.7617 30.2417 18.9985 30.2417C24.2362 30.2417 24.3453 24.9877 24.3453 24.9877V17.916H24.3439Z" fill="black"/>
<path d="M14.4015 27.5956C15.0178 28.783 16.3161 30.1939 18.9974 30.1939C21.6801 30.1939 22.9793 28.7799 23.5946 27.5925C24.2644 26.3011 24.3001 25.0004 24.3001 24.985V17.959H13.6953V24.988C13.6953 25.0004 13.7301 26.3057 14.4015 27.5956ZM15.9619 20.2278H22.0328V24.9353C22.0235 25.0717 21.9536 25.895 21.5312 26.6437C21.1963 27.2421 20.6041 27.9274 18.9972 27.9274C17.3912 27.9274 16.799 27.2421 16.4625 26.6437C16.0416 25.8949 15.9702 25.0717 15.9617 24.9353L15.9619 20.2278Z" fill="black"/>
<path d="M14.4015 27.5956C15.0178 28.783 16.3161 30.1939 18.9974 30.1939C21.6801 30.1939 22.9793 28.7799 23.5946 27.5925C24.2644 26.3011 24.3001 25.0004 24.3001 24.985V17.959H13.6953V24.988C13.6953 25.0004 13.7301 26.3057 14.4015 27.5956ZM15.9083 20.1736H22.087V24.9385C22.0769 25.0718 22.0071 25.9043 21.5801 26.6685C21.36 27.0624 21.0894 27.3538 20.7545 27.5646C20.3088 27.8405 19.7197 27.9832 18.9972 27.9832C18.2748 27.9832 17.6864 27.8405 17.2416 27.5646C16.9067 27.3522 16.6369 27.0624 16.416 26.6685C15.989 25.9059 15.9191 25.0717 15.9098 24.9385V20.1736H15.9083Z" fill="#E32121"/>
<path d="M14.4015 27.5956C15.0178 28.783 16.3161 30.1939 18.9974 30.1939C21.6801 30.1939 22.9793 28.7799 23.5946 27.5925C24.2644 26.3011 24.3001 25.0004 24.3001 24.985V17.959H13.6953V24.988C13.6953 25.0004 13.7301 26.3057 14.4015 27.5956ZM13.9697 18.2357H24.0234V24.9819C24.0234 25.047 23.9776 26.2592 23.3506 27.4654C22.5042 29.0933 21.0406 29.9209 18.9975 29.9209C16.9628 29.9209 15.5016 29.0992 14.6544 27.484C14.021 26.2778 13.9731 25.0438 13.97 24.9818V18.2357H13.9697Z" fill="black"/>
<path d="M14.4015 27.5956C15.0178 28.783 16.3161 30.1939 18.9974 30.1939C21.6801 30.1939 22.9793 28.7799 23.5946 27.5925C24.2644 26.3011 24.3001 25.0004 24.3001 24.985V17.959H13.6953V24.988C13.6953 25.0004 13.7301 26.3057 14.4015 27.5956ZM13.9178 18.1829H24.076V24.985C24.0744 25.0438 24.0295 26.2732 23.3962 27.4901C23.0219 28.2124 22.5156 28.7861 21.8948 29.1954C21.1134 29.7132 20.1375 29.9737 18.9958 29.9737C17.8594 29.9737 16.8859 29.7132 16.1068 29.2015C15.4843 28.7953 14.9798 28.2248 14.6031 27.5055C13.9651 26.2869 13.9178 25.0405 13.9163 24.9847V18.1829H13.9178Z" fill="white"/>
<path d="M19.6402 19.3964L18.9984 19.3926L18.3573 19.3964L18.2891 19.9569H18.9984H19.7084L19.6402 19.3964Z" fill="#F5E600"/>
<path d="M19.7195 19.9668H18.2731C18.2499 19.9668 18.2305 19.987 18.2305 20.0094C18.2305 20.0319 18.2499 20.0521 18.2731 20.0521H19.7195C19.7436 20.0521 19.7622 20.0319 19.7622 20.0094C19.7622 19.987 19.745 19.9668 19.7195 19.9668Z" fill="#F5E600"/>
<path d="M19.6747 19.3066H18.319C18.3042 19.3143 18.2949 19.3291 18.2949 19.3446C18.2949 19.3687 18.3143 19.3873 18.3376 19.3873H19.6538C19.6779 19.3873 19.6965 19.3671 19.6965 19.3446C19.6979 19.3291 19.6886 19.3143 19.6747 19.3066Z" fill="#F5E600"/>
<path d="M19.7326 18.7932C19.7326 18.735 19.7326 18.6351 19.7326 18.6351H19.6233V18.7158H19.5488V18.6367H19.493H19.4372V18.7158H19.3627V18.6351H19.2534V18.7932C19.2534 18.8522 19.3216 18.8552 19.3216 18.8552L19.3093 19.1762H19.1791L19.166 18.563C19.166 18.563 19.2341 18.5614 19.2341 18.5034C19.2341 18.4428 19.2341 18.3398 19.2341 18.3398H19.1264V18.4221H19.052V18.343H18.9962H18.9411V18.4221H18.8659V18.3398H18.7566V18.5034C18.7566 18.5615 18.8247 18.563 18.8247 18.563L18.8124 19.1762H18.6822L18.6689 18.8583C18.6689 18.8583 18.7372 18.8552 18.7372 18.7963C18.7372 18.7366 18.7372 18.635 18.7372 18.635H18.628V18.7156H18.5536V18.6366H18.4978H18.442V18.7156H18.3675V18.635H18.2598V18.7963C18.2598 18.8551 18.328 18.8583 18.328 18.8583L18.3157 19.1762H18.3009C18.2769 19.1762 18.2598 19.1972 18.2598 19.2188C18.2598 19.2413 18.2792 19.2614 18.3009 19.2614H19.6869C19.7124 19.2614 19.7312 19.2413 19.7312 19.2188C19.7312 19.1972 19.711 19.1762 19.6869 19.1762H19.676L19.6614 18.8552C19.6628 18.8552 19.7326 18.8522 19.7326 18.7932Z" fill="#F5E600"/>
<path d="M18.4689 18.9556C18.475 18.9338 18.4852 18.9238 18.5006 18.9238C18.5154 18.9238 18.5263 18.9339 18.5324 18.9556C18.537 18.9719 18.537 18.9873 18.537 18.9873V19.0703H18.4657V18.9873C18.4642 18.9875 18.4642 18.9719 18.4689 18.9556Z" fill="black"/>
<path d="M19.463 18.9556C19.4693 18.9338 19.4808 18.9238 19.4948 18.9238C19.5095 18.9238 19.5203 18.9339 19.5265 18.9556C19.5312 18.9719 19.5312 18.9873 19.5312 18.9873V19.0703H19.4598V18.9873C19.4584 18.9875 19.4584 18.9719 19.463 18.9556Z" fill="black"/>
<path d="M18.9656 18.7674C18.9717 18.7417 18.9818 18.7324 18.9973 18.7324C19.0135 18.7324 19.0228 18.7433 19.0291 18.7674C19.0337 18.786 19.0337 18.8038 19.0337 18.8038V18.9038H18.9609V18.8038C18.9609 18.8053 18.9609 18.786 18.9656 18.7674Z" fill="black"/>
<path d="M19.7224 19.925L19.6634 19.4297C19.7068 19.425 19.7416 19.3878 19.7416 19.3436C19.7416 19.3242 19.737 19.3103 19.7269 19.2963C19.7556 19.2816 19.775 19.2529 19.775 19.2181C19.775 19.1738 19.7416 19.136 19.6967 19.1328L19.6874 18.8661C19.7192 18.8592 19.7557 18.8374 19.7557 18.7878V18.6118H19.6014V18.6894H19.5696V18.6134H19.4146V18.6894H19.3829V18.6118H19.2302V18.7878C19.2302 18.8374 19.2666 18.8592 19.2984 18.8661L19.2891 19.1312H19.1999L19.1876 18.5722C19.2193 18.5645 19.2557 18.542 19.2557 18.4924V18.3164H19.1031V18.3954H19.0714V18.3195H18.9163V18.3954H18.8846V18.3164H18.7318V18.4924C18.7318 18.5421 18.7698 18.5645 18.8001 18.5722L18.7878 19.1312H18.7001L18.6892 18.8661C18.7209 18.8592 18.7575 18.8374 18.7575 18.7878V18.6118H18.6047V18.6894H18.5728V18.6134H18.4178V18.6894H18.3861V18.6118H18.2334V18.7878C18.2334 18.8374 18.2698 18.8592 18.3001 18.8661L18.2908 19.1328C18.2459 19.1359 18.2134 19.1723 18.2134 19.2181C18.2134 19.2514 18.232 19.2817 18.2607 19.2963C18.2514 19.3103 18.2459 19.3258 18.2459 19.3436C18.2459 19.3863 18.2801 19.425 18.3242 19.4297L18.2653 19.925C18.2196 19.925 18.1816 19.963 18.1816 20.0103C18.1816 20.0584 18.2196 20.0978 18.2685 20.0978H19.7149C19.7622 20.0978 19.8025 20.0599 19.8025 20.0103C19.8069 19.9629 19.7705 19.925 19.7224 19.925ZM19.0045 19.5358L18.9968 19.5312L18.989 19.5358C18.7936 19.6133 18.7697 19.8482 18.7681 19.9234H18.6665C18.6695 19.8389 18.7014 19.5374 18.9828 19.4311H19.013C19.2968 19.5358 19.3255 19.8388 19.3285 19.9234H19.227C19.224 19.8482 19.1999 19.6118 19.0045 19.5358ZM19.1829 19.9234H18.8117C18.8147 19.856 18.8365 19.6482 18.997 19.5785C19.1573 19.6482 19.1798 19.8567 19.1829 19.9234ZM18.8829 19.4311C18.6527 19.5692 18.627 19.842 18.6224 19.9234H18.3147L18.3729 19.4311H18.8829ZM19.3697 19.9234C19.3667 19.842 19.3388 19.5692 19.11 19.4311H19.6209L19.6797 19.9234H19.3697ZM19.2767 18.7893V18.6561H19.3434V18.7343H19.4604V18.6575H19.5287V18.7343H19.6465V18.6561H19.7132V18.7893C19.7132 18.8226 19.6706 18.8257 19.6635 18.8257H19.6589H19.324C19.3194 18.8258 19.2767 18.8226 19.2767 18.7893ZM19.6542 19.1328H19.3333L19.3434 18.8707H19.6433L19.6542 19.1328ZM18.7798 18.494V18.3606H18.8465V18.4406H18.9635V18.3638H19.0316V18.4406H19.1495V18.3606H19.2146V18.494C19.2146 18.5289 19.1711 18.5304 19.1665 18.532H19.1463H18.8432H18.8284C18.8224 18.532 18.7798 18.5305 18.7798 18.494ZM19.1573 19.1312H18.8348L18.8479 18.577H19.1464L19.1573 19.1312ZM18.283 18.7893V18.6561H18.3481V18.7343H18.4651V18.6575H18.5334V18.7343H18.6512V18.6561H18.7178V18.7893C18.7178 18.8226 18.6743 18.8257 18.6681 18.8257H18.665H18.3317H18.3301C18.3256 18.8258 18.283 18.8226 18.283 18.7893ZM18.6605 19.1328H18.338L18.3481 18.8707H18.6482L18.6605 19.1328ZM18.262 19.218C18.262 19.1979 18.276 19.1816 18.2953 19.1769C18.2984 19.1769 18.3016 19.1753 18.3046 19.1753H19.6906C19.7161 19.1753 19.7333 19.1963 19.7333 19.218C19.7333 19.2404 19.7147 19.2606 19.6906 19.2606H18.3046C18.279 19.263 18.262 19.2421 18.262 19.218ZM18.2953 19.3436C18.2953 19.3258 18.3046 19.3119 18.3194 19.3056H19.6752C19.6892 19.3133 19.6985 19.3281 19.6985 19.3436C19.6985 19.3677 19.6799 19.3863 19.6558 19.3863H18.3396C18.3147 19.3878 18.2953 19.3677 18.2953 19.3436ZM19.7193 20.0528H18.2729C18.2497 20.0528 18.2303 20.0328 18.2303 20.0102C18.2303 19.9885 18.2497 19.9675 18.2729 19.9675H19.7193C19.7434 19.9675 19.762 19.9885 19.762 20.0102C19.762 20.0328 19.7448 20.0528 19.7193 20.0528Z" fill="black"/>
<path d="M15.5937 19.3964L14.9527 19.3926L14.3108 19.3964L14.2441 19.9569H14.9527H15.6619L15.5937 19.3964Z" fill="#F5E600"/>
<path d="M15.6762 19.9668H14.2282C14.2041 19.9668 14.1855 19.987 14.1855 20.0094C14.1855 20.0319 14.2041 20.0521 14.2282 20.0521H15.6762C15.6995 20.0521 15.7188 20.0319 15.7188 20.0094C15.7188 19.987 15.6995 19.9668 15.6762 19.9668Z" fill="#F5E600"/>
<path d="M15.6289 19.3066H14.2732C14.2593 19.3143 14.25 19.3291 14.25 19.3446C14.25 19.3687 14.2686 19.3873 14.2926 19.3873H15.6104C15.6344 19.3873 15.653 19.3671 15.653 19.3446C15.653 19.3291 15.6437 19.3143 15.6289 19.3066Z" fill="#F5E600"/>
<path d="M15.6873 18.7932C15.6873 18.735 15.6873 18.6351 15.6873 18.6351H15.578V18.7158H15.5035V18.6367H15.4477H15.3919V18.7158H15.3174V18.6351H15.2082V18.7932C15.2082 18.8522 15.2765 18.8552 15.2765 18.8552L15.2633 19.1762H15.1332L15.1208 18.563C15.1208 18.563 15.189 18.5614 15.189 18.5034C15.189 18.4428 15.189 18.3398 15.189 18.3398H15.0798V18.4221H15.0052V18.343H14.9495H14.8937V18.4221H14.8193V18.3398H14.71V18.5034C14.71 18.5615 14.7797 18.563 14.7797 18.563L14.7649 19.1762H14.6348L14.6223 18.8583C14.6223 18.8583 14.6906 18.8552 14.6906 18.7963C14.6906 18.7366 14.6906 18.635 14.6906 18.635H14.5812V18.7156H14.5061V18.6366H14.4509H14.3951V18.7156H14.3208V18.635H14.2129V18.7963C14.2129 18.8551 14.2812 18.8583 14.2812 18.8583L14.268 19.1762H14.2557C14.2316 19.1762 14.213 19.1972 14.213 19.2188C14.213 19.2413 14.2316 19.2614 14.2557 19.2614H15.6431C15.6672 19.2614 15.6858 19.2413 15.6858 19.2188C15.6858 19.1972 15.6648 19.1762 15.6431 19.1762H15.6298L15.616 18.8552C15.6175 18.8552 15.6873 18.8522 15.6873 18.7932Z" fill="#F5E600"/>
<path d="M14.424 18.9556C14.4301 18.9338 14.4395 18.9238 14.4557 18.9238C14.4713 18.9238 14.4812 18.9339 14.4875 18.9556C14.4921 18.9719 14.4921 18.9873 14.4921 18.9873V19.0703H14.4208V18.9873C14.4193 18.9875 14.4193 18.9719 14.424 18.9556Z" fill="black"/>
<path d="M15.4201 18.9556C15.4263 18.9338 15.4379 18.9238 15.4518 18.9238C15.4658 18.9238 15.4773 18.9339 15.4836 18.9556C15.4882 18.9719 15.4882 18.9873 15.4882 18.9873V19.0703H15.4169V18.9873C15.4154 18.9875 15.4154 18.9719 15.4201 18.9556Z" fill="black"/>
<path d="M14.9221 18.7674C14.9282 18.7417 14.9375 18.7324 14.9539 18.7324C14.9693 18.7324 14.9794 18.7433 14.9856 18.7674C14.9903 18.786 14.9903 18.8038 14.9903 18.8038V18.9038H14.9189V18.8038C14.9173 18.8053 14.9173 18.786 14.9221 18.7674Z" fill="black"/>
<path d="M15.679 19.925L15.6184 19.4297C15.6627 19.425 15.6959 19.3878 15.6959 19.3436C15.6959 19.3242 15.6912 19.3103 15.6819 19.2963C15.7122 19.2816 15.7308 19.2529 15.7308 19.2181C15.7308 19.1738 15.6975 19.136 15.6534 19.1328L15.6425 18.8661C15.6742 18.8592 15.7108 18.8374 15.7108 18.7878V18.6118H15.5564V18.6894H15.5247V18.6134H15.3712V18.6894H15.3395V18.6118H15.1869V18.7878C15.1869 18.8374 15.2233 18.8592 15.255 18.8661L15.2441 19.1312H15.155L15.1426 18.5722C15.1744 18.5645 15.2108 18.542 15.2108 18.4924V18.3164H15.0581V18.3954H15.0264V18.3195H14.872V18.3954H14.8411V18.3164H14.6915V18.4924C14.6915 18.5421 14.7295 18.5645 14.7598 18.5722L14.7473 19.1312H14.6598L14.6489 18.8661C14.6806 18.8592 14.717 18.8374 14.717 18.7878V18.6118H14.5644V18.6894H14.5327V18.6134H14.3776V18.6894H14.3458V18.6118H14.193V18.7878C14.193 18.8374 14.2294 18.8592 14.2596 18.8661L14.2487 19.1328C14.2038 19.1359 14.1704 19.1723 14.1704 19.2181C14.1704 19.2514 14.1898 19.2817 14.2185 19.2963C14.2084 19.3103 14.2038 19.3258 14.2038 19.3436C14.2038 19.3863 14.2371 19.425 14.282 19.4297L14.2232 19.925C14.1765 19.925 14.1387 19.963 14.1387 20.0103C14.1387 20.0584 14.1767 20.0978 14.2263 20.0978H15.6742C15.7215 20.0978 15.761 20.0599 15.761 20.0103C15.7627 19.9629 15.7246 19.925 15.679 19.925ZM14.9596 19.5358L14.9519 19.5312L14.944 19.5358C14.7472 19.6133 14.7247 19.8482 14.7215 19.9234H14.6215C14.6246 19.8389 14.6565 19.5374 14.937 19.4311H14.9657C15.2502 19.5358 15.2788 19.8388 15.282 19.9234H15.1819C15.179 19.8482 15.155 19.6118 14.9596 19.5358ZM15.1394 19.9234H14.7658C14.7688 19.856 14.7914 19.6482 14.9519 19.5785C15.1123 19.6482 15.1356 19.8567 15.1394 19.9234ZM14.8387 19.4311C14.6085 19.5692 14.5821 19.842 14.579 19.9234H14.269L14.3278 19.4311H14.8387ZM15.3247 19.9234C15.3217 19.842 15.293 19.5692 15.0643 19.4311H15.5759L15.6348 19.9234H15.3247ZM15.231 18.7893V18.6561H15.2976V18.7343H15.4155V18.6575H15.4822V18.7343H15.5992V18.6561H15.6667V18.7893C15.6667 18.8226 15.6232 18.8257 15.6186 18.8257H15.6125H15.2792C15.2743 18.8258 15.231 18.8226 15.231 18.7893ZM15.6107 19.1328H15.2898L15.3007 18.8707H15.599L15.6107 19.1328ZM14.734 18.494V18.3606H14.8007V18.4406H14.9185V18.3638H14.9852V18.4406H15.1022V18.3606H15.1697V18.494C15.1697 18.5289 15.1263 18.5304 15.1216 18.532H15.1007H14.7975H14.782C14.7775 18.532 14.734 18.5305 14.734 18.494ZM15.1138 19.1312H14.7898L14.8022 18.577H15.1007L15.1138 19.1312ZM14.2372 18.7893V18.6561H14.3023V18.7343H14.4201V18.6575H14.4884V18.7343H14.6055V18.6561H14.672V18.7893C14.672 18.8226 14.6294 18.8257 14.6247 18.8257H14.6217H14.2884H14.2868C14.2805 18.8258 14.2372 18.8226 14.2372 18.7893ZM14.617 19.1328H14.2945L14.3054 18.8707H14.6039L14.617 19.1328ZM14.217 19.218C14.217 19.1979 14.231 19.1816 14.2504 19.1769C14.2534 19.1769 14.2566 19.1753 14.2597 19.1753H15.6457C15.6697 19.1753 15.6883 19.1963 15.6883 19.218C15.6883 19.2404 15.6697 19.2606 15.6457 19.2606H14.2597C14.234 19.263 14.217 19.2421 14.217 19.218ZM14.2504 19.3436C14.2504 19.3258 14.2597 19.3119 14.2736 19.3056H15.6295C15.6442 19.3133 15.6535 19.3281 15.6535 19.3436C15.6535 19.3677 15.6349 19.3863 15.6109 19.3863H14.2932C14.269 19.3878 14.2504 19.3677 14.2504 19.3436ZM15.6758 20.0528H14.2278C14.2038 20.0528 14.1852 20.0328 14.1852 20.0102C14.1852 19.9885 14.2038 19.9675 14.2278 19.9675H15.6758C15.6991 19.9675 15.7185 19.9885 15.7185 20.0102C15.7185 20.0328 15.6991 20.0528 15.6758 20.0528Z" fill="black"/>
<path d="M15.5937 23.4738L14.9527 23.4707L14.3108 23.4738L14.2441 24.0358H14.9527H15.6619L15.5937 23.4738Z" fill="#F5E600"/>
<path d="M15.6762 24.0488H14.2282C14.2041 24.0488 14.1855 24.0676 14.1855 24.0924C14.1855 24.114 14.2041 24.1358 14.2282 24.1358H15.6762C15.6995 24.1358 15.7188 24.1125 15.7188 24.0924C15.7188 24.0676 15.6995 24.0488 15.6762 24.0488Z" fill="#F5E600"/>
<path d="M15.6289 23.3848H14.2732C14.2593 23.3933 14.25 23.4072 14.25 23.4228C14.25 23.4468 14.2686 23.4662 14.2926 23.4662H15.6104C15.6344 23.4662 15.653 23.4453 15.653 23.4228C15.653 23.4072 15.6437 23.3933 15.6289 23.3848Z" fill="#F5E600"/>
<path d="M15.6873 22.8741C15.6873 22.8151 15.6873 22.7136 15.6873 22.7136H15.578V22.7942H15.5035V22.7168H15.4477H15.3919V22.7942H15.3174V22.7136H15.2082V22.8741L15.2765 22.9345L15.2633 23.2547H15.1332L15.1208 22.6439C15.1208 22.6439 15.189 22.6423 15.189 22.5818C15.189 22.5214 15.189 22.4199 15.189 22.4199H15.0798V22.5028H15.0052V22.4215H14.9495H14.8937V22.5028H14.8193V22.4199H14.71V22.5818C14.71 22.6439 14.7797 22.6439 14.7797 22.6439L14.7649 23.2547H14.6348L14.6223 22.9376C14.6223 22.9376 14.6906 22.9345 14.6906 22.8755C14.6906 22.8166 14.6906 22.7135 14.6906 22.7135H14.5812V22.7957H14.5061V22.7167H14.4509H14.3951V22.7957H14.3208V22.7135H14.2129V22.8755C14.2129 22.936 14.2812 22.9376 14.2812 22.9376L14.268 23.2547H14.2557C14.2316 23.2547 14.213 23.2756 14.213 23.2981C14.213 23.3197 14.2316 23.3407 14.2557 23.3407H15.6431C15.6672 23.3407 15.6858 23.3197 15.6858 23.2981C15.6858 23.2756 15.6648 23.2547 15.6431 23.2547H15.6298L15.616 22.9345C15.6175 22.9345 15.6873 22.9331 15.6873 22.8741Z" fill="#F5E600"/>
<path d="M14.424 23.0376C14.4301 23.0168 14.4395 23.0059 14.4557 23.0059C14.4713 23.0059 14.4812 23.0168 14.4875 23.0376C14.4921 23.0531 14.4921 23.0694 14.4921 23.0694V23.1516H14.4208V23.0694C14.4193 23.0679 14.4193 23.0517 14.424 23.0376Z" fill="black"/>
<path d="M15.4201 23.0376C15.4263 23.0168 15.4379 23.0059 15.4518 23.0059C15.4658 23.0059 15.4773 23.0168 15.4836 23.0376C15.4882 23.0531 15.4882 23.0694 15.4882 23.0694V23.1516H15.4169V23.0694C15.4154 23.0679 15.4154 23.0517 15.4201 23.0376Z" fill="black"/>
<path d="M14.9221 22.8473C14.9282 22.8233 14.9375 22.8125 14.9539 22.8125C14.9693 22.8125 14.9794 22.8249 14.9856 22.8473C14.9903 22.8667 14.9903 22.8837 14.9903 22.8837V22.9837H14.9189V22.8837C14.9173 22.8853 14.9173 22.8667 14.9221 22.8473Z" fill="black"/>
<path d="M15.679 24.0061L15.6184 23.51C15.6627 23.5053 15.6959 23.4704 15.6959 23.4239C15.6959 23.4053 15.6912 23.3906 15.6819 23.3766C15.7122 23.3619 15.7308 23.334 15.7308 23.2992C15.7308 23.2543 15.6975 23.2162 15.6534 23.2132L15.6425 22.9465C15.6742 22.9404 15.7108 22.9178 15.7108 22.8691V22.6923H15.5564V22.7721H15.5247V22.6939H15.3712V22.7721H15.3395V22.6923H15.1869V22.8691C15.1869 22.918 15.2233 22.9404 15.255 22.9465L15.2441 23.2116H15.155L15.1426 22.6527C15.1744 22.6464 15.2108 22.624 15.2108 22.5752V22.3984H15.0581V22.4783H15.0264V22.4008H14.872V22.4783H14.8411V22.3984H14.6915V22.5752C14.6915 22.6241 14.7295 22.6466 14.7598 22.6527L14.7473 23.2116H14.6598L14.6489 22.9465C14.6806 22.9404 14.717 22.9178 14.717 22.8691V22.6923H14.5644V22.7721H14.5327V22.6939H14.3776V22.7721H14.3458V22.6923H14.193V22.8691C14.193 22.918 14.2294 22.9404 14.2596 22.9465L14.2487 23.2132C14.2038 23.2163 14.1704 23.2527 14.1704 23.2992C14.1704 23.3325 14.1898 23.362 14.2185 23.3766C14.2084 23.3906 14.2038 23.4069 14.2038 23.4239C14.2038 23.4688 14.2371 23.5053 14.282 23.51L14.2232 24.0061C14.1765 24.0061 14.1387 24.0417 14.1387 24.093C14.1387 24.1395 14.1767 24.1797 14.2263 24.1797H15.6742C15.7215 24.1797 15.761 24.1394 15.761 24.093C15.7627 24.0432 15.7246 24.0061 15.679 24.0061ZM14.9596 23.6161L14.9519 23.6131L14.944 23.6161C14.7472 23.6944 14.7247 23.9286 14.7215 24.0061H14.6215C14.6246 23.9223 14.6565 23.6177 14.937 23.513H14.9657C15.2502 23.6193 15.2788 23.9193 15.282 24.0061H15.1819C15.179 23.9286 15.155 23.6944 14.9596 23.6161ZM15.1394 24.0061H14.7658C14.7688 23.9378 14.7914 23.7294 14.9519 23.6596C15.1123 23.7293 15.1356 23.9378 15.1394 24.0061ZM14.8387 23.5115C14.6085 23.6495 14.5821 23.9254 14.579 24.0061H14.269L14.3278 23.5115H14.8387ZM15.3247 24.0061C15.3217 23.9255 15.293 23.6495 15.0643 23.5115H15.5759L15.6348 24.0061H15.3247ZM15.231 22.8704V22.7372H15.2976V22.8162H15.4155V22.7402H15.4822V22.8162H15.5992V22.7372H15.6667V22.8704C15.6667 22.9037 15.6232 22.9068 15.6186 22.9068H15.6125H15.2792C15.2743 22.9084 15.231 22.9053 15.231 22.8704ZM15.6107 23.2131H15.2898L15.3007 22.951H15.599L15.6107 23.2131ZM14.734 22.5782V22.4448H14.8007V22.5238H14.9185V22.4464H14.9852V22.5238H15.1022V22.4448H15.1697V22.5782C15.1697 22.6115 15.1263 22.6146 15.1216 22.6146L15.1007 22.6162H14.7975L14.782 22.6146C14.7775 22.6146 14.734 22.6115 14.734 22.5782ZM15.1138 23.2115H14.7898L14.8022 22.6588H15.1007L15.1138 23.2115ZM14.2372 22.8704V22.7372H14.3023V22.8162H14.4201V22.7402H14.4884V22.8162H14.6055V22.7372H14.672V22.8704C14.672 22.9037 14.6294 22.9068 14.6247 22.9068H14.6217H14.2884H14.2868C14.2805 22.9084 14.2372 22.9053 14.2372 22.8704ZM14.617 23.2131H14.2945L14.3054 22.951H14.6039L14.617 23.2131ZM14.217 23.3006C14.217 23.2797 14.231 23.2657 14.2504 23.2588C14.2534 23.2588 14.2566 23.2572 14.2597 23.2572H15.6457C15.6697 23.2572 15.6883 23.2782 15.6883 23.3006C15.6883 23.3223 15.6697 23.3433 15.6457 23.3433H14.2597C14.234 23.3433 14.217 23.3223 14.217 23.3006ZM14.2504 23.4254C14.2504 23.4084 14.2597 23.3944 14.2736 23.3874H15.6295C15.6442 23.3959 15.6535 23.4098 15.6535 23.4254C15.6535 23.4494 15.6349 23.4688 15.6109 23.4688H14.2932C14.269 23.4688 14.2504 23.4478 14.2504 23.4254ZM15.6758 24.1363H14.2278C14.2038 24.1363 14.1852 24.1145 14.1852 24.0945C14.1852 24.0682 14.2038 24.0509 14.2278 24.0509H15.6758C15.6991 24.0509 15.7185 24.0712 15.7185 24.0945C15.7185 24.1145 15.6991 24.1363 15.6758 24.1363Z" fill="black"/>
<path d="M16.4746 27.3086L16.0188 27.7582L15.5684 28.214L15.9172 28.6604L16.4172 28.1582L16.9187 27.659L16.4746 27.3086Z" fill="#F5E600"/>
<path d="M16.9391 27.6546L15.9151 28.6778C15.8981 28.6932 15.8981 28.7211 15.9151 28.7398C15.9329 28.7552 15.9593 28.7552 15.9771 28.7398L17.0011 27.7166C17.0181 27.698 17.0181 27.6701 17.0011 27.6546C16.9832 27.636 16.9569 27.636 16.9391 27.6546Z" fill="#F5E600"/>
<path d="M16.4375 27.218L15.4787 28.1792C15.474 28.1915 15.4771 28.2101 15.488 28.2209C15.5042 28.238 15.5329 28.238 15.55 28.2209L16.4801 27.2877C16.498 27.2722 16.498 27.2459 16.4801 27.2289C16.4708 27.218 16.4529 27.2148 16.4375 27.218Z" fill="#F5E600"/>
<path d="M16.1179 26.8148C16.0767 26.7745 16.0069 26.7031 16.0069 26.7031L15.9287 26.7807L15.9861 26.8365L15.9326 26.8891L15.8768 26.8333L15.8372 26.8737L15.7969 26.9141L15.8527 26.9699L15.8008 27.021L15.7434 26.9622L15.6674 27.0413C15.6674 27.0413 15.7372 27.1125 15.7798 27.1513C15.8208 27.1932 15.872 27.1483 15.872 27.1483L16.0906 27.3824L15.9992 27.4738L15.5574 27.0505C15.5574 27.0505 15.6055 27.0025 15.5621 26.9575C15.5194 26.9173 15.4481 26.8429 15.4481 26.8429L15.3707 26.9203L15.4288 26.9793L15.3769 27.0319L15.3195 26.9761L15.2815 27.0132L15.2421 27.0535L15.2987 27.1093L15.2467 27.1606L15.1878 27.1064L15.1118 27.1808C15.1118 27.1808 15.1831 27.2553 15.2257 27.2941C15.2684 27.3374 15.3179 27.291 15.3179 27.291L15.7419 27.7313L15.6496 27.8242L15.4164 27.6072C15.4164 27.6072 15.4636 27.5575 15.421 27.5126C15.3784 27.4738 15.307 27.4025 15.307 27.4025L15.2303 27.477L15.2891 27.5359L15.2357 27.587L15.1799 27.5328L15.1405 27.5716L15.1017 27.6088L15.1575 27.6646L15.1055 27.7172L15.0481 27.6614L14.9707 27.739C14.9707 27.739 15.042 27.8102 15.0847 27.8505C15.1273 27.8924 15.1769 27.8475 15.1769 27.8475L15.3925 28.0785L15.3832 28.0877C15.3676 28.1078 15.3676 28.1343 15.3832 28.1497C15.3987 28.1699 15.4274 28.1699 15.4436 28.1497L16.4242 27.1716C16.4405 27.1545 16.4405 27.1282 16.4242 27.1095C16.4072 27.0925 16.3799 27.0925 16.3629 27.1095L16.3528 27.1188L16.118 26.9001C16.1132 26.908 16.1589 26.8583 16.1179 26.8148Z" fill="#F5E600"/>
<path d="M15.3396 27.8262C15.3295 27.8075 15.3295 27.7921 15.3396 27.7828C15.3505 27.7703 15.3644 27.7703 15.3838 27.7828C15.3978 27.789 15.4093 27.7999 15.4093 27.803L15.4683 27.8572L15.4172 27.9098L15.3583 27.8509C15.3566 27.8509 15.3473 27.8386 15.3396 27.8262Z" fill="black"/>
<path d="M16.0421 27.1226C16.0328 27.104 16.0328 27.0884 16.0421 27.0791C16.0514 27.07 16.0678 27.07 16.0848 27.0791C16.0995 27.0854 16.1103 27.0979 16.1103 27.0979L16.1691 27.1567L16.118 27.2063L16.059 27.1474C16.0593 27.1474 16.0484 27.138 16.0421 27.1226Z" fill="black"/>
<path d="M15.5594 27.3413C15.5471 27.3197 15.5455 27.301 15.5548 27.2918C15.5657 27.2825 15.582 27.2825 15.6029 27.2948C15.6184 27.304 15.6324 27.3197 15.6324 27.3197L15.7029 27.388L15.6518 27.4406L15.582 27.3692C15.5819 27.3692 15.5694 27.3569 15.5594 27.3413Z" fill="black"/>
<path d="M16.9107 27.6212L16.52 27.3142C16.5487 27.2817 16.5471 27.2305 16.5153 27.2009C16.503 27.1871 16.4882 27.1777 16.4727 27.1746C16.482 27.1437 16.4758 27.1095 16.4517 27.0847C16.42 27.0537 16.3696 27.0537 16.3363 27.0816L16.1409 26.9018C16.1579 26.8739 16.1696 26.8335 16.1346 26.7963L16.0091 26.6738L15.9014 26.7809L15.9565 26.8367L15.9347 26.8583L15.8805 26.8041L15.7712 26.9143L15.8246 26.9669L15.803 26.9885L15.7472 26.9327L15.6394 27.0412L15.765 27.1653C15.7999 27.2024 15.8409 27.1902 15.868 27.1745L16.0471 27.3699L15.9851 27.4319L15.582 27.0444C15.5998 27.0195 15.6107 26.9762 15.5758 26.9436L15.4503 26.8165L15.3425 26.9234L15.3975 26.9793L15.3758 27.0026L15.3216 26.9499L15.2122 27.0569L15.2658 27.1095L15.244 27.136L15.1882 27.08L15.0805 27.1839L15.206 27.311C15.2409 27.3452 15.282 27.3343 15.3091 27.3173L15.6943 27.7203L15.6315 27.7823L15.4362 27.6041C15.4517 27.5778 15.4641 27.5358 15.4292 27.5032L15.3044 27.3792L15.1975 27.4831L15.2533 27.5388L15.2308 27.5651L15.1773 27.5094L15.0672 27.6163L15.1215 27.6722L15.0991 27.6955L15.0441 27.6397L14.9355 27.7466L15.0611 27.8707C15.096 27.9032 15.1379 27.897 15.1642 27.8769L15.344 28.0723C15.3153 28.1048 15.3169 28.1606 15.3487 28.1885C15.3727 28.2148 15.4075 28.2211 15.4378 28.2118C15.4408 28.2289 15.4487 28.2445 15.461 28.2536C15.4928 28.2862 15.5425 28.2862 15.5773 28.2615L15.8849 28.6507C15.8532 28.6848 15.8532 28.739 15.8865 28.7685C15.9198 28.8026 15.9756 28.8026 16.009 28.7685L17.033 27.7453C17.0663 27.7111 17.0663 27.6585 17.033 27.6244C16.9982 27.5901 16.9439 27.5901 16.9107 27.6212ZM16.1277 27.8538L16.12 27.86L16.117 27.8663C16.0333 28.0584 16.1837 28.2446 16.2348 28.2972L16.1635 28.3685C16.1061 28.3065 15.9153 28.0692 16.0379 27.798L16.0581 27.7762C16.3348 27.6522 16.5697 27.8445 16.6301 27.9003L16.5588 27.9716C16.5044 27.9219 16.3215 27.77 16.1277 27.8538ZM16.5301 28.0026L16.2665 28.2661C16.2201 28.2164 16.0899 28.0553 16.1534 27.891C16.3169 27.829 16.4788 27.9591 16.5301 28.0026ZM15.9695 27.8663C15.9044 28.1266 16.0788 28.3405 16.1346 28.3996L15.9153 28.6197L15.6091 28.229L15.9695 27.8663ZM16.6617 27.8723C16.6029 27.8165 16.3897 27.6427 16.13 27.7079L16.4912 27.3437L16.8804 27.6491L16.6617 27.8723ZM15.7929 27.1345L15.6983 27.0415L15.744 26.9949L15.7998 27.0507L15.8835 26.967L15.8301 26.9144L15.8773 26.8647L15.9317 26.9205L16.0138 26.8368L15.958 26.781L16.0045 26.7344L16.0982 26.8274C16.1231 26.8524 16.0952 26.8862 16.0912 26.8894L16.0866 26.8925L15.8516 27.1281C15.8486 27.1345 15.8169 27.1592 15.7929 27.1345ZM16.3029 27.1095L16.0758 27.3405L15.8983 27.1451L16.1091 26.9343L16.3029 27.1095ZM15.234 27.2801L15.1394 27.1839L15.1851 27.1405L15.2409 27.1932L15.3232 27.1094L15.2696 27.0568L15.3169 27.0102L15.3712 27.0629L15.4549 26.9792L15.3991 26.9233L15.4456 26.8768L15.541 26.973C15.5665 26.9978 15.5379 27.0288 15.5325 27.0318L15.5186 27.0472L15.3046 27.2612L15.293 27.275C15.2898 27.277 15.2579 27.3049 15.234 27.2801ZM15.9501 27.4599L15.7215 27.6895L15.3394 27.2895L15.5502 27.0786L15.9501 27.4599ZM15.0898 27.8383L14.9944 27.7453L15.0409 27.6988L15.0959 27.7546L15.1804 27.6709L15.126 27.615L15.1741 27.5685L15.2276 27.6211L15.3121 27.5374L15.2563 27.4816L15.3028 27.4382L15.3974 27.5327C15.423 27.5576 15.3944 27.5869 15.3913 27.5901L15.3897 27.5932L15.1533 27.8288L15.1517 27.8317C15.1472 27.8351 15.1154 27.8631 15.0898 27.8383ZM15.5991 27.8134L15.3727 28.0398L15.1944 27.8475L15.406 27.6367L15.5991 27.8134ZM15.3789 28.1576C15.3642 28.1422 15.3627 28.1204 15.3743 28.105C15.3758 28.1019 15.3774 28.0987 15.3789 28.0957L16.3603 27.1159C16.3759 27.1005 16.4046 27.1005 16.4216 27.1159C16.4379 27.1361 16.4379 27.1625 16.4216 27.1779L15.441 28.1577C15.4216 28.1763 15.3945 28.1763 15.3789 28.1576ZM15.4913 28.2227C15.4804 28.2103 15.4774 28.1917 15.482 28.1794L16.4408 27.2196C16.4564 27.2166 16.4742 27.2196 16.4851 27.2336C16.5029 27.249 16.5029 27.2753 16.4851 27.291L15.555 28.2257C15.5362 28.2382 15.5075 28.2382 15.4913 28.2227ZM17.0014 27.7172L15.9774 28.7405C15.9596 28.7559 15.9331 28.7559 15.9153 28.7405C15.8983 28.7217 15.8983 28.6938 15.9153 28.6784L16.9393 27.6552C16.9571 27.6366 16.9836 27.6366 17.0014 27.6552C17.0168 27.6709 17.0168 27.6988 17.0014 27.7172Z" fill="black"/>
<path d="M23.6831 19.3964L23.0398 19.3926L22.3987 19.3964L22.332 19.9569H23.0398H23.7498L23.6831 19.3964Z" fill="#F5E600"/>
<path d="M23.7641 19.9668H22.3169C22.2928 19.9668 22.2734 19.987 22.2734 20.0094C22.2734 20.0319 22.2928 20.0521 22.3169 20.0521H23.7641C23.7881 20.0521 23.8075 20.0319 23.8075 20.0094C23.8075 19.987 23.7881 19.9668 23.7641 19.9668Z" fill="#F5E600"/>
<path d="M23.7197 19.3066H22.3639C22.3499 19.3143 22.3398 19.3291 22.3398 19.3446C22.3398 19.3687 22.3592 19.3873 22.3833 19.3873H23.7003C23.7258 19.3873 23.7438 19.3671 23.7438 19.3446C23.7438 19.3291 23.7337 19.3143 23.7197 19.3066Z" fill="#F5E600"/>
<path d="M23.7787 18.7932C23.7787 18.735 23.7787 18.6351 23.7787 18.6351H23.6686V18.7158H23.5941V18.6367H23.5383H23.4833V18.7158H23.4088V18.6351H23.3002V18.7932C23.3002 18.8522 23.3685 18.8552 23.3685 18.8552L23.3562 19.1762H23.226L23.212 18.563C23.212 18.563 23.2818 18.5614 23.2818 18.5034C23.2818 18.4428 23.2818 18.3398 23.2818 18.3398H23.1717V18.4221H23.0973V18.343H23.0423H22.9879V18.4221H22.912V18.3398H22.8034V18.5034C22.8034 18.5615 22.8716 18.563 22.8716 18.563L22.8592 19.1762H22.7291L22.7167 18.8583C22.7167 18.8583 22.785 18.8552 22.785 18.7963C22.785 18.7366 22.785 18.635 22.785 18.635H22.6749V18.7156H22.6005V18.6366H22.5447H22.4896V18.7156H22.4152V18.635H22.3066V18.7963C22.3066 18.8551 22.3749 18.8583 22.3749 18.8583L22.3624 19.1762H22.3501C22.326 19.1762 22.3066 19.1972 22.3066 19.2188C22.3066 19.2413 22.326 19.2614 22.3501 19.2614H23.7361C23.7593 19.2614 23.7787 19.2413 23.7787 19.2188C23.7787 19.1972 23.7593 19.1762 23.7361 19.1762H23.7228L23.7104 18.8552C23.7088 18.8552 23.7787 18.8522 23.7787 18.7932Z" fill="#F5E600"/>
<path d="M22.5107 18.9556C22.5168 18.9338 22.5262 18.9238 22.5416 18.9238C22.558 18.9238 22.5673 18.9339 22.5734 18.9556C22.5788 18.9719 22.5788 18.9873 22.5788 18.9873V19.0703H22.5067V18.9873C22.5052 18.9875 22.5052 18.9719 22.5107 18.9556Z" fill="black"/>
<path d="M23.5048 18.9556C23.5111 18.9338 23.5204 18.9238 23.5358 18.9238C23.5505 18.9238 23.5613 18.9339 23.5675 18.9556C23.573 18.9719 23.573 18.9873 23.573 18.9873V19.0703H23.5008V18.9873C23.4994 18.9875 23.4994 18.9719 23.5048 18.9556Z" fill="black"/>
<path d="M23.0106 18.7674C23.0167 18.7417 23.0276 18.7324 23.0424 18.7324C23.0563 18.7324 23.0672 18.7433 23.0733 18.7674C23.0788 18.786 23.0788 18.8038 23.0788 18.8038V18.9038H23.0068V18.8038C23.0052 18.8053 23.0052 18.786 23.0106 18.7674Z" fill="black"/>
<path d="M23.766 19.925L23.7078 19.4297C23.7505 19.425 23.7853 19.3878 23.7853 19.3436C23.7853 19.3242 23.7806 19.3103 23.7713 19.2963C23.7992 19.2816 23.8202 19.2529 23.8202 19.2181C23.8202 19.1738 23.7853 19.136 23.7428 19.1328L23.7312 18.8661C23.763 18.8592 23.7995 18.8374 23.7995 18.7878V18.6118H23.6475V18.6894H23.6158V18.6134H23.4616V18.6894H23.4298V18.6118H23.2779V18.7878C23.2779 18.8374 23.3143 18.8592 23.3461 18.8661L23.3346 19.1312H23.2477L23.2331 18.5722C23.2648 18.5645 23.3028 18.542 23.3028 18.4924V18.3164H23.1494V18.3954H23.1177V18.3195H22.9619V18.3954H22.9301V18.3164H22.7781V18.4924C22.7781 18.5421 22.8145 18.5645 22.8464 18.5722L22.8333 19.1312H22.7464L22.7348 18.8661C22.7666 18.8592 22.8031 18.8374 22.8031 18.7878V18.6118H22.6512V18.6894H22.6194V18.6134H22.4652V18.6894H22.4334V18.6118H22.2808V18.7878C22.2808 18.8374 22.318 18.8592 22.3498 18.8661L22.3382 19.1328C22.294 19.1359 22.2608 19.1723 22.2608 19.2181C22.2608 19.2514 22.2794 19.2817 22.3096 19.2963C22.3003 19.3103 22.2957 19.3258 22.2957 19.3436C22.2957 19.3863 22.329 19.425 22.3731 19.4297L22.315 19.925C22.2683 19.925 22.2305 19.963 22.2305 20.0103C22.2305 20.0584 22.2699 20.0978 22.318 20.0978H23.7652C23.8133 20.0978 23.8528 20.0599 23.8528 20.0103C23.8505 19.9629 23.8141 19.925 23.766 19.925ZM23.049 19.5358L23.0405 19.5312L23.0327 19.5358C22.8373 19.6133 22.814 19.8482 22.8102 19.9234H22.7101C22.714 19.8389 22.7435 19.5374 23.0264 19.4311H23.0551C23.3411 19.5358 23.369 19.8388 23.3706 19.9234H23.2706C23.2676 19.8482 23.2444 19.6118 23.049 19.5358ZM23.225 19.9234H22.8537C22.8568 19.856 22.8792 19.6482 23.039 19.5785C23.2011 19.6482 23.2234 19.8567 23.225 19.9234ZM22.9267 19.4311C22.6964 19.5692 22.6692 19.842 22.6662 19.9234H22.3569L22.4158 19.4311H22.9267ZM23.4142 19.9234C23.4111 19.842 23.3824 19.5692 23.1537 19.4311H23.6645L23.7234 19.9234H23.4142ZM23.3204 18.7893V18.6561H23.3855V18.7343H23.5047V18.6575H23.5714V18.7343H23.6885V18.6561H23.7551V18.7893C23.7551 18.8226 23.7125 18.8257 23.7064 18.8257H23.7009H23.3677C23.3614 18.8258 23.3204 18.8226 23.3204 18.7893ZM23.6979 19.1328H23.3762L23.3855 18.8707H23.6854L23.6979 19.1328ZM22.8234 18.494V18.3606H22.8885V18.4406H23.0056V18.3638H23.0738V18.4406H23.1917V18.3606H23.2583V18.494C23.2583 18.5289 23.2157 18.5304 23.2095 18.532H23.1901H22.8869H22.8706C22.8646 18.532 22.8234 18.5305 22.8234 18.494ZM23.2025 19.1312H22.8794L22.8917 18.577H23.1902L23.2025 19.1312ZM22.3266 18.7893V18.6561H22.3917V18.7343H22.5104V18.6575H22.577V18.7343H22.6949V18.6561H22.7614V18.7893C22.7614 18.8226 22.7188 18.8257 22.7141 18.8257H22.7111H22.377H22.3754C22.3677 18.8258 22.3266 18.8226 22.3266 18.7893ZM22.7042 19.1328H22.3824L22.3933 18.8707H22.6918L22.7042 19.1328ZM22.3042 19.218C22.3042 19.1979 22.3189 19.1816 22.3375 19.1769C22.3406 19.1769 22.3438 19.1753 22.3468 19.1753H23.7328C23.7569 19.1753 23.7763 19.1963 23.7763 19.218C23.7763 19.2404 23.7569 19.2606 23.7328 19.2606H22.3468C22.3236 19.263 22.3042 19.2421 22.3042 19.218ZM22.3375 19.3436C22.3375 19.3258 22.3468 19.3119 22.3616 19.3056H23.7174C23.7314 19.3133 23.7415 19.3281 23.7415 19.3436C23.7415 19.3677 23.7221 19.3863 23.698 19.3863H22.381C22.3584 19.3878 22.3375 19.3677 22.3375 19.3436ZM23.763 20.0528H22.3157C22.2917 20.0528 22.2723 20.0328 22.2723 20.0102C22.2723 19.9885 22.2917 19.9675 22.3157 19.9675H23.763C23.787 19.9675 23.8064 19.9885 23.8064 20.0102C23.8064 20.0328 23.787 20.0528 23.763 20.0528Z" fill="black"/>
<path d="M23.6831 23.4738L23.0398 23.4707L22.3987 23.4738L22.332 24.0358H23.0398H23.7498L23.6831 23.4738Z" fill="#F5E600"/>
<path d="M23.7641 24.0488H22.3169C22.2928 24.0488 22.2734 24.0676 22.2734 24.0924C22.2734 24.114 22.2928 24.1358 22.3169 24.1358H23.7641C23.7881 24.1358 23.8075 24.1125 23.8075 24.0924C23.809 24.0676 23.7881 24.0488 23.7641 24.0488Z" fill="#F5E600"/>
<path d="M23.7197 23.3848H22.3639C22.3499 23.3933 22.3398 23.4072 22.3398 23.4228C22.3398 23.4468 22.3592 23.4662 22.3833 23.4662H23.7003C23.7258 23.4662 23.7438 23.4453 23.7438 23.4228C23.7438 23.4072 23.7337 23.3933 23.7197 23.3848Z" fill="#F5E600"/>
<path d="M23.7787 22.8741C23.7787 22.8151 23.7787 22.7136 23.7787 22.7136H23.6686V22.7942H23.5941V22.7168H23.5383H23.4833V22.7942H23.4088V22.7136H23.3002V22.8741L23.3685 22.9345L23.3562 23.2547H23.226L23.212 22.6439C23.212 22.6439 23.2818 22.6423 23.2818 22.5818C23.2818 22.5214 23.2818 22.4199 23.2818 22.4199H23.1717V22.5028H23.0973V22.4215H23.0423H22.9879V22.5028H22.912V22.4199H22.8034V22.5818C22.8034 22.6439 22.8716 22.6439 22.8716 22.6439L22.8592 23.2547H22.7291L22.7167 22.9376C22.7167 22.9376 22.785 22.9345 22.785 22.8755C22.785 22.8166 22.785 22.7135 22.785 22.7135H22.6749V22.7957H22.6005V22.7167H22.5447H22.4896V22.7957H22.4152V22.7135H22.3066V22.8755C22.3066 22.936 22.3749 22.9376 22.3749 22.9376L22.3624 23.2547H22.3501C22.326 23.2547 22.3066 23.2756 22.3066 23.2981C22.3066 23.3197 22.326 23.3407 22.3501 23.3407H23.7361C23.7593 23.3407 23.7787 23.3197 23.7787 23.2981C23.7787 23.2756 23.7593 23.2547 23.7361 23.2547H23.7228L23.7104 22.9345C23.7088 22.9345 23.7787 22.9331 23.7787 22.8741Z" fill="#F5E600"/>
<path d="M22.5107 23.0376C22.5168 23.0168 22.5262 23.0059 22.5416 23.0059C22.558 23.0059 22.5673 23.0168 22.5734 23.0376C22.5788 23.0531 22.5788 23.0694 22.5788 23.0694V23.1516H22.5067V23.0694C22.5052 23.0679 22.5052 23.0517 22.5107 23.0376Z" fill="black"/>
<path d="M23.5048 23.0376C23.5111 23.0168 23.5204 23.0059 23.5358 23.0059C23.5505 23.0059 23.5613 23.0168 23.5675 23.0376C23.573 23.0531 23.573 23.0694 23.573 23.0694V23.1516H23.5008V23.0694C23.4994 23.0679 23.4994 23.0517 23.5048 23.0376Z" fill="black"/>
<path d="M23.0106 22.8473C23.0167 22.8233 23.0276 22.8125 23.0424 22.8125C23.0563 22.8125 23.0672 22.8249 23.0733 22.8473C23.0788 22.8667 23.0788 22.8837 23.0788 22.8837V22.9837H23.0068V22.8837C23.0052 22.8853 23.0052 22.8667 23.0106 22.8473Z" fill="black"/>
<path d="M23.766 24.0061L23.7078 23.51C23.7505 23.5053 23.7853 23.4704 23.7853 23.4239C23.7853 23.4053 23.7806 23.3906 23.7713 23.3766C23.7992 23.3619 23.8202 23.334 23.8202 23.2992C23.8202 23.2543 23.7853 23.2162 23.7428 23.2132L23.7312 22.9465C23.763 22.9404 23.7995 22.9178 23.7995 22.8691V22.6923H23.6475V22.7721H23.6158V22.6939H23.4616V22.7721H23.4298V22.6923H23.2779V22.8691C23.2779 22.918 23.3143 22.9404 23.3461 22.9465L23.3346 23.2116H23.2477L23.2331 22.6527C23.2648 22.6464 23.3028 22.624 23.3028 22.5752V22.3984H23.1494V22.4783H23.1177V22.4008H22.9619V22.4783H22.9301V22.3984H22.7781V22.5752C22.7781 22.6241 22.8145 22.6466 22.8464 22.6527L22.8333 23.2116H22.7464L22.7348 22.9465C22.7666 22.9404 22.8031 22.9178 22.8031 22.8691V22.6923H22.6512V22.7721H22.6194V22.6939H22.4652V22.7721H22.4334V22.6923H22.2808V22.8691C22.2808 22.918 22.318 22.9404 22.3498 22.9465L22.3382 23.2132C22.294 23.2163 22.2608 23.2527 22.2608 23.2992C22.2608 23.3325 22.2794 23.362 22.3096 23.3766C22.3003 23.3906 22.2957 23.4069 22.2957 23.4239C22.2957 23.4688 22.329 23.5053 22.3731 23.51L22.315 24.0061C22.2683 24.0061 22.2305 24.0417 22.2305 24.093C22.2305 24.1395 22.2699 24.1797 22.318 24.1797H23.7652C23.8133 24.1797 23.8528 24.1394 23.8528 24.093C23.8505 24.0432 23.8141 24.0061 23.766 24.0061ZM23.049 23.6161L23.0405 23.6131L23.0327 23.6161C22.8373 23.6944 22.814 23.9286 22.8102 24.0061H22.7101C22.714 23.9223 22.7435 23.6177 23.0264 23.513H23.0551C23.3411 23.6193 23.369 23.9193 23.3706 24.0061H23.2706C23.2676 23.9286 23.2444 23.6944 23.049 23.6161ZM23.225 24.0061H22.8537C22.8568 23.9378 22.8792 23.7294 23.039 23.6596C23.2011 23.7293 23.2234 23.9378 23.225 24.0061ZM22.9267 23.5115C22.6964 23.6495 22.6692 23.9254 22.6662 24.0061H22.3569L22.4158 23.5115H22.9267ZM23.4142 24.0061C23.4111 23.9255 23.3824 23.6495 23.1537 23.5115H23.6645L23.7234 24.0061H23.4142ZM23.3204 22.8704V22.7372H23.3855V22.8162H23.5047V22.7402H23.5714V22.8162H23.6885V22.7372H23.7551V22.8704C23.7551 22.9037 23.7125 22.9068 23.7064 22.9068H23.7009H23.3677C23.3614 22.9084 23.3204 22.9053 23.3204 22.8704ZM23.6979 23.2131H23.3762L23.3855 22.951H23.6854L23.6979 23.2131ZM22.8234 22.5782V22.4448H22.8885V22.5238H23.0056V22.4464H23.0738V22.5238H23.1917V22.4448H23.2583V22.5782C23.2583 22.6115 23.2157 22.6146 23.2095 22.6146L23.1901 22.6162H22.8869L22.8706 22.6146C22.8646 22.6146 22.8234 22.6115 22.8234 22.5782ZM23.2025 23.2115H22.8794L22.8917 22.6588H23.1902L23.2025 23.2115ZM22.3266 22.8704V22.7372H22.3917V22.8162H22.5104V22.7402H22.577V22.8162H22.6949V22.7372H22.7614V22.8704C22.7614 22.9037 22.7188 22.9068 22.7141 22.9068H22.7111H22.377H22.3754C22.3677 22.9084 22.3266 22.9053 22.3266 22.8704ZM22.7042 23.2131H22.3824L22.3933 22.951H22.6918L22.7042 23.2131ZM22.3042 23.3006C22.3042 23.2797 22.3189 23.2657 22.3375 23.2588C22.3406 23.2588 22.3438 23.2572 22.3468 23.2572H23.7328C23.7569 23.2572 23.7763 23.2782 23.7763 23.3006C23.7763 23.3223 23.7569 23.3433 23.7328 23.3433H22.3468C22.3236 23.3433 22.3042 23.3223 22.3042 23.3006ZM22.3375 23.4254C22.3375 23.4084 22.3468 23.3944 22.3616 23.3874H23.7174C23.7314 23.3959 23.7415 23.4098 23.7415 23.4254C23.7415 23.4494 23.7221 23.4688 23.698 23.4688H22.381C22.3584 23.4688 22.3375 23.4478 22.3375 23.4254ZM23.763 24.1363H22.3157C22.2917 24.1363 22.2723 24.1145 22.2723 24.0945C22.2723 24.0682 22.2917 24.0509 22.3157 24.0509H23.763C23.787 24.0509 23.8064 24.0712 23.8064 24.0945C23.8079 24.1145 23.787 24.1363 23.763 24.1363Z" fill="black"/>
<path d="M22.4235 28.212L21.9708 27.7563L21.5149 27.3066L21.0723 27.6571L21.5723 28.1562L22.0738 28.6585L22.4235 28.212Z" fill="#F5E600"/>
<path d="M22.0753 28.6778L21.0514 27.6546C21.0359 27.636 21.0072 27.636 20.9894 27.6546C20.9723 27.6701 20.9723 27.698 20.9894 27.7134L22.0133 28.7382C22.0311 28.7552 22.0582 28.7552 22.0753 28.7382C22.0931 28.7211 22.0931 28.6932 22.0753 28.6778Z" fill="#F5E600"/>
<path d="M22.5103 28.1791L21.5515 27.2179C21.5375 27.2148 21.5197 27.2179 21.5088 27.2304C21.4918 27.2458 21.4918 27.2737 21.5088 27.2892L22.4391 28.2224C22.4569 28.2379 22.484 28.2379 22.5011 28.2224C22.5141 28.21 22.5173 28.1914 22.5103 28.1791Z" fill="#F5E600"/>
<path d="M22.9143 27.856C22.957 27.8156 23.0267 27.7443 23.0267 27.7443L22.9507 27.6668L22.8933 27.7226L22.839 27.67L22.8948 27.6141L22.8568 27.5771L22.8173 27.5383L22.7616 27.5925L22.7074 27.5413L22.7662 27.4855L22.6888 27.408C22.6888 27.408 22.6174 27.4793 22.5756 27.5179C22.5345 27.5583 22.581 27.6127 22.581 27.6127L22.3454 27.8312L22.254 27.7367L22.6772 27.2978C22.6772 27.2978 22.7269 27.3429 22.7694 27.3009C22.8128 27.2606 22.8842 27.1863 22.8842 27.1863L22.8058 27.1117L22.7492 27.1677L22.6966 27.1149L22.754 27.0591L22.7144 27.0188L22.6756 26.9816L22.619 27.0375L22.5664 26.9847L22.6253 26.9259L22.5493 26.8485C22.5493 26.8485 22.4772 26.9228 22.4345 26.9631C22.3935 27.0065 22.4392 27.0561 22.4392 27.0561L21.9982 27.4794L21.906 27.388L22.1222 27.1538C22.1222 27.1538 22.1711 27.2003 22.2136 27.1617C22.257 27.1182 22.3284 27.0469 22.3284 27.0469L22.2524 26.9695L22.195 27.0269L22.1423 26.9757L22.1981 26.9198L22.1586 26.8795L22.119 26.8392L22.0632 26.895L22.0105 26.8423L22.0679 26.7866L21.9919 26.709C21.9919 26.709 21.9206 26.7803 21.8771 26.8236C21.8361 26.864 21.8818 26.9137 21.8818 26.9137L21.6469 27.1323L21.6376 27.1214C21.6222 27.106 21.5934 27.106 21.5772 27.1214C21.5602 27.1415 21.5602 27.1681 21.5772 27.1835L22.557 28.1633C22.5725 28.182 22.6012 28.182 22.6174 28.1633C22.6346 28.1477 22.6346 28.1214 22.6174 28.1012L22.6089 28.095L22.8268 27.8579C22.8236 27.8498 22.8723 27.8993 22.9143 27.856Z" fill="#F5E600"/>
<path d="M21.9058 27.0772C21.9252 27.068 21.9392 27.068 21.9485 27.0772C21.9586 27.0865 21.9586 27.1022 21.9485 27.1206C21.9422 27.136 21.9315 27.1455 21.9315 27.1455L21.8726 27.2043L21.8223 27.1548L21.8804 27.0959C21.8802 27.0958 21.8917 27.0834 21.9058 27.0772Z" fill="black"/>
<path d="M22.6091 27.7808C22.6285 27.7684 22.6424 27.7684 22.6525 27.7808C22.6618 27.7901 22.6618 27.8057 22.6525 27.8243C22.644 27.8366 22.6347 27.8491 22.6347 27.8491L22.5757 27.908L22.5254 27.8554L22.5842 27.7996C22.5842 27.7994 22.5951 27.7871 22.6091 27.7808Z" fill="black"/>
<path d="M22.3914 27.2949C22.4132 27.2825 22.4294 27.2825 22.4403 27.2919C22.4504 27.3011 22.4488 27.3198 22.4356 27.3414C22.4263 27.357 22.4132 27.3693 22.4132 27.3693L22.3449 27.4407L22.293 27.3881L22.3627 27.3198C22.3627 27.3198 22.3751 27.3041 22.3914 27.2949Z" fill="black"/>
<path d="M22.1089 28.6495L22.4151 28.2588C22.4493 28.2837 22.4996 28.2837 22.5313 28.2526C22.5437 28.2402 22.5507 28.2247 22.5554 28.2093C22.5857 28.2185 22.6205 28.2122 22.6439 28.1875C22.6772 28.1566 22.6772 28.1038 22.6493 28.0729L22.8284 27.8744C22.8556 27.8931 22.8966 27.9023 22.9314 27.8682L23.0571 27.7441L22.9494 27.6357L22.8936 27.6915L22.8711 27.6699L22.9255 27.6139L22.8161 27.5055L22.7618 27.5613L22.7394 27.5365L22.7936 27.4839L22.6874 27.3754L22.5619 27.4994C22.527 27.5336 22.5379 27.577 22.5557 27.6018L22.3604 27.7817L22.2984 27.7197L22.6844 27.3167C22.7107 27.3321 22.7541 27.3445 22.789 27.3104L22.9146 27.1833L22.806 27.0778L22.7526 27.1337L22.7286 27.1088L22.7844 27.0562L22.6743 26.9476L22.6207 27.0004L22.5983 26.9787L22.6541 26.9228L22.5456 26.8144L22.4208 26.9415C22.3859 26.9757 22.3968 27.019 22.4138 27.0439L22.0108 27.4314L21.9471 27.3694L22.127 27.174C22.1541 27.1895 22.1951 27.2019 22.2301 27.1648L22.3556 27.0408L22.2471 26.9322L22.1921 26.988L22.1696 26.9664L22.224 26.9138L22.1139 26.8021L22.0605 26.8578L22.038 26.8362L22.0938 26.7804L21.9859 26.6719L21.8604 26.7959C21.8255 26.8331 21.8364 26.8735 21.8527 26.9014L21.6573 27.0797C21.624 27.0502 21.5728 27.0502 21.5411 27.0827C21.517 27.109 21.5093 27.1416 21.5202 27.1741C21.5047 27.1772 21.4885 27.1866 21.4776 27.1991C21.4458 27.23 21.4442 27.2796 21.4713 27.3137L21.0807 27.6191C21.0473 27.5866 20.9938 27.5866 20.9605 27.6222C20.9272 27.6547 20.9272 27.7105 20.9605 27.743L21.9843 28.7679C22.0169 28.8004 22.0728 28.8004 22.1076 28.7679C22.1407 28.7362 22.1407 28.6836 22.1089 28.6495ZM21.8755 27.8651L21.8725 27.8589L21.8662 27.8526C21.6724 27.7688 21.4879 27.9209 21.4345 27.9705L21.3648 27.8991C21.4252 27.8433 21.6633 27.6511 21.9361 27.7751L21.9555 27.7968C22.0818 28.0727 21.8888 28.3053 21.8314 28.3674L21.7601 28.296C21.8089 28.2433 21.96 28.0572 21.8755 27.8651ZM21.7268 28.265L21.4632 28.0014C21.5136 27.958 21.6756 27.8247 21.8376 27.8898C21.9026 28.0541 21.7725 28.2153 21.7268 28.265ZM21.8632 27.7068C21.6043 27.6417 21.3903 27.8153 21.3315 27.8727L21.1121 27.651L21.5028 27.3456L21.8632 27.7068ZM21.86 28.3983C21.9151 28.3393 22.0887 28.1253 22.0251 27.865L22.3855 28.2276L22.0801 28.6183L21.86 28.3983ZM22.5948 27.5301L22.6902 27.4371L22.7359 27.4822L22.6808 27.5348L22.7645 27.6185L22.8188 27.5673L22.8675 27.6123L22.8118 27.6681L22.8962 27.7518L22.952 27.6976L22.9977 27.7425L22.9024 27.8371C22.8791 27.8621 22.8458 27.834 22.8419 27.8309L22.8389 27.8279L22.6025 27.5891C22.598 27.5859 22.5693 27.555 22.5948 27.5301ZM22.6205 28.0386L22.3935 27.8123L22.5871 27.6356L22.7979 27.8464L22.6205 28.0386ZM22.4507 26.9721L22.5453 26.8759L22.5918 26.9224L22.536 26.9783L22.6205 27.062L22.674 27.0093L22.7221 27.0559L22.6678 27.1085L22.7523 27.1923L22.8057 27.1364L22.8523 27.183L22.7585 27.2792C22.7329 27.304 22.7011 27.2761 22.6979 27.2729L22.6824 27.2575L22.4661 27.0437L22.4568 27.0312C22.4554 27.0279 22.4267 26.9968 22.4507 26.9721ZM22.2693 27.6882L22.0407 27.4587L22.4406 27.0773L22.6522 27.2882L22.2693 27.6882ZM21.8933 26.8262L21.9871 26.7332L22.033 26.7799L21.9772 26.8357L22.0616 26.9193L22.115 26.8636L22.1631 26.9132L22.1089 26.9658L22.1934 27.0495L22.2485 26.9937L22.295 27.0404L22.1997 27.1364C22.174 27.1582 22.1423 27.1303 22.1392 27.1272L22.1362 27.1242L21.9013 26.8885C21.8965 26.8852 21.8678 26.8512 21.8933 26.8262ZM21.9166 27.3379L21.6886 27.1084L21.8817 26.9317L22.0933 27.1425L21.9166 27.3379ZM21.5724 27.1146C21.5864 27.1023 21.6074 27.0992 21.6252 27.1084C21.6282 27.1114 21.6314 27.1114 21.633 27.1146L22.612 28.0944C22.6298 28.1131 22.6298 28.1394 22.612 28.1564C22.5964 28.1752 22.5677 28.1752 22.5522 28.1564L21.5724 27.1766C21.5546 27.1612 21.5546 27.1333 21.5724 27.1146ZM21.5089 27.2294C21.5198 27.2169 21.5376 27.2138 21.5516 27.2169L22.5104 28.1781C22.5158 28.1904 22.512 28.209 22.5011 28.2214C22.4855 28.2369 22.4568 28.2369 22.439 28.2214L21.5088 27.2866C21.4919 27.2728 21.4919 27.2449 21.5089 27.2294ZM22.015 28.7394L20.9911 27.713C20.9756 27.6976 20.9756 27.6713 20.9911 27.6542C21.0089 27.6356 21.036 27.6356 21.0532 27.6542L22.0771 28.679C22.0934 28.696 22.0934 28.7223 22.0771 28.741C22.0601 28.7548 22.033 28.7548 22.015 28.7394Z" fill="black"/>
<path d="M18.3242 20.9199V21.8896C18.3242 21.8912 18.3289 22.0725 18.4134 22.25C18.5273 22.4864 18.7227 22.6089 18.9956 22.6089C19.2684 22.6089 19.4637 22.4879 19.5784 22.25C19.6621 22.0741 19.6676 21.8911 19.6676 21.8896V20.9199H18.3242ZM18.6319 21.158C18.7048 21.158 18.7652 21.2168 18.7652 21.2912C18.7652 21.364 18.7048 21.4244 18.6319 21.4244C18.5591 21.4244 18.4986 21.364 18.4986 21.2912C18.4986 21.2168 18.5591 21.158 18.6319 21.158ZM18.6319 22.1485C18.5591 22.1485 18.4986 22.0895 18.4986 22.0151C18.4986 21.9423 18.5591 21.8819 18.6319 21.8819C18.7048 21.8819 18.7652 21.9423 18.7652 22.0151C18.7652 22.0897 18.7064 22.1485 18.6319 22.1485ZM18.9954 21.7881C18.9225 21.7881 18.8621 21.7276 18.8621 21.6548C18.8621 21.5804 18.9225 21.5214 18.9954 21.5214C19.0682 21.5214 19.1287 21.5804 19.1287 21.6548C19.1288 21.7261 19.0684 21.7881 18.9954 21.7881ZM19.3574 21.158C19.4302 21.158 19.4906 21.2168 19.4906 21.2912C19.4906 21.364 19.4302 21.4244 19.3574 21.4244C19.2845 21.4244 19.224 21.364 19.224 21.2912C19.224 21.2168 19.2846 21.158 19.3574 21.158ZM19.3574 22.1501C19.2845 22.1501 19.224 22.0895 19.224 22.0167C19.224 21.9423 19.2845 21.8835 19.3574 21.8835C19.4302 21.8835 19.4906 21.9423 19.4906 22.0167C19.4908 22.0897 19.4318 22.1501 19.3574 22.1501Z" fill="#153A8D"/>
<path d="M18.3242 25.5254V26.4989C18.3242 26.4989 18.3289 26.6788 18.4134 26.8585C18.5273 27.0942 18.7227 27.2166 18.9956 27.2166C19.2684 27.2166 19.4637 27.0973 19.5784 26.8585C19.6621 26.6803 19.6676 26.4989 19.6676 26.4959V25.5254H18.3242ZM18.6319 25.7641C18.7048 25.7641 18.7652 25.8261 18.7652 25.8975C18.7652 25.9718 18.7048 26.0308 18.6319 26.0308C18.5591 26.0308 18.4986 25.9718 18.4986 25.8975C18.4986 25.8261 18.5591 25.7641 18.6319 25.7641ZM18.6319 26.7564C18.5591 26.7564 18.4986 26.6974 18.4986 26.623C18.4986 26.5517 18.5591 26.4896 18.6319 26.4896C18.7048 26.4896 18.7652 26.5517 18.7652 26.623C18.7652 26.6974 18.7064 26.7564 18.6319 26.7564ZM18.9954 26.3936C18.9225 26.3936 18.8621 26.3347 18.8621 26.2602C18.8621 26.1889 18.9225 26.1269 18.9954 26.1269C19.0682 26.1269 19.1287 26.1889 19.1287 26.2602C19.1288 26.3346 19.0684 26.3936 18.9954 26.3936ZM19.3574 25.7641C19.4302 25.7641 19.4906 25.8261 19.4906 25.8975C19.4906 25.9718 19.4302 26.0308 19.3574 26.0308C19.2845 26.0308 19.224 25.9718 19.224 25.8975C19.224 25.8261 19.2846 25.7641 19.3574 25.7641ZM19.3574 26.7564C19.2845 26.7564 19.224 26.6974 19.224 26.623C19.224 26.5517 19.2845 26.4896 19.3574 26.4896C19.4302 26.4896 19.4906 26.5517 19.4906 26.623C19.4908 26.6974 19.4318 26.7564 19.3574 26.7564Z" fill="#153A8D"/>
<path d="M18.3242 23.2227V24.1941C18.3242 24.1941 18.3289 24.3739 18.4134 24.5552C18.5273 24.7894 18.7227 24.9134 18.9956 24.9134C19.2684 24.9134 19.4637 24.7925 19.5784 24.5552C19.6621 24.3754 19.6676 24.1941 19.6676 24.1941V23.2227H18.3242ZM18.6319 23.4615C18.7048 23.4615 18.7652 23.5197 18.7652 23.5947C18.7652 23.6675 18.7048 23.7281 18.6319 23.7281C18.5591 23.7281 18.4986 23.6675 18.4986 23.5947C18.4986 23.5195 18.5591 23.4615 18.6319 23.4615ZM18.6319 24.4514C18.5591 24.4514 18.4986 24.3924 18.4986 24.318C18.4986 24.2467 18.5591 24.1846 18.6319 24.1846C18.7048 24.1846 18.7652 24.2467 18.7652 24.318C18.7652 24.3924 18.7064 24.4514 18.6319 24.4514ZM18.9954 24.0917C18.9225 24.0917 18.8621 24.0296 18.8621 23.9551C18.8621 23.8838 18.9225 23.8225 18.9954 23.8225C19.0682 23.8225 19.1287 23.8838 19.1287 23.9551C19.1288 24.0296 19.0684 24.0917 18.9954 24.0917ZM19.3574 23.4615C19.4302 23.4615 19.4906 23.5197 19.4906 23.5947C19.4906 23.6675 19.4302 23.7281 19.3574 23.7281C19.2845 23.7281 19.224 23.6675 19.224 23.5947C19.224 23.5195 19.2846 23.4615 19.3574 23.4615ZM19.3574 24.4514C19.2845 24.4514 19.224 24.3924 19.224 24.318C19.224 24.2467 19.2845 24.1846 19.3574 24.1846C19.4302 24.1846 19.4906 24.2467 19.4906 24.318C19.4908 24.3924 19.4318 24.4514 19.3574 24.4514Z" fill="#153A8D"/>
<path d="M16.4414 23.2227V24.1941C16.4414 24.1941 16.4461 24.3739 16.5321 24.5552C16.646 24.7894 16.8414 24.9134 17.1142 24.9134C17.3878 24.9134 17.5824 24.7925 17.6972 24.5552C17.7832 24.3754 17.7879 24.1941 17.7879 24.1941V23.2227H16.4414ZM16.7508 23.4615C16.8244 23.4615 16.884 23.5197 16.884 23.5947C16.884 23.6675 16.8244 23.7281 16.7508 23.7281C16.6779 23.7281 16.6174 23.6675 16.6174 23.5947C16.6174 23.5195 16.6779 23.4615 16.7508 23.4615ZM16.7508 24.4514C16.6779 24.4514 16.6174 24.3924 16.6174 24.318C16.6174 24.2467 16.6779 24.1846 16.7508 24.1846C16.8244 24.1846 16.884 24.2467 16.884 24.318C16.884 24.3924 16.826 24.4514 16.7508 24.4514ZM17.1142 24.0917C17.0398 24.0917 16.981 24.0296 16.981 23.9551C16.981 23.8838 17.0398 23.8225 17.1142 23.8225C17.1871 23.8225 17.2476 23.8838 17.2476 23.9551C17.2476 24.0296 17.1871 24.0917 17.1142 24.0917ZM17.4763 23.4615C17.5491 23.4615 17.6081 23.5197 17.6081 23.5947C17.6081 23.6675 17.5492 23.7281 17.4763 23.7281C17.4018 23.7281 17.3429 23.6675 17.3429 23.5947C17.3429 23.5195 17.4018 23.4615 17.4763 23.4615ZM17.4763 24.4514C17.4018 24.4514 17.3429 24.3924 17.3429 24.318C17.3429 24.2467 17.4018 24.1846 17.4763 24.1846C17.5491 24.1846 17.6081 24.2467 17.6081 24.318C17.6095 24.3924 17.5515 24.4514 17.4763 24.4514Z" fill="#153A8D"/>
<path d="M20.207 23.2227V24.1941C20.207 24.1941 20.2101 24.3739 20.297 24.5552C20.4117 24.7894 20.607 24.9134 20.8798 24.9134C21.1527 24.9134 21.3481 24.7925 21.4628 24.5552C21.5465 24.3754 21.5528 24.1941 21.5528 24.1941V23.2227H20.207ZM20.5164 23.4615C20.5892 23.4615 20.6482 23.5197 20.6482 23.5947C20.6482 23.6675 20.5893 23.7281 20.5164 23.7281C20.4419 23.7281 20.383 23.6675 20.383 23.5947C20.3814 23.5195 20.4419 23.4615 20.5164 23.4615ZM20.5164 24.4514C20.4419 24.4514 20.383 24.3924 20.383 24.318C20.383 24.2467 20.4419 24.1846 20.5164 24.1846C20.5892 24.1846 20.6496 24.2467 20.6496 24.318C20.6496 24.3924 20.5892 24.4514 20.5164 24.4514ZM20.8782 24.0917C20.8054 24.0917 20.745 24.0296 20.745 23.9551C20.745 23.8838 20.8054 23.8225 20.8782 23.8225C20.9528 23.8225 21.0116 23.8838 21.0116 23.9551C21.0116 24.0296 20.9528 24.0917 20.8782 24.0917ZM21.2403 23.4615C21.3131 23.4615 21.3736 23.5197 21.3736 23.5947C21.3736 23.6675 21.3131 23.7281 21.2403 23.7281C21.1674 23.7281 21.107 23.6675 21.107 23.5947C21.1086 23.5195 21.1674 23.4615 21.2403 23.4615ZM21.2403 24.4514C21.1674 24.4514 21.107 24.3924 21.107 24.318C21.107 24.2467 21.1674 24.1846 21.2403 24.1846C21.3131 24.1846 21.3736 24.2467 21.3736 24.318C21.3736 24.3924 21.3131 24.4514 21.2403 24.4514Z" fill="#153A8D"/>
</g>
</svg>
