<svg width="16" height="17" viewBox="0 0 16 17" fill="none" xmlns="http://www.w3.org/2000/svg">
<path d="M10 3.1875V2.65625C10 1.77604 9.32812 1.0625 8.5 1.0625H6.73125C6.38437 0.427988 5.7375 0 5 0C4.2625 0 3.61562 0.427988 3.26875 1.0625H1.5C0.671562 1.0625 0 1.77604 0 2.65625V13.2812C0 14.1611 0.671562 14.875 1.5 14.875L6 14.875V5.84375C6 4.37617 7.11875 3.1875 8.5 3.1875H10ZM5 2.92188C4.5875 2.92188 4.25 2.56494 4.25 2.125C4.25 1.68506 4.5875 1.32812 5 1.32812C5.4125 1.32812 5.75 1.68506 5.75 2.125C5.75 2.56494 5.41563 2.92188 5 2.92188ZM13 4.25V7.4375H16L13 4.25ZM12 7.4375V4.25H8.5C7.67188 4.25 7 4.96387 7 5.84375V15.4062C7 16.2865 7.67156 17 8.5 17H14.5C15.3284 17 16 16.2865 16 15.4062V8.5H13.0003C12.45 8.5 12 8.02188 12 7.4375Z" fill="#282828"/>
</svg>
