<svg width="20" height="16" viewBox="0 0 20 16" fill="none" xmlns="http://www.w3.org/2000/svg">
<path d="M13.2846 15.0813C13.2127 15.0422 13.1417 15.0013 13.0718 14.9584L12.8275 15.0988C12.64 15.2083 12.4266 15.2661 12.2103 15.2661C11.8756 15.2661 11.55 15.1257 11.305 14.8677C10.7297 14.2398 10.2959 13.488 10.0481 12.6833C9.88084 12.1189 10.1213 11.5311 10.6053 11.2695L10.8559 11.1236C10.8538 11.0417 10.8538 10.9598 10.8559 10.878L10.6166 10.7386C10.2323 10.5213 10.0104 10.1243 10.0029 9.6955C9.55018 9.57188 9.07517 9.5 8.58453 9.5H5.41573C2.42536 9.5 0 11.9281 0 14.9187C0 15.5156 0.485009 16 1.08315 16H12.9159C13.0948 16 13.2565 15.946 13.4052 15.8691C13.3343 15.7134 13.2846 15.5473 13.2846 15.3673V15.0813ZM7.00013 8C9.20955 8 11.0002 6.20906 11.0002 4C11.0002 1.79094 9.20955 0 7.00013 0C4.79071 0 3.00006 1.79094 3.00006 4C3.00006 6.20906 4.79071 8 7.00013 8ZM19.0785 11.6656C19.1605 11.2281 19.1605 10.775 19.0785 10.3375L19.8832 9.86875C19.9769 9.81797 20.0199 9.70859 19.9887 9.60312C19.7777 8.93125 19.4183 8.31781 18.9496 7.81C18.8793 7.73187 18.7621 7.71234 18.6683 7.76703L17.8636 8.23203C17.5236 7.94297 17.133 7.71641 16.7111 7.56797V6.63438C16.7111 6.52891 16.633 6.43516 16.5314 6.41563C15.8361 6.25938 15.1251 6.26328 14.4611 6.41563C14.3595 6.43516 14.2853 6.52891 14.2853 6.63438V7.56812C13.8634 7.71656 13.4728 7.94312 13.1327 8.23219L12.3252 7.76562C12.2354 7.71094 12.1182 7.73047 12.044 7.80859C11.5752 8.31641 11.2158 8.92984 11.0086 9.60172C10.9774 9.70719 11.0204 9.81656 11.1102 9.86734L11.9149 10.3361C11.8368 10.7736 11.8368 11.2267 11.9149 11.6642L11.1102 12.133C11.0165 12.1838 10.9774 12.2931 11.0086 12.3986C11.2157 13.0705 11.5752 13.6798 12.044 14.1917C12.1182 14.2698 12.2315 14.2894 12.3252 14.2347L13.134 13.7697C13.474 14.0588 13.8646 14.2853 14.2865 14.4338V15.3675C14.2865 15.473 14.3607 15.5667 14.4623 15.5863C15.1617 15.7425 15.8686 15.7386 16.5326 15.5863C16.6342 15.5667 16.7123 15.473 16.7123 15.3675V14.4338C17.1342 14.2853 17.5249 14.0588 17.8649 13.7697L18.6696 14.2347C18.7594 14.2894 18.8805 14.2698 18.9508 14.1917C19.4196 13.6839 19.779 13.0705 19.9899 12.3986C20.0212 12.2931 19.9782 12.1838 19.8844 12.133L19.0785 11.6656ZM15.5003 12.5156C14.6643 12.5156 13.9846 11.8359 13.9846 11C13.9846 10.1641 14.6643 9.48438 15.5003 9.48438C16.3362 9.48438 17.0159 10.1641 17.0159 11C17.0159 11.8359 16.3378 12.5156 15.5003 12.5156Z" fill="#282828"/>
</svg>
