<svg viewBox="0 0 40 40" fill="none" xmlns="http://www.w3.org/2000/svg">
<path d="M23.9415 28.8516C23.8552 28.8027 23.7701 28.7516 23.6862 28.698L23.393 28.8736C23.1679 29.0104 22.9119 29.0826 22.6524 29.0826C22.2508 29.0826 21.86 28.9071 21.566 28.5846C20.8756 27.7998 20.3551 26.86 20.0577 25.8541C19.857 25.1486 20.1456 24.4139 20.7263 24.0869L21.027 23.9045C21.0245 23.8021 21.0245 23.6998 21.027 23.5975L20.74 23.4233C20.2787 23.1517 20.0124 22.6553 20.0034 22.1194C19.4602 21.9648 18.8902 21.875 18.3014 21.875H14.4989C10.9104 21.875 8 24.9102 8 28.6484C8 29.3945 8.58201 30 9.29977 30H23.499C23.7138 30 23.9078 29.9325 24.0863 29.8364C24.0011 29.6417 23.9415 29.4341 23.9415 29.2091V28.8516ZM16.4002 20C19.0515 20 21.2002 17.7613 21.2002 15C21.2002 12.2387 19.0515 10 16.4002 10C13.7489 10 11.6001 12.2387 11.6001 15C11.6001 17.7613 13.7489 20 16.4002 20ZM30.8942 24.582C30.9926 24.0352 30.9926 23.4688 30.8942 22.9219L31.8598 22.3359C31.9723 22.2725 32.0239 22.1357 31.9864 22.0039C31.7333 21.1641 31.302 20.3973 30.7395 19.7625C30.6551 19.6648 30.5145 19.6404 30.402 19.7088L29.4363 20.29C29.0283 19.9287 28.5596 19.6455 28.0533 19.46V18.293C28.0533 18.1611 27.9596 18.0439 27.8377 18.0195C27.0033 17.8242 26.1502 17.8291 25.3533 18.0195C25.2314 18.0439 25.1423 18.1611 25.1423 18.293V19.4602C24.6361 19.6457 24.1673 19.9289 23.7593 20.2902L22.7903 19.707C22.6825 19.6387 22.5418 19.6631 22.4528 19.7607C21.8903 20.3955 21.459 21.1623 21.2104 22.0021C21.1729 22.134 21.2244 22.2707 21.3322 22.3342L22.2979 22.9201C22.2041 23.467 22.2041 24.0334 22.2979 24.5803L21.3322 25.1662C21.2197 25.2297 21.1729 25.3664 21.2104 25.4982C21.4588 26.3381 21.8903 27.0998 22.4528 27.7396C22.5418 27.8373 22.6778 27.8617 22.7903 27.7934L23.7608 27.2121C24.1688 27.5734 24.6376 27.8566 25.1438 28.0422V29.2094C25.1438 29.3412 25.2329 29.4584 25.3548 29.4828C26.194 29.6781 27.0423 29.6732 27.8392 29.4828C27.9611 29.4584 28.0548 29.3412 28.0548 29.2094V28.0422C28.5611 27.8566 29.0298 27.5734 29.4378 27.2121L30.4035 27.7934C30.5113 27.8617 30.6566 27.8373 30.741 27.7396C31.3035 27.1049 31.7348 26.3381 31.9879 25.4982C32.0254 25.3664 31.9738 25.2297 31.8613 25.1662L30.8942 24.582ZM26.6003 25.6445C25.5972 25.6445 24.7816 24.7949 24.7816 23.75C24.7816 22.7051 25.5972 21.8555 26.6003 21.8555C27.6035 21.8555 28.4191 22.7051 28.4191 23.75C28.4191 24.7949 27.6054 25.6445 26.6003 25.6445Z" fill="currentColor"/>
</svg>
