<svg viewBox="0 0 40 40" fill="none" xmlns="http://www.w3.org/2000/svg">
<path fill-rule="evenodd" clip-rule="evenodd" d="M12.8963 27.8231L6.38268 21.4058C6.1262 21.1571 6 20.8282 6 20.4994C6 20.1705 6.12722 19.8424 6.38166 19.5921L12.8953 13.1748C13.4042 12.6735 14.2285 12.6735 14.7374 13.1748C15.2463 13.6762 15.2463 14.4884 14.7374 14.9897L10.4455 19.2159L32.7362 19.2159C33.4564 19.2159 34.0023 19.7907 34.0023 20.4633C34.0023 21.1359 33.4564 21.7828 32.7362 21.7828L10.4455 21.7828L14.7364 26.0102C15.2453 26.5116 15.2453 27.3237 14.7364 27.8251C14.2275 28.3264 13.4052 28.3244 12.8963 27.8231ZM18.8804 14.1992C18.8804 13.5806 19.3818 13.0791 20.0005 13.0791L32.6015 13.0791C33.2201 13.0791 33.7216 13.5806 33.7216 14.1992C33.7216 14.8178 33.2201 15.3193 32.6015 15.3193L20.0005 15.3193C19.3818 15.3193 18.8804 14.8178 18.8804 14.1992ZM20.0005 25.6803C19.3818 25.6803 18.8804 26.1818 18.8804 26.8004C18.8804 27.419 19.3818 27.9205 20.0005 27.9205L32.6015 27.9205C33.2201 27.9205 33.7216 27.419 33.7216 26.8004C33.7216 26.1818 33.2201 25.6803 32.6015 25.6803L20.0005 25.6803Z" fill="currentColor"/>
</svg>
