<svg viewBox="0 0 40 40" fill="none" xmlns="http://www.w3.org/2000/svg">
<path d="M29.7266 27.3047C29.9089 27.487 30 27.7083 30 27.9688C30 28.2292 29.9089 28.4505 29.7266 28.6328L28.6328 29.7266C28.4505 29.9089 28.2292 30 27.9688 30C27.7083 30 27.487 29.9089 27.3047 29.7266L23.3984 25.8203C23.2161 25.638 23.125 25.4167 23.125 25.1562V24.5312C21.6667 25.6771 20 26.25 18.125 26.25C15.8854 26.25 13.9714 25.4557 12.3828 23.8672C10.7943 22.2786 10 20.3646 10 18.125C10 15.8854 10.7943 13.9714 12.3828 12.3828C13.9714 10.7943 15.8854 10 18.125 10C20.3646 10 22.2786 10.7943 23.8672 12.3828C25.4557 13.9714 26.25 15.8854 26.25 18.125C26.25 20 25.6771 21.6667 24.5312 23.125H25.1562C25.4167 23.125 25.638 23.2161 25.8203 23.3984L29.7266 27.3047ZM14.5703 21.6797C15.5599 22.6432 16.7448 23.125 18.125 23.125C19.5052 23.125 20.6771 22.6432 21.6406 21.6797C22.6302 20.6901 23.125 19.5052 23.125 18.125C23.125 16.7448 22.6302 15.5729 21.6406 14.6094C20.6771 13.6198 19.5052 13.125 18.125 13.125C16.7448 13.125 15.5599 13.6198 14.5703 14.6094C13.6068 15.5729 13.125 16.7448 13.125 18.125C13.125 19.5052 13.6068 20.6901 14.5703 21.6797Z" fill="currentColor"/>
</svg>
