<svg viewBox="0 0 20 20" fill="none" xmlns="http://www.w3.org/2000/svg">
<path d="M19.7266 17.3047C19.9089 17.487 20 17.7083 20 17.9688C20 18.2292 19.9089 18.4505 19.7266 18.6328L18.6328 19.7266C18.4505 19.9089 18.2292 20 17.9688 20C17.7083 20 17.487 19.9089 17.3047 19.7266L13.3984 15.8203C13.2161 15.638 13.125 15.4167 13.125 15.1562V14.5312C11.6667 15.6771 10 16.25 8.125 16.25C5.88542 16.25 3.97135 15.4557 2.38281 13.8672C0.794271 12.2786 0 10.3646 0 8.125C0 5.88542 0.794271 3.97135 2.38281 2.38281C3.97135 0.794271 5.88542 0 8.125 0C10.3646 0 12.2786 0.794271 13.8672 2.38281C15.4557 3.97135 16.25 5.88542 16.25 8.125C16.25 10 15.6771 11.6667 14.5312 13.125H15.1562C15.4167 13.125 15.638 13.2161 15.8203 13.3984L19.7266 17.3047ZM4.57031 11.6797C5.5599 12.6432 6.74479 13.125 8.125 13.125C9.50521 13.125 10.6771 12.6432 11.6406 11.6797C12.6302 10.6901 13.125 9.50521 13.125 8.125C13.125 6.74479 12.6302 5.57292 11.6406 4.60938C10.6771 3.61979 9.50521 3.125 8.125 3.125C6.74479 3.125 5.5599 3.61979 4.57031 4.60938C3.60677 5.57292 3.125 6.74479 3.125 8.125C3.125 9.50521 3.60677 10.6901 4.57031 11.6797Z" fill="currentColor"/>
</svg>
