<svg viewBox="0 0 40 40" fill="none" xmlns="http://www.w3.org/2000/svg">
<path d="M29.2042 16.6076L28.8419 17.2377C28.691 17.5078 28.4646 17.5978 28.1627 17.5078C27.6194 17.2978 27.1364 17.0127 26.7138 16.6526C26.4723 16.4425 26.427 16.2025 26.5779 15.9324L26.9402 15.3022C26.6383 14.9422 26.3968 14.5371 26.2157 14.0869H25.4912C25.1592 14.0869 24.9781 13.9219 24.9479 13.5918C24.8271 13.0517 24.8271 12.4965 24.9479 11.9264C24.9781 11.6263 25.1592 11.4763 25.4912 11.4763H26.2157C26.3968 11.0262 26.6383 10.6211 26.9402 10.261L26.5779 9.58579C26.427 9.31572 26.4723 9.09066 26.7138 8.91062C27.1364 8.55053 27.6194 8.26545 28.1627 8.0554C28.4646 7.93537 28.691 8.01039 28.8419 8.28046L29.2042 8.95563C29.6872 8.86561 30.1702 8.86561 30.6531 8.95563L31.0154 8.28046C31.1663 8.01039 31.3927 7.93537 31.6946 8.0554C32.2379 8.23544 32.7209 8.52052 33.1435 8.91062C33.385 9.09066 33.4303 9.31572 33.2794 9.58579L32.9171 10.261C33.219 10.6211 33.4605 11.0262 33.6416 11.4763H34.3661C34.6981 11.4763 34.8793 11.6263 34.9094 11.9264C35.0302 12.4965 35.0302 13.0517 34.9094 13.5918C34.8793 13.9219 34.6981 14.0869 34.3661 14.0869H33.6416C33.4605 14.5371 33.219 14.9422 32.9171 15.3022L33.2794 15.9324C33.4303 16.2325 33.385 16.4725 33.1435 16.6526C32.7209 17.0127 32.2379 17.2978 31.6946 17.5078C31.3927 17.5978 31.1663 17.5078 31.0154 17.2377L30.6531 16.6076C30.1702 16.6976 29.6872 16.6976 29.2042 16.6076ZM28.7514 13.9519C29.2947 14.372 29.8532 14.492 30.4267 14.312C31.0003 14.1319 31.3474 13.7869 31.4682 13.2767C31.6191 12.7366 31.4984 12.1664 31.1059 11.5663C30.5626 11.1462 30.0041 11.0262 29.4306 11.2062C28.857 11.3862 28.4948 11.7463 28.3439 12.2865C28.2231 12.7966 28.359 13.3517 28.7514 13.9519ZM23.4989 20.8837L25.0384 21.6489C25.5516 21.9489 25.7025 22.3841 25.4912 22.9542C25.2196 23.7344 24.5856 24.7246 23.5895 25.925C23.1971 26.3751 22.7443 26.4501 22.2311 26.15L20.8727 25.3848C20.1482 26.015 19.3332 26.4951 18.4276 26.8252V28.3556C18.4276 28.5956 18.337 28.8207 18.1559 29.0307C17.9748 29.2408 17.7635 29.3608 17.522 29.3908C16.3749 29.6009 15.2278 29.6009 14.0807 29.3908C13.809 29.3608 13.5826 29.2408 13.4015 29.0307C13.2506 28.8207 13.1751 28.5956 13.1751 28.3556V26.8252C12.2393 26.4951 11.4092 26.015 10.6847 25.3848L9.37161 26.15C8.85844 26.4501 8.40564 26.3751 8.01321 25.925C7.04724 24.7547 6.41332 23.7644 6.11146 22.9542C5.90015 22.3841 6.05108 21.9489 6.56426 21.6489L8.05849 20.8837C7.87737 19.9234 7.87737 18.9782 8.05849 18.0479L6.56426 17.2828C6.0209 16.9827 5.86997 16.5476 6.11146 15.9774C6.41332 15.1672 7.04724 14.177 8.01321 13.0067C8.37545 12.5565 8.82825 12.4815 9.37161 12.7816L10.6847 13.5018C11.4394 12.8716 12.2695 12.4065 13.1751 12.1064V10.576C13.1751 10.306 13.2506 10.0809 13.4015 9.90087C13.5826 9.69082 13.809 9.57079 14.0807 9.54078C15.2278 9.33072 16.3749 9.33072 17.522 9.54078C17.7635 9.57079 17.9748 9.69082 18.1559 9.90087C18.337 10.0809 18.4276 10.306 18.4276 10.576V12.1064C19.3332 12.4365 20.1482 12.9016 20.8727 13.5018L22.2311 12.7816C22.7443 12.4515 23.1971 12.5265 23.5895 13.0067C24.5554 14.147 25.1894 15.1372 25.4912 15.9774C25.7025 16.5476 25.5516 16.9827 25.0384 17.2828L23.4989 18.0479C23.68 18.9782 23.68 19.9234 23.4989 20.8837ZM18.2012 21.8289C18.7143 21.1687 19.0011 20.4786 19.0615 19.7584C19.1219 19.0382 18.986 18.423 18.654 17.9129C18.3219 17.3728 17.8842 16.9377 17.3409 16.6076C16.8277 16.2775 16.2089 16.1575 15.4844 16.2475C14.7599 16.3075 14.0656 16.5926 13.4015 17.1027C12.8883 17.7629 12.6016 18.4531 12.5412 19.1732C12.4808 19.8934 12.6167 20.5236 12.9487 21.0637C13.2808 21.5738 13.7034 21.994 14.2166 22.324C14.7599 22.6541 15.3938 22.7892 16.1183 22.7291C16.8428 22.6391 17.5371 22.339 18.2012 21.8289ZM29.2042 30.066L28.8419 30.6962C28.691 30.9662 28.4646 31.0563 28.1627 30.9662C27.6194 30.7562 27.1364 30.4711 26.7138 30.111C26.4723 29.901 26.427 29.6609 26.5779 29.3908L26.9402 28.7607C26.6383 28.4006 26.3968 27.9955 26.2157 27.5454H25.4912C25.1592 27.5454 24.9781 27.3803 24.9479 27.0502C24.8271 26.5101 24.8271 25.955 24.9479 25.3848C24.9781 25.0847 25.1592 24.9347 25.4912 24.9347H26.2157C26.3968 24.4846 26.6383 24.0645 26.9402 23.6744L26.5779 23.0442C26.427 22.7742 26.4723 22.5341 26.7138 22.324C27.1364 21.9639 27.6194 21.6939 28.1627 21.5138C28.4646 21.3938 28.691 21.4688 28.8419 21.7389L29.2042 22.4141C29.6872 22.324 30.1702 22.324 30.6531 22.4141L31.0154 21.7389C31.1663 21.4688 31.3927 21.3938 31.6946 21.5138C32.2379 21.6939 32.7209 21.9639 33.1435 22.324C33.385 22.5341 33.4303 22.7742 33.2794 23.0442L32.9171 23.6744C33.219 24.0645 33.4605 24.4846 33.6416 24.9347H34.3661C34.6981 24.9347 34.8793 25.0847 34.9094 25.3848C35.0302 25.955 35.0302 26.5101 34.9094 27.0502C34.8793 27.3803 34.6981 27.5454 34.3661 27.5454H33.6416C33.4605 27.9955 33.219 28.4006 32.9171 28.7607L33.2794 29.3908C33.4303 29.6609 33.385 29.901 33.1435 30.111C32.7209 30.4711 32.2379 30.7562 31.6946 30.9662C31.3927 31.0563 31.1663 30.9662 31.0154 30.6962L30.6531 30.066C30.1702 30.156 29.6872 30.156 29.2042 30.066ZM28.7514 27.4103C29.2947 27.8304 29.8532 27.9505 30.4267 27.7704C31.0003 27.5904 31.3474 27.2453 31.4682 26.7352C31.6191 26.195 31.4984 25.6249 31.1059 25.0247C30.5626 24.6046 30.0041 24.4846 29.4306 24.6646C28.857 24.8447 28.4948 25.2048 28.3439 25.7449C28.2231 26.255 28.359 26.8102 28.7514 27.4103Z" fill="currentColor"/>
</svg>
