<svg width="19" height="15" viewBox="0 0 19 15" fill="none" xmlns="http://www.w3.org/2000/svg">
<path d="M15.2027 5.61364L14.9654 6.02461C14.8665 6.20075 14.7182 6.25946 14.5204 6.20075C14.1644 6.06375 13.848 5.87784 13.5711 5.64299C13.4129 5.506 13.3832 5.34944 13.4821 5.17331L13.7194 4.76233C13.5217 4.52749 13.3634 4.26329 13.2448 3.96974H12.7701C12.5526 3.96974 12.4339 3.86211 12.4141 3.64683C12.335 3.29457 12.335 2.93252 12.4141 2.56069C12.4339 2.36498 12.5526 2.26713 12.7701 2.26713H13.2448C13.3634 1.97358 13.5217 1.70938 13.7194 1.47454L13.4821 1.03421C13.3832 0.858078 13.4129 0.711302 13.5711 0.593881C13.848 0.359038 14.1644 0.173121 14.5204 0.0361296C14.7182 -0.0421512 14.8665 0.0067743 14.9654 0.182906L15.2027 0.623236C15.5192 0.564525 15.8356 0.564525 16.1521 0.623236L16.3894 0.182906C16.4883 0.0067743 16.6366 -0.0421512 16.8344 0.0361296C17.1904 0.153551 17.5068 0.339468 17.7837 0.593881C17.9419 0.711302 17.9716 0.858078 17.8727 1.03421L17.6354 1.47454C17.8331 1.70938 17.9914 1.97358 18.11 2.26713H18.5847C18.8022 2.26713 18.9209 2.36498 18.9407 2.56069C19.0198 2.93252 19.0198 3.29457 18.9407 3.64683C18.9209 3.86211 18.8022 3.96974 18.5847 3.96974H18.11C17.9914 4.26329 17.8331 4.52749 17.6354 4.76233L17.8727 5.17331C17.9716 5.36901 17.9419 5.52557 17.7837 5.64299C17.5068 5.87784 17.1904 6.06375 16.8344 6.20075C16.6366 6.25946 16.4883 6.20075 16.3894 6.02461L16.1521 5.61364C15.8356 5.67235 15.5192 5.67235 15.2027 5.61364ZM14.9061 3.88168C15.2621 4.15566 15.628 4.23394 16.0037 4.11652C16.3795 3.9991 16.6069 3.77404 16.686 3.44135C16.7849 3.08908 16.7058 2.71725 16.4487 2.32584C16.0927 2.05186 15.7268 1.97358 15.3511 2.091C14.9753 2.20842 14.738 2.44327 14.6391 2.79553C14.56 3.12822 14.649 3.49027 14.9061 3.88168ZM11.4648 8.40239L12.4735 8.90143C12.8097 9.09714 12.9086 9.3809 12.7701 9.75274C12.5921 10.2616 12.1768 10.9074 11.5241 11.6902C11.267 11.9837 10.9704 12.0327 10.6342 11.837L9.74417 11.3379C9.26952 11.7489 8.73553 12.062 8.14221 12.2773V13.2754C8.14221 13.4319 8.08287 13.5787 7.96421 13.7157C7.84554 13.8527 7.7071 13.931 7.54888 13.9505C6.79734 14.0875 6.0458 14.0875 5.29426 13.9505C5.11626 13.931 4.96793 13.8527 4.84927 13.7157C4.75038 13.5787 4.70094 13.4319 4.70094 13.2754V12.2773C4.08784 12.062 3.54396 11.7489 3.0693 11.3379L2.20898 11.837C1.87277 12.0327 1.57611 11.9837 1.319 11.6902C0.686124 10.927 0.270798 10.2811 0.0730243 9.75274C-0.0654176 9.3809 0.0334695 9.09714 0.369685 8.90143L1.34867 8.40239C1.23 7.77615 1.23 7.15969 1.34867 6.55301L0.369685 6.05397C0.013692 5.85827 -0.085195 5.5745 0.0730243 5.20266C0.270798 4.67427 0.686124 4.02845 1.319 3.26521C1.55633 2.97166 1.85299 2.92274 2.20898 3.11844L3.0693 3.58812C3.56374 3.17715 4.10761 2.87381 4.70094 2.67811V1.68003C4.70094 1.5039 4.75038 1.35712 4.84927 1.2397C4.96793 1.10271 5.11626 1.02443 5.29426 1.00485C6.0458 0.867863 6.79734 0.867863 7.54888 1.00485C7.7071 1.02443 7.84554 1.10271 7.96421 1.2397C8.08287 1.35712 8.14221 1.5039 8.14221 1.68003V2.67811C8.73553 2.89338 9.26952 3.19672 9.74417 3.58812L10.6342 3.11844C10.9704 2.90317 11.267 2.95209 11.5241 3.26521C12.157 4.00888 12.5723 4.6547 12.7701 5.20266C12.9086 5.5745 12.8097 5.85827 12.4735 6.05397L11.4648 6.55301C11.5835 7.15969 11.5835 7.77615 11.4648 8.40239ZM7.99387 9.01886C8.33009 8.58831 8.51798 8.1382 8.55753 7.66851C8.59708 7.19883 8.50809 6.79764 8.29053 6.46494C8.07298 6.11268 7.78621 5.82891 7.43022 5.61364C7.094 5.39837 6.68857 5.32009 6.21391 5.3788C5.73925 5.41794 5.28437 5.60385 4.84927 5.93655C4.51305 6.36709 4.32517 6.81721 4.28561 7.28689C4.24606 7.75658 4.33505 8.16755 4.55261 8.51982C4.77016 8.85251 5.04704 9.12649 5.38326 9.34176C5.73925 9.55704 6.15458 9.6451 6.62923 9.60596C7.10389 9.54725 7.55877 9.35155 7.99387 9.01886ZM15.2027 14.3909L14.9654 14.8019C14.8665 14.978 14.7182 15.0367 14.5204 14.978C14.1644 14.841 13.848 14.6551 13.5711 14.4202C13.4129 14.2832 13.3832 14.1267 13.4821 13.9505L13.7194 13.5396C13.5217 13.3047 13.3634 13.0405 13.2448 12.747H12.7701C12.5526 12.747 12.4339 12.6393 12.4141 12.4241C12.335 12.0718 12.335 11.7098 12.4141 11.3379C12.4339 11.1422 12.5526 11.0444 12.7701 11.0444H13.2448C13.3634 10.7508 13.5217 10.4768 13.7194 10.2224L13.4821 9.81145C13.3832 9.63532 13.4129 9.47875 13.5711 9.34176C13.848 9.10692 14.1644 8.93079 14.5204 8.81337C14.7182 8.73509 14.8665 8.78401 14.9654 8.96014L15.2027 9.40047C15.5192 9.34176 15.8356 9.34176 16.1521 9.40047L16.3894 8.96014C16.4883 8.78401 16.6366 8.73509 16.8344 8.81337C17.1904 8.93079 17.5068 9.10692 17.7837 9.34176C17.9419 9.47875 17.9716 9.63532 17.8727 9.81145L17.6354 10.2224C17.8331 10.4768 17.9914 10.7508 18.11 11.0444H18.5847C18.8022 11.0444 18.9209 11.1422 18.9407 11.3379C19.0198 11.7098 19.0198 12.0718 18.9407 12.4241C18.9209 12.6393 18.8022 12.747 18.5847 12.747H18.11C17.9914 13.0405 17.8331 13.3047 17.6354 13.5396L17.8727 13.9505C17.9716 14.1267 17.9419 14.2832 17.7837 14.4202C17.5068 14.6551 17.1904 14.841 16.8344 14.978C16.6366 15.0367 16.4883 14.978 16.3894 14.8019L16.1521 14.3909C15.8356 14.4496 15.5192 14.4496 15.2027 14.3909ZM14.9061 12.6589C15.2621 12.9329 15.628 13.0112 16.0037 12.8938C16.3795 12.7763 16.6069 12.5513 16.686 12.2186C16.7849 11.8663 16.7058 11.4945 16.4487 11.1031C16.0927 10.8291 15.7268 10.7508 15.3511 10.8682C14.9753 10.9857 14.738 11.2205 14.6391 11.5728C14.56 11.9055 14.649 12.2675 14.9061 12.6589Z" fill="#282828"/>
</svg>
