<svg viewBox="0 0 40 40" fill="none" xmlns="http://www.w3.org/2000/svg">
<path fill-rule="evenodd" clip-rule="evenodd" d="M26.875 22.75C25.7654 22.75 24.7616 23.1955 24.0191 23.9105L17.1991 20.4991C17.2197 20.3341 17.25 20.1719 17.25 20C17.25 19.8281 17.2197 19.6659 17.1991 19.5009L24.0191 16.0895C24.7616 16.8045 25.7654 17.25 26.875 17.25C29.1493 17.25 31 15.3993 31 13.125C31 10.8507 29.1493 9 26.875 9C24.6007 9 22.75 10.8507 22.75 13.125C22.75 13.2969 22.7802 13.4591 22.8009 13.6241L15.9809 17.0355C15.2384 16.3205 14.2346 15.875 13.125 15.875C10.8507 15.875 9 17.7257 9 20C9 22.2743 10.8507 24.125 13.125 24.125C14.2346 24.125 15.2384 23.6795 15.9809 22.9645L22.8009 26.3759C22.7802 26.5409 22.75 26.7031 22.75 26.875C22.75 29.1493 24.6007 31 26.875 31C29.1493 31 31 29.1493 31 26.875C31 24.6007 29.1493 22.75 26.875 22.75Z" fill="currentColor"/>
</svg>
