<svg width="14" height="14" viewBox="0 0 14 14" fill="none" xmlns="http://www.w3.org/2000/svg">
<path fill-rule="evenodd" clip-rule="evenodd" d="M11.375 8.75C10.6689 8.75 10.0301 9.0335 9.55762 9.4885L5.21762 7.31763C5.23075 7.21263 5.25 7.10938 5.25 7C5.25 6.89062 5.23075 6.78737 5.21762 6.68237L9.55762 4.5115C10.0301 4.9665 10.6689 5.25 11.375 5.25C12.8223 5.25 14 4.07225 14 2.625C14 1.17775 12.8223 0 11.375 0C9.92775 0 8.75 1.17775 8.75 2.625C8.75 2.73438 8.76925 2.83763 8.78237 2.94263L4.44238 5.1135C3.96988 4.6585 3.33113 4.375 2.625 4.375C1.17775 4.375 0 5.55275 0 7C0 8.44725 1.17775 9.625 2.625 9.625C3.33113 9.625 3.96988 9.3415 4.44238 8.8865L8.78237 11.0574C8.76925 11.1624 8.75 11.2656 8.75 11.375C8.75 12.8223 9.92775 14 11.375 14C12.8223 14 14 12.8223 14 11.375C14 9.92775 12.8223 8.75 11.375 8.75Z" fill="#282828"/>
</svg>
