<svg viewBox="0 0 40 40" fill="none" xmlns="http://www.w3.org/2000/svg">
<path d="M36.6328 26.3138L30.3827 32.629C30.1405 32.8776 29.8202 33 29.4999 33C29.1796 33 28.86 32.8767 28.6163 32.63L22.3662 26.3148C21.8779 25.8214 21.8779 25.0221 22.3662 24.5287C22.8545 24.0354 23.6455 24.0354 24.1338 24.5287L28.2499 28.6899L28.2499 9.22752C28.2499 8.52929 28.8097 8 29.4647 8C30.1198 8 30.7499 8.52929 30.7499 9.22752L30.7499 28.6899L34.8672 24.5297C35.3554 24.0364 36.1465 24.0364 36.6348 24.5297C37.123 25.0231 37.1211 25.8204 36.6328 26.3138Z" fill="currentColor"/>
<path d="M3.36719 14.1513L9.61728 8.34134C9.85947 8.11257 10.1798 8 10.5001 8C10.8204 8 11.14 8.11348 11.3837 8.34043L17.6338 14.1504C18.1221 14.6043 18.1221 15.3397 17.6338 15.7936C17.1455 16.2475 16.3545 16.2475 15.8662 15.7936L11.7501 11.9653L11.7501 29.8707C11.7501 30.513 11.1903 31 10.5353 31C9.88017 31 9.25008 30.513 9.25008 29.8707L9.25008 11.9653L5.13284 15.7927C4.64455 16.2466 3.85353 16.2466 3.36524 15.7926C2.87695 15.3387 2.87891 14.6052 3.36719 14.1513Z" fill="currentColor"/>
</svg>
