<svg width="40" height="40" viewBox="0 0 40 40" fill="none" xmlns="http://www.w3.org/2000/svg">
<path d="M25.193 23.4492H15.0966C14.5791 23.4492 14.0668 23.5511 13.5887 23.7492C13.1106 23.9472 12.6762 24.2374 12.3104 24.6033C11.5714 25.3423 11.1563 26.3445 11.1562 27.3896V30.5877C11.1901 30.7063 11.2617 30.8106 11.3602 30.8849C11.4587 30.9592 11.5787 30.9994 11.702 30.9994C11.8254 30.9994 11.9453 30.9592 12.0438 30.8849C12.1423 30.8106 12.2139 30.7063 12.2478 30.5877V27.3896C12.2477 27.018 12.3217 26.6501 12.4656 26.3075C12.6094 25.9649 12.8201 25.6544 13.0854 25.3942C13.3507 25.134 13.6652 24.9293 14.0105 24.7921C14.3558 24.655 14.7251 24.588 15.0966 24.5953H25.193C25.9341 24.5953 26.6449 24.8897 27.1689 25.4137C27.6929 25.9377 27.9873 26.6485 27.9873 27.3896V30.5877C28.0212 30.7063 28.0928 30.8106 28.1912 30.8849C28.2897 30.9592 28.4097 30.9994 28.5331 30.9994C28.6564 30.9994 28.7764 30.9592 28.8749 30.8849C28.9733 30.8106 29.0449 30.7063 29.0788 30.5877V27.3896C29.0789 26.3539 28.6713 25.3598 27.9441 24.6224C27.2169 23.885 26.2286 23.4636 25.193 23.4492Z" fill="#282828"/>
<path d="M11.7235 21.2227H13.4044C13.523 21.1888 13.6273 21.1172 13.7016 21.0188C13.7759 20.9203 13.8161 20.8003 13.8161 20.677C13.8161 20.5536 13.7759 20.4336 13.7016 20.3352C13.6273 20.2367 13.523 20.1651 13.4044 20.1312H11.7235C11.639 20.1071 11.5501 20.1029 11.4637 20.119C11.3774 20.135 11.2959 20.1709 11.2258 20.2238C11.1556 20.2767 11.0987 20.3452 11.0596 20.4238C11.0204 20.5025 11 20.5891 11 20.677C11 20.7648 11.0204 20.8515 11.0596 20.9301C11.0987 21.0087 11.1556 21.0772 11.2258 21.1301C11.2959 21.183 11.3774 21.2189 11.4637 21.235C11.5501 21.251 11.639 21.2468 11.7235 21.2227Z" fill="#282828"/>
<path d="M16.7762 20.0882C16.6917 20.0641 16.6028 20.0599 16.5165 20.076C16.4301 20.0921 16.3486 20.128 16.2785 20.1809C16.2084 20.2338 16.1515 20.3022 16.1123 20.3809C16.0731 20.4595 16.0527 20.5461 16.0527 20.634C16.0527 20.7218 16.0731 20.8085 16.1123 20.8871C16.1515 20.9657 16.2084 21.0342 16.2785 21.0871C16.3486 21.14 16.4301 21.1759 16.5165 21.192C16.6028 21.2081 16.6917 21.2039 16.7762 21.1797H18.479C18.5976 21.1459 18.7019 21.0743 18.7762 20.9758C18.8505 20.8773 18.8907 20.7573 18.8907 20.634C18.8907 20.5106 18.8505 20.3907 18.7762 20.2922C18.7019 20.1937 18.5976 20.1221 18.479 20.0882H16.7762Z" fill="#282828"/>
<path d="M21.8192 20.0882C21.7347 20.0641 21.6458 20.0599 21.5594 20.076C21.4731 20.0921 21.3916 20.128 21.3215 20.1809C21.2513 20.2338 21.1945 20.3022 21.1553 20.3809C21.1161 20.4595 21.0957 20.5461 21.0957 20.634C21.0957 20.7218 21.1161 20.8085 21.1553 20.8871C21.1945 20.9657 21.2513 21.0342 21.3215 21.0871C21.3916 21.14 21.4731 21.1759 21.5594 21.192C21.6458 21.2081 21.7347 21.2039 21.8192 21.1797H23.5001C23.5846 21.2039 23.6735 21.2081 23.7599 21.192C23.8462 21.1759 23.9277 21.14 23.9978 21.0871C24.0679 21.0342 24.1248 20.9657 24.164 20.8871C24.2032 20.8085 24.2236 20.7218 24.2236 20.634C24.2236 20.5461 24.2032 20.4595 24.164 20.3809C24.1248 20.3022 24.0679 20.2338 23.9978 20.1809C23.9277 20.128 23.8462 20.0921 23.7599 20.076C23.6735 20.0599 23.5846 20.0641 23.5001 20.0882H21.8192Z" fill="#282828"/>
<path d="M28.5528 20.0882H26.8719C26.7875 20.0641 26.6985 20.0599 26.6122 20.076C26.5258 20.0921 26.4443 20.128 26.3742 20.1809C26.3041 20.2338 26.2472 20.3022 26.208 20.3809C26.1688 20.4595 26.1484 20.5461 26.1484 20.634C26.1484 20.7218 26.1688 20.8085 26.208 20.8871C26.2472 20.9657 26.3041 21.0342 26.3742 21.0871C26.4443 21.14 26.5258 21.1759 26.6122 21.192C26.6985 21.2081 26.7875 21.2039 26.8719 21.1797H28.5528C28.6373 21.2039 28.7262 21.2081 28.8126 21.192C28.899 21.1759 28.9804 21.14 29.0506 21.0871C29.1207 21.0342 29.1776 20.9657 29.2168 20.8871C29.2559 20.8085 29.2763 20.7218 29.2763 20.634C29.2763 20.5461 29.2559 20.4595 29.2168 20.3809C29.1776 20.3022 29.1207 20.2338 29.0506 20.1809C28.9804 20.128 28.899 20.0921 28.8126 20.076C28.7262 20.0599 28.6373 20.0641 28.5528 20.0882Z" fill="#282828"/>
<path d="M15.0959 17.8619H25.1924C26.2355 17.8591 27.2349 17.4426 27.9715 16.704C28.7081 15.9653 29.1218 14.9648 29.1218 13.9216V10.7235C29.1459 10.639 29.1501 10.5501 29.134 10.4637C29.118 10.3774 29.0821 10.2959 29.0291 10.2258C28.9762 10.1556 28.9078 10.0987 28.8292 10.0596C28.7505 10.0204 28.6639 10 28.576 10C28.4882 10 28.4015 10.0204 28.3229 10.0596C28.2443 10.0987 28.1758 10.1556 28.1229 10.2258C28.07 10.2959 28.0341 10.3774 28.018 10.4637C28.002 10.5501 28.0061 10.639 28.0303 10.7235V13.9216C28.0303 14.6637 27.7362 15.3756 27.2125 15.9013C26.6888 16.4271 25.9781 16.7239 25.236 16.7268H15.0959C14.3519 16.7268 13.6384 16.4312 13.1123 15.9052C12.5863 15.3791 12.2907 14.6656 12.2907 13.9216V10.7235C12.2568 10.6049 12.1853 10.5005 12.0868 10.4263C11.9883 10.352 11.8683 10.3118 11.745 10.3118C11.6216 10.3118 11.5016 10.352 11.4032 10.4263C11.3047 10.5005 11.2331 10.6049 11.1992 10.7235V13.9216C11.1992 14.9591 11.6083 15.9548 12.3378 16.6925C13.0674 17.4302 14.0584 17.8504 15.0959 17.8619Z" fill="#282828"/>
</svg>
