<svg width="30" height="30" viewBox="0 0 30 30" fill="none" xmlns="http://www.w3.org/2000/svg">
<path fill-rule="evenodd" clip-rule="evenodd" d="M26.186 0C24.8105 0 23.692 1.11856 23.692 2.49402C23.692 2.9564 23.8184 3.38975 24.0384 3.76133L19.9713 7.82852C19.5997 7.60853 19.1665 7.48218 18.7042 7.48218C17.92 7.48218 17.2193 7.84576 16.7618 8.41325L13.7185 7.54537C13.719 7.52417 13.7193 7.5029 13.7193 7.48157C13.7193 6.10611 12.6007 4.98755 11.2252 4.98755C9.84978 4.98755 8.73122 6.10611 8.73122 7.48157C8.73122 7.84384 8.80881 8.18829 8.94826 8.49918L5.05838 11.6008C4.67558 11.3614 4.22345 11.2229 3.73952 11.2229C2.36406 11.2229 1.2455 12.3415 1.2455 13.7169C1.2455 15.0924 2.36406 16.2109 3.73952 16.2109C5.11498 16.2109 6.23354 15.0924 6.23354 13.7169C6.23354 13.2789 6.12009 12.8669 5.92102 12.5088L9.72682 9.47426C10.1442 9.78889 10.6633 9.97559 11.2252 9.97559C12.1401 9.97559 12.9413 9.48074 13.3753 8.7446L16.2444 9.56279C16.2219 9.69728 16.2102 9.83539 16.2102 9.9762C16.2102 11.3517 17.3287 12.4702 18.7042 12.4702C20.0796 12.4702 21.1982 11.3517 21.1982 9.9762C21.1982 9.51446 21.0721 9.08167 20.8526 8.71043L24.9204 4.64262C25.2916 4.86204 25.7243 4.98804 26.186 4.98804C27.5614 4.98804 28.68 3.86948 28.68 2.49402C28.68 1.11856 27.5614 0 26.186 0ZM4.61147 12.8262C4.61798 12.833 4.62462 12.8397 4.63137 12.8461C4.85105 13.0711 4.9865 13.3786 4.9865 13.7169C4.9865 14.404 4.42786 14.9639 3.73952 14.9639C3.05117 14.9639 2.49254 14.404 2.49254 13.7169C2.49254 13.0298 3.05117 12.4699 3.73952 12.4699C4.0788 12.4699 4.38657 12.606 4.61147 12.8262ZM12.4722 7.48157C12.4722 7.58309 12.46 7.68183 12.437 7.7764C12.4313 7.79191 12.4262 7.80777 12.4216 7.82394C12.4172 7.83933 12.4134 7.85475 12.4102 7.87017C12.2467 8.36785 11.7777 8.72855 11.2252 8.72855C10.5369 8.72855 9.97826 8.16863 9.97826 7.48157C9.97826 6.79445 10.5369 6.23459 11.2252 6.23459C11.9136 6.23459 12.4722 6.79451 12.4722 7.48157ZM25.3388 3.40833C25.5613 3.61464 25.859 3.741 26.186 3.741C26.8743 3.741 27.433 3.18108 27.433 2.49402C27.433 1.80696 26.8743 1.24704 26.186 1.24704C25.4976 1.24704 24.939 1.8069 24.939 2.49402C24.939 2.82116 25.0656 3.11948 25.2726 3.34225C25.2844 3.35241 25.296 3.36308 25.3071 3.37427C25.3182 3.38532 25.3287 3.39668 25.3388 3.40833ZM24.3155 9.97632C23.9713 9.97632 23.692 10.2557 23.692 10.5998V28.6807H21.1982V18.0818C21.1982 17.7375 20.9188 17.4583 20.5747 17.4583H16.8337C16.4895 17.4583 16.2102 17.7376 16.2102 18.0818V28.6807H13.7193V15.5876C13.7193 15.2435 13.4399 14.9641 13.0957 14.9641H9.35474C9.01056 14.9641 8.73122 15.2435 8.73122 15.5876V28.6807H6.23354V21.8219C6.23354 21.4778 5.95419 21.1985 5.61002 21.1985H1.86902C1.52485 21.1985 1.2455 21.4778 1.2455 21.822V28.6807H0.623519C0.279347 28.6807 0 28.96 0 29.3041C0 29.6483 0.279347 29.9276 0.623519 29.9276H9.32899L9.34516 29.9281L9.35474 29.9282H13.0957C13.1044 29.9282 13.1129 29.928 13.1215 29.9276H16.8051C16.8146 29.9281 16.8241 29.9283 16.8337 29.9283H20.5747C20.5843 29.9283 20.5938 29.9281 20.6033 29.9276H24.2854C24.2954 29.9281 24.3054 29.9284 24.3155 29.9284H28.0565C28.0665 29.9284 28.0766 29.9281 28.0865 29.9276H29.3045C29.6487 29.9276 29.9281 29.6483 29.9281 29.3041C29.928 28.96 29.6487 28.6807 29.3045 28.6807H28.68V10.5998C28.68 10.2556 28.4006 9.97632 28.0565 9.97632H24.3155ZM24.9389 28.6807H27.433V11.2233H24.9389V28.6807ZM19.9512 28.6807H17.4571V18.7052H19.9512V28.6807ZM9.9782 28.6807H12.4722V16.2111H9.9782V28.6807ZM2.49254 22.4455V28.6805H4.9865H4.98656V22.4455H2.49254ZM17.4572 9.9762C17.4572 10.6633 18.0158 11.2232 18.7042 11.2232C19.3925 11.2232 19.9512 10.6633 19.9512 9.9762C19.9512 9.28914 19.3925 8.72922 18.7042 8.72922C18.0158 8.72922 17.4572 9.28908 17.4572 9.9762Z" fill="#282828"/>
</svg>
