<svg viewBox="0 0 40 40" fill="currentColor" xmlns="http://www.w3.org/2000/svg">
<path d="M34.2715 18.232L32.2254 16.1864C31.7398 15.7008 31.3419 14.7411 31.3419 14.0529V11.1598C31.3419 9.7836 30.2176 8.65932 28.8417 8.65858H25.9473C25.2599 8.65858 24.2992 8.25992 23.8135 7.77469L21.7678 5.72901C20.7957 4.757 19.2042 4.757 18.2322 5.72901L16.1864 7.77615C15.7004 8.26175 14.7385 8.65932 14.0526 8.65932H11.1594C9.78499 8.65932 8.65922 9.7836 8.65922 11.1598V14.053C8.65922 14.7385 8.26135 15.7011 7.77566 16.1864L5.72957 18.2321C4.75681 19.2041 4.75681 20.7956 5.72957 21.7692L7.77566 23.8148C8.26164 24.3004 8.65922 25.2627 8.65922 25.9483V28.8414C8.65922 30.2162 9.78499 31.342 11.1594 31.342H14.0527C14.7401 31.342 15.7008 31.7398 16.1865 32.2251L18.2322 34.2715C19.2043 35.2428 20.7958 35.2428 21.7678 34.2715L23.8136 32.2251C24.2996 31.7395 25.26 31.342 25.9474 31.342H28.8417C30.2176 31.342 31.3419 30.2162 31.3419 28.8414V25.9483C31.3419 25.2598 31.7402 24.3002 32.2255 23.8148L34.2716 21.7692C35.2428 20.7956 35.2428 19.204 34.2715 18.232ZM18.0154 25.6253L12.4994 20.1086L14.2672 18.3412L18.0159 22.0898L25.7325 14.3751L27.4999 16.1426L18.0154 25.6253Z" fill="currentColor"/>
</svg>
