<svg width="19" height="19" viewBox="0 0 19 19" fill="none" xmlns="http://www.w3.org/2000/svg">
<path fill-rule="evenodd" clip-rule="evenodd" d="M9.5 19C14.7467 19 19 14.7467 19 9.5C19 4.25329 14.7467 0 9.5 0C4.25329 0 0 4.25329 0 9.5C0 14.7467 4.25329 19 9.5 19ZM13.3864 6.17121C13.6827 5.87515 14.1631 5.87497 14.4589 6.17121C14.7551 6.46743 14.7551 6.94783 14.4589 7.24386L9.09569 12.6073C8.94766 12.7555 8.75338 12.8295 8.55926 12.8295C8.36514 12.8295 8.17104 12.7553 8.02301 12.6073L5.34142 9.92566C5.04518 9.62943 5.04518 9.14923 5.34142 8.85299C5.63766 8.55675 6.11785 8.55675 6.41409 8.85299L8.55946 10.9983L13.3864 6.17121Z" fill="#282828"/>
</svg>
