<svg width="40" height="40" viewBox="0 0 40 40" fill="none" xmlns="http://www.w3.org/2000/svg">
<path fill-rule="evenodd" clip-rule="evenodd" d="M15.4167 29.3333H12.0833C10.935 29.3333 10 28.3983 10 27.25V24.7498V20.5832V16.4167V13.0833C10 11.935 10.935 11 12.0833 11H27.9167C29.065 11 30 11.935 30 13.0833V16.4167V20.5832V24.7498V27.25C30 28.3983 29.065 29.3333 27.9167 29.3333H24.5841H19.9992H15.4167ZM25.0008 28.5H27.9167C28.6058 28.5 29.1667 27.9392 29.1667 27.25V25.1665H25.0008V28.5ZM24.1675 25.1665V28.5H20.4159V25.1665H24.1675ZM25.0008 24.3331H29.1667V20.9999H25.0008V24.3331ZM24.1675 20.9999V24.3331H20.4159V20.9999H24.1675ZM25.0008 20.1666H29.1667V16.8333H25.0008V20.1666ZM24.1675 16.8333V20.1666H20.4159V16.8333H24.1675ZM24.5841 16H19.9992H15.4167H10.8333V13.0833C10.8333 12.3942 11.3942 11.8333 12.0833 11.8333H27.9167C28.6058 11.8333 29.1667 12.3942 29.1667 13.0833V16H24.5841ZM19.5825 28.5V25.1665H15.8333V28.5H19.5825ZM19.5825 24.3331V20.9999H15.8333V24.3331H19.5825ZM19.5825 20.1666V16.8333H15.8333V20.1666H19.5825ZM15 28.5H12.0833C11.3942 28.5 10.8333 27.9392 10.8333 27.25V25.1665H15V28.5ZM15 20.9999H10.8333V24.3331H15V20.9999ZM15 20.1666H10.8333V16.8333H15V20.1666Z" fill="#282828"/>
</svg>
