<svg viewBox="0 0 40 40" fill="none" xmlns="http://www.w3.org/2000/svg">
<path d="M13.2385 19.8557H26.3581C26.957 19.8843 27.5555 19.791 28.1173 19.5816C28.6791 19.3721 29.1926 19.0507 29.6265 18.637C30.0605 18.2232 30.406 17.7257 30.6421 17.1745C30.8781 16.6233 30.9998 16.03 30.9998 15.4304C30.9998 14.8308 30.8781 14.2374 30.6421 13.6862C30.406 13.135 30.0605 12.6375 29.6265 12.2238C29.1926 11.81 28.6791 11.4887 28.1173 11.2792C27.5555 11.0697 26.957 10.9764 26.3581 11.005H13.2385C12.1014 11.0594 11.0288 11.5493 10.2433 12.3733C9.45775 13.1972 9.01953 14.292 9.01953 15.4304C9.01953 16.5688 9.45775 17.6635 10.2433 18.4875C11.0288 19.3114 12.1014 19.8014 13.2385 19.8557ZM13.2385 11.984H26.3581C26.8223 11.9587 27.2868 12.0284 27.7232 12.1886C28.1596 12.3489 28.5588 12.5965 28.8964 12.9162C29.2339 13.2359 29.5028 13.621 29.6865 14.0481C29.8702 14.4751 29.965 14.9352 29.965 15.4001C29.965 15.865 29.8702 16.3251 29.6865 16.7521C29.5028 17.1792 29.2339 17.5643 28.8964 17.884C28.5588 18.2037 28.1596 18.4513 27.7232 18.6115C27.2868 18.7718 26.8223 18.8415 26.3581 18.8162H13.2385C12.3646 18.7687 11.5421 18.3881 10.9403 17.7526C10.3385 17.1172 10.0031 16.2753 10.0031 15.4001C10.0031 14.5249 10.3385 13.683 10.9403 13.0475C11.5421 12.4121 12.3646 12.0315 13.2385 11.984Z" fill="currentColor"/>
<path d="M26.3385 20.9152H13.219C12.0819 20.9695 11.0093 21.4595 10.2238 22.2834C9.43822 23.1074 9 24.2021 9 25.3405C9 26.4789 9.43822 27.5737 10.2238 28.3976C11.0093 29.2216 12.0819 29.7115 13.219 29.7659H26.3385C26.9375 29.7945 27.5359 29.7012 28.0978 29.4917C28.6596 29.2822 29.173 28.9609 29.607 28.5471C30.041 28.1334 30.3865 27.6359 30.6225 27.0847C30.8586 26.5335 30.9803 25.9401 30.9803 25.3405C30.9803 24.7409 30.8586 24.1476 30.6225 23.5964C30.3865 23.0452 30.041 22.5477 29.607 22.1339C29.173 21.7202 28.6596 21.3988 28.0978 21.1893C27.5359 20.9799 26.9375 20.8866 26.3385 20.9152ZM26.3385 28.7567H13.219C12.3451 28.7091 11.5226 28.3285 10.9208 27.6931C10.319 27.0576 9.98355 26.2157 9.98355 25.3405C9.98355 24.4653 10.319 23.6234 10.9208 22.988C11.5226 22.3525 12.3451 21.9719 13.219 21.9244H26.3385C26.8028 21.8992 27.2673 21.9688 27.7037 22.1291C28.1401 22.2893 28.5393 22.5369 28.8768 22.8566C29.2144 23.1763 29.4832 23.5614 29.667 23.9885C29.8507 24.4156 29.9454 24.8756 29.9454 25.3405C29.9454 25.8054 29.8507 26.2655 29.667 26.6926C29.4832 27.1196 29.2144 27.5048 28.8768 27.8245C28.5393 28.1442 28.1401 28.3917 27.7037 28.552C27.2673 28.7123 26.8028 28.7819 26.3385 28.7567Z" fill="currentColor"/>
<path d="M24.2384 15.828H25.399V17.0289C25.3972 17.0835 25.4071 17.1379 25.4279 17.1884C25.4488 17.2388 25.4803 17.2843 25.5201 17.3216C25.5998 17.4035 25.7086 17.4506 25.8229 17.4528C25.9349 17.4495 26.0422 17.4066 26.1256 17.3317C26.1648 17.2917 26.1957 17.2444 26.2165 17.1924C26.2373 17.1405 26.2475 17.0849 26.2467 17.0289V15.828H27.4073C27.5216 15.8258 27.6304 15.7787 27.7101 15.6968C27.7489 15.6587 27.7797 15.6131 27.8005 15.5628C27.8213 15.5125 27.8318 15.4586 27.8312 15.4041C27.8326 15.3481 27.8225 15.2924 27.8017 15.2403C27.7809 15.1883 27.7497 15.141 27.7101 15.1014C27.6304 15.0195 27.5216 14.9723 27.4073 14.9702H26.2467V13.8096C26.2475 13.7536 26.2373 13.6981 26.2165 13.6461C26.1957 13.5941 26.1648 13.5468 26.1256 13.5068C26.0414 13.4344 25.934 13.3945 25.8229 13.3945C25.7118 13.3945 25.6043 13.4344 25.5201 13.5068C25.4809 13.5468 25.4501 13.5941 25.4293 13.6461C25.4085 13.6981 25.3982 13.7536 25.399 13.8096V15.0105H24.2384C24.1818 15.0111 24.1258 15.0229 24.0738 15.0455C24.0218 15.068 23.9748 15.1007 23.9357 15.1417C23.896 15.1814 23.8649 15.2286 23.844 15.2807C23.8232 15.3327 23.8132 15.3885 23.8146 15.4445C23.814 15.4989 23.8244 15.5529 23.8452 15.6032C23.866 15.6535 23.8968 15.6991 23.9357 15.7372C24.0211 15.8053 24.1296 15.8379 24.2384 15.828Z" fill="currentColor"/>
<path d="M27.4075 24.9412H26.2469V23.7806C26.2448 23.6664 26.1976 23.5576 26.1157 23.4779C26.0341 23.4041 25.928 23.3633 25.818 23.3633C25.708 23.3633 25.6019 23.4041 25.5203 23.4779C25.4811 23.5178 25.4503 23.5652 25.4295 23.6171C25.4087 23.6691 25.3984 23.7247 25.3992 23.7806V24.9412H24.2285C24.1185 24.9483 24.0148 24.9953 23.9368 25.0733C23.8588 25.1513 23.8118 25.255 23.8047 25.3651C23.8062 25.4775 23.8493 25.5854 23.9258 25.6678C23.9658 25.707 24.0131 25.7379 24.0651 25.7587C24.117 25.7794 24.1726 25.7897 24.2285 25.7889H25.3992V26.9596C25.3986 27.014 25.4091 27.068 25.4299 27.1183C25.4507 27.1686 25.4814 27.2142 25.5203 27.2523C25.5595 27.2933 25.6064 27.326 25.6584 27.3485C25.7104 27.3711 25.7664 27.3829 25.8231 27.3835C25.9332 27.3763 26.0369 27.3294 26.1149 27.2514C26.1929 27.1734 26.2398 27.0697 26.2469 26.9596V25.7889H27.4075C27.4635 25.7897 27.519 25.7794 27.571 25.7587C27.623 25.7379 27.6703 25.707 27.7103 25.6678C27.7867 25.5854 27.8299 25.4775 27.8314 25.3651C27.8307 25.27 27.7987 25.1778 27.7406 25.1027C27.7004 25.0529 27.6497 25.0126 27.5921 24.9847C27.5345 24.9567 27.4715 24.9419 27.4075 24.9412Z" fill="currentColor"/>
</svg>
