<svg viewBox="0 0 40 40" fill="none" xmlns="http://www.w3.org/2000/svg">
<path d="M29.1277 20.3277C30.0244 20.0806 30.809 19.4745 31.3331 18.6241C31.8572 17.7737 32.0844 16.738 31.9718 15.7129C31.8592 14.6878 31.4146 13.7443 30.722 13.0611C30.0294 12.3779 29.137 12.0022 28.2135 12.0051H10.9709C10.4588 11.9769 9.94696 12.0654 9.46637 12.2652C8.98579 12.4649 8.5465 12.7718 8.17516 13.1671C7.80383 13.5625 7.50818 14.0381 7.30617 14.5651C7.10416 15.0921 7 15.6595 7 16.2329C7 16.8062 7.10416 17.3737 7.30617 17.9007C7.50818 18.4276 7.80383 18.9033 8.17516 19.2986C8.5465 19.694 8.98579 20.0008 9.46637 20.2006C9.94696 20.4003 10.4588 20.4888 10.9709 20.4606H24.7851V26.5952C24.7737 26.719 24.7986 26.8436 24.8562 26.9501C24.9138 27.0566 25.0009 27.1393 25.1042 27.1855C25.2075 27.2317 25.3215 27.239 25.4289 27.2063C25.5363 27.1736 25.6312 27.1026 25.6993 27.0042L27.7106 24.7446L29.1277 28.6503C29.1528 28.7189 29.1897 28.7813 29.2364 28.8339C29.2831 28.8865 29.3386 28.9282 29.3998 28.9567C29.461 28.9852 29.5266 29 29.5928 29C29.6591 29.0001 29.7247 28.9855 29.7859 28.957C29.9106 28.8981 30.0099 28.7873 30.0628 28.648C30.1156 28.5087 30.118 28.3519 30.0694 28.2107L28.6157 24.305H31.4773C31.5774 24.3067 31.6755 24.2744 31.7588 24.2123C31.8421 24.1502 31.9065 24.0613 31.9436 23.9573C31.9836 23.8531 31.9946 23.7378 31.975 23.6265C31.9555 23.5152 31.9062 23.4131 31.8338 23.3337L29.1277 20.3277ZM10.9618 19.3053C10.2344 19.3053 9.53674 18.9821 9.02238 18.4069C8.50802 17.8317 8.21905 17.0515 8.21905 16.238C8.21905 15.4245 8.50802 14.6443 9.02238 14.0691C9.53674 13.4938 10.2344 13.1707 10.9618 13.1707H28.2135C28.5736 13.1673 28.9309 13.2433 29.2648 13.3944C29.5987 13.5454 29.9027 13.7686 30.1595 14.051C30.4164 14.3335 30.6209 14.6697 30.7615 15.0406C30.9021 15.4114 30.976 15.8096 30.979 16.2124C30.982 16.6152 30.9141 17.0147 30.779 17.3882C30.6439 17.7616 30.4444 18.1016 30.1919 18.3888C29.9393 18.676 29.6386 18.9048 29.307 19.062C28.9754 19.2193 28.6193 19.3019 28.2592 19.3053L25.6627 16.4322C25.5946 16.3338 25.4997 16.2628 25.3923 16.2301C25.2849 16.1974 25.171 16.2047 25.0676 16.251C24.9643 16.2972 24.8772 16.3798 24.8197 16.4863C24.7621 16.5928 24.7371 16.7174 24.7485 16.8412V19.3155L10.9618 19.3053ZM27.8569 23.1701C27.7908 23.1698 27.7252 23.1841 27.6641 23.2121C27.6029 23.2402 27.5472 23.2815 27.5003 23.3337L25.809 25.2252V18.2113L30.2431 23.1701H27.8569Z" fill="currentColor"/>
</svg>
