<svg viewBox="0 0 40 40" fill="none" xmlns="http://www.w3.org/2000/svg">
<path fill-rule="evenodd" clip-rule="evenodd" d="M24.9 28.75H28.25C28.53 28.75 28.75 28.52 28.75 28.25V24.9C28.75 24.62 28.52 24.4 28.25 24.4H27.08V15.35H28.25C28.53 15.35 28.75 15.12 28.75 14.85V11.5C28.75 11.22 28.52 11 28.25 11H24.9C24.62 11 24.4 11.23 24.4 11.5V12.67H15.35V11.5C15.35 11.22 15.12 11 14.85 11H11.5C11.23 11 11 11.23 11 11.5V14.85C11 15.13 11.23 15.35 11.5 15.35H12.67V24.39H11.5C11.22 24.39 11 24.62 11 24.89V28.24C11 28.52 11.23 28.74 11.5 28.74H14.85C15.13 28.74 15.35 28.51 15.35 28.24V27.07H24.39V28.24C24.39 28.52 24.62 28.74 24.89 28.74L24.9 28.75ZM27.75 25.4V27.74H25.41V26.6C25.41 26.6 25.41 26.58 25.41 26.56C25.41 26.54 25.41 26.54 25.41 26.53V25.39H27.75V25.4ZM25.41 13.22C25.41 13.22 25.41 13.18 25.41 13.17C25.41 13.16 25.41 13.15 25.41 13.13V11.99H27.75V14.33H25.41V13.21V13.22ZM12.01 14.35V12.01H14.35V14.35H12.01ZM14.35 27.75H12.01V25.41H14.35V27.75ZM15.36 26.08V24.91C15.36 24.63 15.13 24.41 14.86 24.41H13.69V15.35H14.86C15.14 15.35 15.36 15.12 15.36 14.85V13.68H24.4V14.85C24.4 15.13 24.63 15.35 24.9 15.35H26.07V24.39H24.9C24.62 24.39 24.4 24.62 24.4 24.89V26.06H15.35L15.36 26.08Z" fill="currentColor"/>
</svg>
