<svg viewBox="0 0 40 40" fill="none" xmlns="http://www.w3.org/2000/svg">
<path d="M28.95 10H11.76C11.5293 9.99871 11.3007 10.043 11.0872 10.1304C10.8738 10.2177 10.6797 10.3464 10.5161 10.509C10.3525 10.6717 10.2227 10.865 10.1342 11.078C10.0456 11.291 10 11.5194 10 11.75V28.92C10 29.1507 10.0456 29.3791 10.1342 29.592C10.2227 29.805 10.3525 29.9984 10.5161 30.161C10.6797 30.3236 10.8738 30.4523 11.0872 30.5397C11.3007 30.6271 11.5293 30.6713 11.76 30.67H28.95C29.4124 30.6674 29.8549 30.4818 30.181 30.1539C30.507 29.826 30.69 29.3824 30.69 28.92V11.75C30.69 11.2876 30.507 10.844 30.181 10.5161C29.8549 10.1882 29.4124 10.0027 28.95 10ZM29.69 28.92C29.6874 29.1013 29.6135 29.2742 29.4844 29.4015C29.3553 29.5287 29.1813 29.6 29 29.6H11.76C11.5797 29.6 11.4067 29.5284 11.2792 29.4009C11.1516 29.2733 11.08 29.1004 11.08 28.92V15.92H29.69V28.92ZM29.69 14.92H11.08V11.75C11.08 11.5697 11.1516 11.3967 11.2792 11.2692C11.4067 11.1417 11.5797 11.07 11.76 11.07H28.95C29.1313 11.07 29.3053 11.1413 29.4344 11.2686C29.5635 11.3958 29.6374 11.5688 29.64 11.75L29.69 14.92Z" fill="currentColor"/>
<path d="M16.3109 25.6204C16.4121 25.7209 16.5483 25.7783 16.6909 25.7804C16.7972 25.7796 16.9009 25.7476 16.989 25.6882C17.0772 25.6288 17.1458 25.5447 17.1864 25.4465C17.227 25.3483 17.2376 25.2403 17.2171 25.136C17.1966 25.0317 17.1457 24.9359 17.0709 24.8604L15.0109 22.8004L17.0709 20.7304C17.1217 20.681 17.1621 20.6219 17.1897 20.5566C17.2173 20.4913 17.2315 20.4212 17.2315 20.3504C17.2315 20.2795 17.2173 20.2094 17.1897 20.1441C17.1621 20.0788 17.1217 20.0197 17.0709 19.9704C16.9688 19.8725 16.8324 19.8187 16.6909 19.8204C16.5497 19.8197 16.4136 19.8734 16.3109 19.9704L13.8709 22.4204C13.8202 22.4698 13.78 22.5289 13.7525 22.5942C13.725 22.6594 13.7109 22.7295 13.7109 22.8004C13.7116 22.8696 13.7261 22.938 13.7536 23.0015C13.7811 23.065 13.821 23.1224 13.8709 23.1704L16.3109 25.6204Z" fill="currentColor"/>
<path d="M25.6892 22.8H25.6392L23.6392 24.8C23.5436 24.9034 23.4905 25.0391 23.4905 25.18C23.4905 25.3208 23.5436 25.4565 23.6392 25.56C23.7414 25.6588 23.877 25.7159 24.0192 25.72C24.09 25.72 24.1601 25.7059 24.2254 25.6784C24.2906 25.651 24.3497 25.6107 24.3992 25.56L26.8492 23.11C26.8978 23.0616 26.9361 23.0038 26.9619 22.9403C26.9877 22.8767 27.0003 22.8086 26.9992 22.74C27.0011 22.6698 26.9888 22.5999 26.963 22.5346C26.9373 22.4693 26.8985 22.4099 26.8492 22.36L24.3992 19.91C24.3492 19.8606 24.2898 19.8219 24.2245 19.7961C24.1592 19.7703 24.0894 19.758 24.0192 19.76C23.9128 19.7578 23.8083 19.7877 23.7191 19.8458C23.63 19.9039 23.5604 19.9875 23.5194 20.0856C23.4785 20.1838 23.468 20.292 23.4893 20.3962C23.5107 20.5005 23.5629 20.5958 23.6392 20.67L25.6892 22.8Z" fill="currentColor"/>
<path d="M18.9591 26.9712C19.0944 27.0157 19.2418 27.0049 19.3691 26.9412C19.4965 26.8775 19.5935 26.7661 19.6391 26.6312L22.0891 19.3012C22.1336 19.166 22.1228 19.0186 22.0591 18.8913C21.9954 18.7639 21.884 18.6669 21.7491 18.6212H21.5791C21.4654 18.6186 21.3538 18.6534 21.2617 18.7202C21.1696 18.787 21.1019 18.8822 21.0691 18.9912L18.6291 26.3212C18.6019 26.3861 18.5879 26.4558 18.5879 26.5262C18.5879 26.5966 18.6019 26.6663 18.6291 26.7312C18.7064 26.8486 18.8237 26.9338 18.9591 26.9712Z" fill="currentColor"/>
<path d="M14.2493 12.4386H13.0293C12.9529 12.4281 12.8752 12.4341 12.8013 12.4562C12.7274 12.4783 12.6592 12.516 12.601 12.5667C12.5429 12.6173 12.4964 12.6799 12.4644 12.7501C12.4325 12.8203 12.416 12.8965 12.416 12.9736C12.416 13.0507 12.4325 13.1269 12.4644 13.1971C12.4964 13.2673 12.5429 13.3298 12.601 13.3805C12.6592 13.4312 12.7274 13.4689 12.8013 13.491C12.8752 13.513 12.9529 13.5191 13.0293 13.5086H14.2493C14.3786 13.4909 14.4972 13.4269 14.583 13.3286C14.6687 13.2302 14.716 13.1041 14.716 12.9736C14.716 12.8431 14.6687 12.717 14.583 12.6186C14.4972 12.5203 14.3786 12.4563 14.2493 12.4386Z" fill="currentColor"/>
<path d="M17.9093 12.4386H16.6893C16.56 12.4563 16.4415 12.5203 16.3557 12.6186C16.2699 12.717 16.2227 12.8431 16.2227 12.9736C16.2227 13.1041 16.2699 13.2302 16.3557 13.3286C16.4415 13.4269 16.56 13.4909 16.6893 13.5086H17.9093C17.9857 13.5191 18.0635 13.513 18.1374 13.491C18.2112 13.4689 18.2795 13.4312 18.3376 13.3805C18.3957 13.3298 18.4423 13.2673 18.4742 13.1971C18.5061 13.1269 18.5227 13.0507 18.5227 12.9736C18.5227 12.8965 18.5061 12.8203 18.4742 12.7501C18.4423 12.6799 18.3957 12.6173 18.3376 12.5667C18.2795 12.516 18.2112 12.4783 18.1374 12.4562C18.0635 12.4341 17.9857 12.4281 17.9093 12.4386Z" fill="currentColor"/>
<path d="M21.5794 12.4386H20.3594C20.283 12.4281 20.2053 12.4341 20.1314 12.4562C20.0575 12.4783 19.9892 12.516 19.9311 12.5667C19.873 12.6173 19.8264 12.6799 19.7945 12.7501C19.7626 12.8203 19.7461 12.8965 19.7461 12.9736C19.7461 13.0507 19.7626 13.1269 19.7945 13.1971C19.8264 13.2673 19.873 13.3298 19.9311 13.3805C19.9892 13.4312 20.0575 13.4689 20.1314 13.491C20.2053 13.513 20.283 13.5191 20.3594 13.5086H21.5794C21.6558 13.5191 21.7336 13.513 21.8074 13.491C21.8813 13.4689 21.9496 13.4312 22.0077 13.3805C22.0658 13.3298 22.1124 13.2673 22.1443 13.1971C22.1762 13.1269 22.1927 13.0507 22.1927 12.9736C22.1927 12.8965 22.1762 12.8203 22.1443 12.7501C22.1124 12.6799 22.0658 12.6173 22.0077 12.5667C21.9496 12.516 21.8813 12.4783 21.8074 12.4562C21.7336 12.4341 21.6558 12.4281 21.5794 12.4386Z" fill="currentColor"/>
</svg>
