<svg viewBox="0 0 40 40" fill="none" xmlns="http://www.w3.org/2000/svg">
<path d="M29.86 25.26V12.47C29.8574 11.814 29.5949 11.1858 29.1301 10.7228C28.6653 10.2599 28.036 9.99999 27.38 10H12.5C12.1685 10.0013 11.8405 10.0682 11.535 10.1969C11.2295 10.3257 10.9525 10.5136 10.72 10.75C10.268 11.2096 10.0102 11.8255 10 12.47V27.38C9.99999 27.7074 10.0648 28.0315 10.1907 28.3337C10.3166 28.6359 10.501 28.9102 10.7334 29.1407C10.9658 29.3713 11.2416 29.5535 11.5448 29.677C11.848 29.8004 12.1726 29.8626 12.5 29.86H27.38C28.0369 29.8574 28.6662 29.5952 29.1307 29.1307C29.5952 28.6662 29.8574 28.0369 29.86 27.38V25.38V25.25V25.26ZM25.61 23.04L28.7 25.52L28.79 25.6V27.38C28.7821 27.7478 28.6298 28.0978 28.3659 28.3541C28.1021 28.6105 27.7479 28.7527 27.38 28.75H12.5C12.3145 28.7508 12.1308 28.715 11.9592 28.6446C11.7876 28.5743 11.6315 28.4707 11.5 28.34C11.3674 28.2098 11.2627 28.0541 11.1922 27.8821C11.1217 27.7102 11.087 27.5258 11.09 27.34V26.47L11.18 26.39L16.25 22.14C16.3917 22.0175 16.5727 21.95 16.76 21.95C16.9522 21.9494 17.1377 22.0208 17.28 22.15L19.8 24.75C20.1157 25.0571 20.5305 25.2414 20.97 25.27C21.4102 25.304 21.8476 25.176 22.2 24.91L24.66 23C24.7961 22.8988 24.9604 22.8428 25.13 22.84C25.2999 22.8407 25.4649 22.8969 25.6 23L25.61 23.04ZM28.78 23.67V24.19L28.38 23.86L26.26 22.18C25.9416 21.9269 25.5468 21.7891 25.14 21.7891C24.7332 21.7891 24.3384 21.9269 24.02 22.18L21.56 23.97C21.4214 24.0831 21.2489 24.1465 21.07 24.15C20.8861 24.1476 20.7091 24.0803 20.57 23.96L18.02 21.44C17.6917 21.1055 17.2481 20.9089 16.7798 20.8904C16.3115 20.8718 15.8538 21.0326 15.5 21.34L11.5 24.75L11.09 25.1V12.47C11.09 12.2853 11.1265 12.1024 11.1975 11.9319C11.2685 11.7614 11.3725 11.6066 11.5036 11.4765C11.6346 11.3464 11.7902 11.2435 11.9612 11.1737C12.1322 11.1039 12.3153 11.0687 12.5 11.07H27.38C27.5658 11.067 27.7502 11.1017 27.9221 11.1722C28.0941 11.2427 28.2498 11.3474 28.38 11.48C28.5107 11.6115 28.6143 11.7676 28.6846 11.9392C28.755 12.1108 28.7908 12.2945 28.79 12.48L28.78 23.67Z" fill="currentColor"/>
<path d="M24.0707 14.3799C23.5919 14.1801 23.0647 14.1269 22.5557 14.227C22.0467 14.3271 21.5788 14.5761 21.2115 14.9424C20.8441 15.3087 20.5938 15.7758 20.4922 16.2845C20.3905 16.7932 20.4422 17.3206 20.6407 17.7999C20.8466 18.2856 21.1953 18.6971 21.6407 18.9799C22.1453 19.3166 22.7511 19.4678 23.3547 19.4076C23.9584 19.3474 24.5224 19.0796 24.9507 18.6499C25.2546 18.3452 25.4788 17.9703 25.6035 17.5584C25.7281 17.1465 25.7494 16.7102 25.6654 16.2881C25.5813 15.8659 25.3946 15.471 25.1217 15.1382C24.8488 14.8054 24.4981 14.545 24.1007 14.3799H24.0707ZM24.3507 17.6599C24.1855 17.917 23.9443 18.1163 23.6607 18.2299C23.3763 18.3487 23.0629 18.3801 22.7607 18.3199C22.4597 18.2581 22.1824 18.1125 21.9607 17.8999C21.7994 17.7357 21.6763 17.5381 21.5999 17.321C21.5235 17.1039 21.4958 16.8727 21.5187 16.6437C21.5416 16.4147 21.6146 16.1936 21.7324 15.9959C21.8502 15.7983 22.0101 15.6289 22.2007 15.4999C22.4548 15.3291 22.7544 15.2386 23.0607 15.2399C23.4736 15.2426 23.8687 15.4079 24.1607 15.6999C24.3062 15.8438 24.4217 16.0151 24.5007 16.2039C24.5796 16.3927 24.6204 16.5953 24.6207 16.7999C24.6216 17.1076 24.5273 17.408 24.3507 17.6599Z" fill="currentColor"/>
</svg>
