<svg viewBox="0 0 40 40" fill="none" xmlns="http://www.w3.org/2000/svg">
<path fill-rule="evenodd" clip-rule="evenodd" d="M13.6873 14.8437C13.6873 15.3096 13.3096 15.6873 12.8437 15.6873C12.3777 15.6873 12 15.3096 12 14.8437C12 14.3777 12.3777 14 12.8437 14C13.3096 14 13.6873 14.3777 13.6873 14.8437ZM16.5121 14.2189H27.3778C27.723 14.2189 28.0028 14.4987 28.0028 14.8439C28.0028 15.189 27.723 15.4688 27.3778 15.4688H16.5121C16.1669 15.4688 15.8871 15.189 15.8871 14.8439C15.8871 14.4987 16.1669 14.2189 16.5121 14.2189ZM16.5121 18.9062H27.3778C27.723 18.9062 28.0028 19.186 28.0028 19.5311C28.0028 19.8763 27.723 20.1561 27.3778 20.1561H16.5121C16.1669 20.1561 15.8871 19.8763 15.8871 19.5311C15.8871 19.186 16.1669 18.9062 16.5121 18.9062ZM27.3778 23.5932H16.5121C16.1669 23.5932 15.8871 23.873 15.8871 24.2181C15.8871 24.5633 16.1669 24.843 16.5121 24.843H27.3778C27.723 24.843 28.0028 24.5633 28.0028 24.2181C28.0028 23.873 27.723 23.5932 27.3778 23.5932ZM12.8437 20.3746C13.3096 20.3746 13.6873 19.9969 13.6873 19.5309C13.6873 19.065 13.3096 18.6873 12.8437 18.6873C12.3777 18.6873 12 19.065 12 19.5309C12 19.9969 12.3777 20.3746 12.8437 20.3746ZM13.6873 24.2179C13.6873 24.6838 13.3096 25.0615 12.8437 25.0615C12.3777 25.0615 12 24.6838 12 24.2179C12 23.7519 12.3777 23.3742 12.8437 23.3742C13.3096 23.3742 13.6873 23.7519 13.6873 24.2179Z" fill="currentColor"/>
</svg>
