<svg viewBox="0 0 40 40" fill="none" xmlns="http://www.w3.org/2000/svg">
<path d="M31.1203 27.6913V13.1213C31.1208 13.0146 31.0898 12.9103 31.031 12.8213C30.9723 12.7323 30.8886 12.6627 30.7903 12.6213L19.7603 8.01125C19.6944 7.99721 19.6263 7.99721 19.5603 8.01125C19.4945 7.99625 19.4262 7.99625 19.3603 8.01125L8.33034 12.6213C8.23049 12.6604 8.14518 12.7294 8.0861 12.819C8.02703 12.9085 7.99707 13.0141 8.00034 13.1213V27.6913C7.99644 27.7998 8.026 27.907 8.08503 27.9982C8.14405 28.0894 8.22969 28.1603 8.33034 28.2013L19.3303 32.8013C19.4402 32.841 19.5605 32.841 19.6703 32.8013L19.8503 32.7413L30.7903 28.2213C30.8926 28.1768 30.9789 28.1023 31.0378 28.0076C31.0968 27.913 31.1255 27.8026 31.1203 27.6913ZM19.5603 9.10125H19.6503L22.9003 10.4613L13.4803 14.6713L9.85034 13.1513L19.5603 9.10125ZM19.0303 31.4913L9.03034 27.3313V14.0013L13.0303 15.6713V19.9713C13.0199 20.0476 13.0259 20.1254 13.048 20.1993C13.0701 20.2731 13.1077 20.3414 13.1584 20.3995C13.2091 20.4576 13.2716 20.5042 13.3418 20.5361C13.412 20.5681 13.4882 20.5846 13.5653 20.5846C13.6424 20.5846 13.7187 20.5681 13.7889 20.5361C13.859 20.5042 13.9216 20.4576 13.9723 20.3995C14.023 20.3414 14.0606 20.2731 14.0827 20.1993C14.1048 20.1254 14.1108 20.0476 14.1003 19.9713V16.1113L19.0003 18.1113L19.0303 31.4913ZM19.5603 17.2213H19.4603L14.8603 15.2213L24.2703 11.0513H24.3703L29.2603 13.0513L28.7103 13.2813L19.5603 17.2213ZM30.0603 27.3413L29.9003 27.4013L20.1203 31.4913V18.1613L20.2703 18.1013L30.0903 14.0013L30.0603 27.3413Z" fill="currentColor"/>
</svg>
