<svg width="40" height="40" viewBox="0 0 40 40" fill="none" xmlns="http://www.w3.org/2000/svg">
<path fill-rule="evenodd" clip-rule="evenodd" d="M20.92 25.67H22.5C22.7095 25.67 22.9105 25.7532 23.0586 25.9014C23.2068 26.0495 23.29 26.2505 23.29 26.46C23.29 26.6695 23.2068 26.8705 23.0586 27.0186C22.9105 27.1668 22.7095 27.25 22.5 27.25H17.75C17.5405 27.25 17.3395 27.1668 17.1914 27.0186C17.0432 26.8705 16.96 26.6695 16.96 26.46C16.96 26.2505 17.0432 26.0495 17.1914 25.9014C17.3395 25.7532 17.5405 25.67 17.75 25.67H19.33V14.58H14.58V16.17C14.58 16.3795 14.4968 16.5805 14.3486 16.7286C14.2005 16.8768 13.9995 16.96 13.79 16.96C13.5805 16.96 13.3795 16.8768 13.2314 16.7286C13.0832 16.5805 13 16.3795 13 16.17V13.79C13 13.5805 13.0832 13.3795 13.2314 13.2314C13.3795 13.0832 13.5805 13 13.79 13H26.5C26.7095 13 26.9105 13.0832 27.0586 13.2314C27.2068 13.3795 27.29 13.5805 27.29 13.79V16.17C27.29 16.3795 27.2068 16.5805 27.0586 16.7286C26.9105 16.8768 26.7095 16.96 26.5 16.96C26.2905 16.96 26.0895 16.8768 25.9414 16.7286C25.7932 16.5805 25.71 16.3795 25.71 16.17V14.58H20.92V25.67Z" fill="#282828"/>
</svg>
