<svg viewBox="0 0 40 40" fill="none" xmlns="http://www.w3.org/2000/svg">
<path d="M19.9 8C17.546 8 15.2448 8.69818 13.2877 10.0062C11.3305 11.3142 9.80527 13.1734 8.90488 15.3484C8.00449 17.5234 7.76942 19.9166 8.22939 22.2253C8.68937 24.5339 9.82373 26.6543 11.489 28.3181C13.1542 29.982 15.2755 31.1145 17.5846 31.5726C19.8936 32.0306 22.2866 31.7935 24.4609 30.8913C26.6351 29.9891 28.493 28.4623 29.7994 26.504C31.1057 24.5457 31.802 22.244 31.8 19.89C31.7947 16.7365 30.5389 13.7138 28.3081 11.4848C26.0773 9.25587 23.0535 8.00264 19.9 8V8ZM19.9 30.54C17.7936 30.54 15.7346 29.9154 13.9832 28.7452C12.2318 27.5749 10.8668 25.9116 10.0607 23.9656C9.25461 22.0195 9.04371 19.8782 9.45464 17.8123C9.86557 15.7464 10.8799 13.8487 12.3693 12.3593C13.8587 10.8699 15.7564 9.85557 17.8223 9.44464C19.8882 9.0337 22.0295 9.24461 23.9756 10.0507C25.9216 10.8568 27.5849 12.2218 28.7552 13.9732C29.9254 15.7246 30.55 17.7836 30.55 19.89C30.5474 22.7137 29.4245 25.4211 27.4278 27.4178C25.4311 29.4145 22.7237 30.5374 19.9 30.54Z" fill="currentColor"/>
<path d="M24.4507 14.879H15.5707C15.481 14.8776 15.392 14.8943 15.3089 14.928C15.2258 14.9617 15.1503 15.0117 15.0869 15.0751C15.0234 15.1386 14.9734 15.2141 14.9397 15.2972C14.906 15.3803 14.8894 15.4693 14.8907 15.559V17.219C14.8907 17.3993 14.9623 17.5723 15.0899 17.6998C15.2174 17.8273 15.3904 17.899 15.5707 17.899C15.751 17.899 15.924 17.8273 16.0515 17.6998C16.1791 17.5723 16.2507 17.3993 16.2507 17.219V16.219H19.3307V23.739H18.3307C18.1504 23.739 17.9774 23.8106 17.8499 23.9381C17.7223 24.0657 17.6507 24.2386 17.6507 24.419C17.6507 24.5993 17.7223 24.7723 17.8499 24.8998C17.9774 25.0273 18.1504 25.099 18.3307 25.099H21.6707C21.851 25.099 22.024 25.0273 22.1515 24.8998C22.2791 24.7723 22.3507 24.5993 22.3507 24.419C22.3507 24.2386 22.2791 24.0657 22.1515 23.9381C22.024 23.8106 21.851 23.739 21.6707 23.739H20.6707V16.239H23.7507V17.239C23.7507 17.4193 23.8223 17.5923 23.9499 17.7198C24.0774 17.8473 24.2504 17.919 24.4307 17.919C24.611 17.919 24.784 17.8473 24.9115 17.7198C25.0391 17.5923 25.1107 17.4193 25.1107 17.239V15.559C25.112 15.471 25.096 15.3836 25.0635 15.3018C25.0311 15.22 24.9828 15.1454 24.9216 15.0823C24.8603 15.0191 24.7871 14.9687 24.7063 14.9338C24.6256 14.8989 24.5387 14.8803 24.4507 14.879Z" fill="currentColor"/>
</svg>
