<svg viewBox="0 0 40 40" fill="none" xmlns="http://www.w3.org/2000/svg">
<path d="M32.4283 27.1124C32.8005 27.4846 32.9866 27.9245 32.9866 28.432C32.9866 28.9396 32.8005 29.3795 32.4283 29.7517L29.7383 32.4417C29.3999 32.8139 28.9601 33 28.4187 33C27.9111 33 27.4712 32.8139 27.099 32.4417L21.1607 26.5033C20.5855 25.9281 20.2302 25.2345 20.0948 24.4224C19.9595 23.6103 20.0779 22.8659 20.4501 22.1892L15.0193 16.7583H11.8725L7 10.2617L10.2483 7.01336L16.745 11.8859V15.0327L22.1758 20.4635C22.8525 20.0913 23.5969 19.9728 24.409 20.1082C25.2211 20.2435 25.9148 20.5988 26.49 21.174L32.4283 27.1124ZM23.8507 18.4333C23.4108 18.4333 22.9879 18.484 22.5818 18.5855L18.4199 14.4236C18.3861 12.3596 19.0797 10.6001 20.5009 9.14507C21.4145 8.23148 22.4803 7.6055 23.6984 7.26713C24.9504 6.92876 26.2024 6.91185 27.4543 7.21638C27.6912 7.28405 27.8265 7.43632 27.8604 7.67317C27.928 7.91003 27.8773 8.09613 27.7081 8.23148L23.9522 12.0381L24.5105 15.4895L27.9619 16.0478L31.7685 12.2919C31.9377 12.1227 32.1238 12.072 32.3268 12.1396C32.5637 12.1735 32.7159 12.3088 32.7836 12.5457C33.0882 13.7638 33.0712 14.9988 32.7329 16.2508C32.3945 17.5028 31.7685 18.5855 30.8549 19.4991C30.212 20.1082 29.4676 20.5988 28.6217 20.971L27.6574 20.0067C26.6084 18.9577 25.3395 18.4333 23.8507 18.4333ZM18.5722 22.5952C18.3353 23.6441 18.4199 24.71 18.826 25.7928L12.5323 32.0357C11.8894 32.6786 11.1112 33 10.1976 33C9.31782 33 8.55649 32.6786 7.91359 32.0357C7.30453 31.4266 7 30.6653 7 29.7517C7 28.8719 7.32145 28.1106 7.96435 27.4677L15.6791 19.7021L18.5722 22.5952ZM9.38549 30.6145C9.62235 30.8514 9.90996 30.9698 10.2483 30.9698C10.5867 30.9698 10.8743 30.8514 11.1112 30.6145C11.348 30.3776 11.4665 30.09 11.4665 29.7517C11.4665 29.4133 11.348 29.1257 11.1112 28.8888C10.8743 28.652 10.5867 28.5335 10.2483 28.5335C9.90996 28.5335 9.62235 28.652 9.38549 28.8888C9.14864 29.1257 9.03021 29.4133 9.03021 29.7517C9.03021 30.09 9.14864 30.3776 9.38549 30.6145Z" fill="currentColor"/>
</svg>
