<svg viewBox="0 0 40 40" fill="none" xmlns="http://www.w3.org/2000/svg">
<path fill-rule="evenodd" clip-rule="evenodd" d="M20 7C27.1797 7 33 12.8203 33 20C33 27.1797 27.1797 33 20 33C12.8203 33 7 27.1797 7 20C7 12.8203 12.8203 7 20 7ZM16.0559 15.2323C15.6911 15.8154 15.5087 16.391 15.5087 16.9592C15.5087 17.2344 15.6238 17.4901 15.854 17.7264C15.9629 17.8412 16.0946 17.932 16.2406 17.9931C16.3865 18.0541 16.5436 18.084 16.7018 18.0808C17.2699 18.0808 17.6557 17.7427 17.859 17.0664C18.0745 16.4204 18.3377 15.9315 18.6486 15.5997C18.9595 15.2679 19.4439 15.1021 20.1018 15.1021C20.6639 15.1022 21.1229 15.2667 21.4789 15.5955C21.6498 15.747 21.786 15.9336 21.8781 16.1426C21.9702 16.3517 22.0161 16.5781 22.0126 16.8065C22.0143 17.0451 21.954 17.28 21.8377 17.4883C21.7214 17.6973 21.5765 17.8891 21.4072 18.058C21.2366 18.2285 20.96 18.4812 20.5773 18.8161C20.2138 19.1287 19.8665 19.4595 19.5366 19.8074C19.2754 20.0919 19.0659 20.42 18.9176 20.7767C18.7622 21.1444 18.6844 21.5794 18.6844 22.0818C18.6844 22.4827 18.7905 22.7847 19.0029 22.9878C19.107 23.0882 19.23 23.1668 19.3648 23.2191C19.4995 23.2715 19.6434 23.2965 19.7879 23.2928C20.3859 23.2929 20.7417 22.9819 20.8554 22.3599C20.9211 22.0669 20.9705 21.8621 21.0035 21.7454C21.038 21.6244 21.0845 21.5072 21.1425 21.3955C21.218 21.2564 21.3098 21.1269 21.4161 21.0096C21.5699 20.8377 21.7331 20.6745 21.905 20.5207C22.6406 19.8629 23.1504 19.3949 23.4345 19.1167C23.7285 18.8254 23.9765 18.4912 24.1701 18.1254C24.3766 17.7426 24.4798 17.2971 24.4798 16.7887C24.4819 16.1499 24.2929 15.5251 23.9371 14.9946C23.5753 14.4443 23.0624 14.0092 22.3984 13.6892C21.7344 13.3692 20.9689 13.2092 20.1018 13.2092C19.169 13.2094 18.3526 13.4008 17.6528 13.7834C16.953 14.1662 16.4207 14.6491 16.0559 15.2323ZM18.9312 26.437C19.1944 26.67 19.5351 26.7964 19.8866 26.7914C20.2317 26.7943 20.5651 26.666 20.8193 26.4325C21.0885 26.1934 21.2231 25.8645 21.2231 25.4457C21.2257 25.2695 21.1929 25.0945 21.1267 24.9312C21.0604 24.7678 20.9621 24.6194 20.8375 24.4948C20.7128 24.3701 20.5645 24.2717 20.4011 24.2054C20.2378 24.1392 20.0628 24.1063 19.8866 24.1089C19.7074 24.1048 19.5293 24.1369 19.3628 24.2032C19.1963 24.2695 19.0449 24.3687 18.9176 24.4948C18.7895 24.6173 18.6882 24.765 18.6202 24.9287C18.5523 25.0925 18.5192 25.2685 18.523 25.4457C18.5229 25.8704 18.6589 26.2009 18.9312 26.437Z" fill="currentColor"/>
</svg>
