<svg width="20" height="20" viewBox="0 0 20 20" fill="none" xmlns="http://www.w3.org/2000/svg">
<path d="M19.5603 15.4711C19.8466 15.7574 19.9897 16.0958 19.9897 16.4862C19.9897 16.8766 19.8466 17.215 19.5603 17.5013L17.491 19.5705C17.2307 19.8568 16.8924 20 16.4759 20C16.0855 20 15.7471 19.8568 15.4608 19.5705L10.8928 15.0026C10.4504 14.5601 10.1771 14.0265 10.0729 13.4018C9.96883 12.7772 10.0599 12.2045 10.3462 11.684L6.1687 7.50642H3.74807L0 2.50899L2.49872 0.0102743L7.49615 3.75835V6.17898L11.6737 10.3565C12.1943 10.0702 12.7669 9.97911 13.3916 10.0832C14.0162 10.1873 14.5498 10.4606 14.9923 10.9031L19.5603 15.4711ZM12.9621 8.79482C12.6237 8.79482 12.2984 8.83386 11.986 8.91195L8.78455 5.71047C8.75852 4.12274 9.2921 2.76927 10.3853 1.65006C11.0881 0.947293 11.9079 0.465769 12.845 0.205486C13.808 -0.0547964 14.7711 -0.0678105 15.7341 0.166444C15.9163 0.218501 16.0204 0.335628 16.0464 0.517826C16.0985 0.700024 16.0595 0.84318 15.9293 0.947293L13.0402 3.87548L13.4696 6.53036L16.1245 6.95983L19.0527 4.07069C19.1828 3.94055 19.326 3.9015 19.4822 3.95356C19.6644 3.97959 19.7815 4.0837 19.8336 4.2659C20.0678 5.20292 20.0548 6.15295 19.7945 7.116C19.5342 8.07904 19.0527 8.91195 18.3499 9.61471C17.8554 10.0832 17.2828 10.4606 16.6321 10.7469L15.8903 10.0051C15.0834 9.19826 14.1073 8.79482 12.9621 8.79482ZM8.90167 11.9963C8.71948 12.8032 8.78455 13.6231 9.09689 14.456L4.25563 19.2582C3.76109 19.7527 3.16244 20 2.45967 20C1.78294 20 1.1973 19.7527 0.702764 19.2582C0.234255 18.7897 0 18.204 0 17.5013C0 16.8245 0.247269 16.2389 0.741806 15.7444L6.67626 9.77088L8.90167 11.9963ZM1.83499 18.165C2.01719 18.3472 2.23843 18.4383 2.49872 18.4383C2.759 18.4383 2.98024 18.3472 3.16244 18.165C3.34464 17.9828 3.43573 17.7616 3.43573 17.5013C3.43573 17.241 3.34464 17.0198 3.16244 16.8376C2.98024 16.6554 2.759 16.5643 2.49872 16.5643C2.23843 16.5643 2.01719 16.6554 1.83499 16.8376C1.6528 17.0198 1.5617 17.241 1.5617 17.5013C1.5617 17.7616 1.6528 17.9828 1.83499 18.165Z" fill="#282828"/>
</svg>
