<svg viewBox="0 0 40 40" fill="none" xmlns="http://www.w3.org/2000/svg">
<path d="M16.4321 10.691C16.6491 10.2675 17.0951 10 17.5813 10H22.4188C22.9049 10 23.3509 10.2675 23.5679 10.691L23.8571 11.25H27.7143C28.4254 11.25 29 11.8098 29 12.5C29 13.1902 28.4254 13.75 27.7143 13.75H12.2857C11.5758 13.75 11 13.1902 11 12.5C11 11.8098 11.5758 11.25 12.2857 11.25H16.1429L16.4321 10.691ZM12.2496 15H27.7143V27.5C27.7143 28.8789 26.5612 30 25.1429 30H14.821C13.4368 30 12.2496 28.8789 12.2496 27.5V15ZM15.4638 18.125V26.875C15.4638 27.2188 15.7893 27.5 16.1067 27.5C16.4964 27.5 16.7496 27.2188 16.7496 26.875V18.125C16.7496 17.7812 16.4964 17.5 16.1067 17.5C15.7893 17.5 15.4638 17.7812 15.4638 18.125ZM19.321 18.125V26.875C19.321 27.2188 19.6464 27.5 19.9638 27.5C20.3536 27.5 20.6429 27.2188 20.6429 26.875V18.125C20.6429 17.7812 20.3536 17.5 19.9638 17.5C19.6464 17.5 19.321 17.7812 19.321 18.125ZM23.2143 18.125V26.875C23.2143 27.2188 23.5036 27.5 23.8571 27.5C24.2107 27.5 24.5 27.2188 24.5 26.875V18.125C24.5 17.7812 24.2107 17.5 23.8571 17.5C23.5036 17.5 23.2143 17.7812 23.2143 18.125Z" fill="currentColor"/>
</svg>
