<svg viewBox="0 0 18 20" fill="none" xmlns="http://www.w3.org/2000/svg">
<path d="M5.43214 0.691016C5.64911 0.2675 6.09509 0 6.58125 0H11.4188C11.9049 0 12.3509 0.2675 12.5679 0.691016L12.8571 1.25H16.7143C17.4254 1.25 18 1.80977 18 2.5C18 3.19023 17.4254 3.75 16.7143 3.75H1.28571C0.575759 3.75 0 3.19023 0 2.5C0 1.80977 0.575759 1.25 1.28571 1.25H5.14286L5.43214 0.691016ZM1.24955 5H16.7143V17.5C16.7143 18.8789 15.5612 20 14.1429 20H3.82098C2.43683 20 1.24955 18.8789 1.24955 17.5V5ZM4.46384 8.125V16.875C4.46384 17.2188 4.78929 17.5 5.1067 17.5C5.49643 17.5 5.74955 17.2188 5.74955 16.875V8.125C5.74955 7.78125 5.49643 7.5 5.1067 7.5C4.78929 7.5 4.46384 7.78125 4.46384 8.125ZM8.32098 8.125V16.875C8.32098 17.2188 8.64643 17.5 8.96384 17.5C9.35357 17.5 9.64286 17.2188 9.64286 16.875V8.125C9.64286 7.78125 9.35357 7.5 8.96384 7.5C8.64643 7.5 8.32098 7.78125 8.32098 8.125ZM12.2143 8.125V16.875C12.2143 17.2188 12.5036 17.5 12.8571 17.5C13.2107 17.5 13.5 17.2188 13.5 16.875V8.125C13.5 7.78125 13.2107 7.5 12.8571 7.5C12.5036 7.5 12.2143 7.78125 12.2143 8.125Z" fill="currentColor"/>
</svg>
