<svg viewBox="0 0 40 40" fill="none" xmlns="http://www.w3.org/2000/svg">
<path d="M27.7143 26.75H12.2857C11.575 26.75 11 27.2531 11 27.875C11 28.4969 11.575 29 12.2857 29H27.7143C28.425 29 29 28.4969 29 27.875C29 27.2531 28.4254 26.75 27.7143 26.75ZM12.9286 13.2504H13.5714V18.8754C13.5714 21.9768 16.4554 24.4687 20 24.4687C23.5446 24.4687 26.4286 21.9452 26.4286 18.8754V13.2504H27.0714C27.7822 13.2504 28.3571 12.7469 28.3571 12.1254C28.3571 11.5038 27.7822 11.032 27.0714 11.032L23.2143 11.0318C22.5035 11.0318 21.9286 11.5353 21.9286 12.1568C21.9286 12.7784 22.5035 13.2818 23.2143 13.2818H23.8571V18.9068C23.8571 20.768 22.1271 22.2502 20 22.2502C17.8729 22.2502 16.1429 20.7066 16.1429 18.875V13.25H16.7857C17.4965 13.25 18.0714 12.7469 18.0714 12.125C18.0714 11.5031 17.4965 11 16.7857 11L12.9286 11.0002C12.2178 11.0002 11.6429 11.5033 11.6429 12.0935C11.6429 12.6838 12.2178 13.2504 12.9286 13.2504Z" fill="currentColor"/>
</svg>
