<svg viewBox="0 0 40 40" fill="none" xmlns="http://www.w3.org/2000/svg">
<path d="M27.537 18.0794C27.4244 18.1881 27.3346 18.3182 27.2728 18.4621C27.211 18.6059 27.1785 18.7606 27.1771 18.9171C27.1758 19.0737 27.2056 19.2289 27.2649 19.3738C27.3241 19.5187 27.4117 19.6504 27.5224 19.7611C27.6331 19.8717 27.7647 19.9593 27.9096 20.0186C28.0545 20.0779 28.2097 20.1077 28.3663 20.1063C28.5228 20.105 28.6775 20.0724 28.8214 20.0106C28.9652 19.9489 29.0953 19.859 29.2041 19.7464L31.0244 17.9261C32.1888 16.7347 32.8365 15.1322 32.827 13.4663C32.8174 11.8004 32.1514 10.2055 30.9734 9.02747C29.7954 7.84949 28.2005 7.18348 26.5346 7.17393C24.8687 7.16439 23.2662 7.81208 22.0748 8.97649L20.2545 10.7968C20.1419 10.9056 20.052 11.0357 19.9902 11.1795C19.9285 11.3234 19.8959 11.4781 19.8946 11.6346C19.8932 11.7912 19.923 11.9464 19.9823 12.0913C20.0416 12.2362 20.1291 12.3678 20.2398 12.4785C20.3505 12.5892 20.4822 12.6768 20.6271 12.736C20.772 12.7953 20.9272 12.8251 21.0838 12.8238C21.2403 12.8224 21.395 12.7899 21.5388 12.7281C21.6827 12.6663 21.8128 12.5765 21.9215 12.4639L23.7419 10.6436C24.1099 10.2715 24.5477 9.9759 25.0304 9.77367C25.513 9.57143 26.0308 9.46659 26.5541 9.46516C27.0774 9.46373 27.5958 9.56574 28.0795 9.76533C28.5632 9.96491 29.0027 10.2581 29.3727 10.6282C29.7428 10.9982 30.036 11.4377 30.2356 11.9214C30.4352 12.4051 30.5372 12.9235 30.5357 13.4468C30.5343 13.9701 30.4295 14.4879 30.2272 14.9705C30.025 15.4532 29.7294 15.891 29.3573 16.259L27.537 18.0794Z" fill="currentColor"/>
<path d="M12.2901 22.0954C12.4027 21.9866 12.4925 21.8565 12.5543 21.7127C12.6161 21.5688 12.6486 21.4141 12.65 21.2576C12.6513 21.101 12.6215 20.9458 12.5622 20.8009C12.5029 20.656 12.4154 20.5244 12.3047 20.4137C12.194 20.303 12.0624 20.2154 11.9175 20.1562C11.7726 20.0969 11.6173 20.067 11.4608 20.0684C11.3042 20.0698 11.1495 20.1023 11.0057 20.1641C10.8619 20.2259 10.7318 20.3157 10.623 20.4283L8.80266 22.2486C7.63825 23.44 6.99056 25.0425 7.0001 26.7084C7.00965 28.3743 7.67566 29.9693 8.85365 31.1473C10.0316 32.3252 11.6266 32.9912 13.2925 33.0008C14.9584 33.0103 16.5609 32.3626 17.7523 31.1982L19.5726 29.3779C19.7874 29.1555 19.9062 28.8577 19.9035 28.5486C19.9008 28.2395 19.7768 27.9438 19.5582 27.7252C19.3397 27.5066 19.044 27.3826 18.7348 27.3799C18.4257 27.3772 18.1279 27.4961 17.9055 27.7108L16.0852 29.5312C15.3391 30.2691 14.3313 30.6817 13.282 30.6788C12.2326 30.676 11.2271 30.2579 10.4851 29.5158C9.74305 28.7738 9.32492 27.7683 9.32205 26.7189C9.31918 25.6696 9.7318 24.6618 10.4697 23.9157L12.2901 22.0954Z" fill="currentColor"/>
<path d="M13.0941 13.0227C12.8565 13.0227 12.6188 12.9321 12.4376 12.7507L9.81104 10.1242C9.4484 9.7616 9.4484 9.17369 9.81104 8.81104C10.1736 8.4484 10.7616 8.4484 11.1242 8.81104L13.7507 11.4375C14.1134 11.8002 14.1134 12.3881 13.7507 12.7507C13.5694 12.932 13.3318 13.0227 13.0941 13.0227Z" fill="currentColor"/>
<path d="M11.6429 16.5232H7.92858C7.41576 16.5232 7 16.1074 7 15.5946C7 15.0818 7.41576 14.666 7.92858 14.666H11.6429C12.1557 14.666 12.5715 15.0818 12.5715 15.5946C12.5715 16.1074 12.1557 16.5232 11.6429 16.5232Z" fill="currentColor"/>
<path d="M16.5946 11.5715C16.0818 11.5715 15.666 11.1557 15.666 10.6429V6.92858C15.666 6.41576 16.0818 6 16.5946 6C17.1074 6 17.5232 6.41576 17.5232 6.92858V10.6429C17.5232 11.1557 17.1074 11.5715 16.5946 11.5715Z" fill="currentColor"/>
<path d="M30.5316 30.4622C30.2939 30.4622 30.0563 30.3716 29.875 30.1902L27.2485 27.5637C26.8859 27.2011 26.8859 26.6131 27.2485 26.2505C27.6111 25.8879 28.1991 25.8879 28.5617 26.2505L31.1882 28.877C31.5509 29.2396 31.5509 29.8275 31.1882 30.1902C31.0069 30.3716 30.7692 30.4622 30.5316 30.4622Z" fill="currentColor"/>
<path d="M24.4051 32.9992C23.8923 32.9992 23.4766 32.5835 23.4766 32.0707V28.3563C23.4766 27.8435 23.8923 27.4277 24.4051 27.4277C24.918 27.4277 25.3337 27.8435 25.3337 28.3563V32.0707C25.3337 32.5835 24.918 32.9992 24.4051 32.9992Z" fill="currentColor"/>
<path d="M33.0707 24.3337H29.3563C28.8435 24.3337 28.4277 23.918 28.4277 23.4051C28.4277 22.8923 28.8435 22.4766 29.3563 22.4766H33.0707C33.5835 22.4766 33.9992 22.8923 33.9992 23.4051C33.9992 23.918 33.5835 24.3337 33.0707 24.3337Z" fill="currentColor"/>
</svg>
