<svg width="16" height="16" viewBox="0 0 16 16" fill="none" xmlns="http://www.w3.org/2000/svg">
<path d="M8.70701 0.29325C8.31601 -0.09775 7.68401 -0.09775 7.29301 0.29325L4.29301 3.29325C3.90201 3.68425 3.90201 4.31625 4.29301 4.70725C4.48801 4.90225 4.74401 5.00025 5.00001 5.00025C5.25601 5.00025 5.51201 4.90225 5.70701 4.70725L7.00001 3.41425V11.0002C7.00001 11.5522 7.44701 12.0002 8.00001 12.0002C8.55301 12.0002 9.00001 11.5522 9.00001 11.0002V3.41425L10.293 4.70725C10.684 5.09825 11.316 5.09825 11.707 4.70725C12.098 4.31625 12.098 3.68425 11.707 3.29325L8.70701 0.29325Z" fill="#282828"/>
<path d="M1 14C0.447715 14 0 14.4477 0 15C0 15.5523 0.447715 16 1 16H15C15.5523 16 16 15.5523 16 15C16 14.4477 15.5523 14 15 14H1Z" fill="#282828"/>
</svg>
