<svg viewBox="0 0 40 40" fill="none" xmlns="http://www.w3.org/2000/svg">
<path d="M21.1489 7.47653C20.5135 6.84116 19.4865 6.84116 18.8511 7.47653L13.9761 12.3515C13.3408 12.9869 13.3408 14.0139 13.9761 14.6493C14.293 14.9662 14.709 15.1254 15.125 15.1254C15.541 15.1254 15.957 14.9662 16.2739 14.6493L18.375 12.5482V24.8754C18.375 25.7724 19.1014 26.5004 20 26.5004C20.8986 26.5004 21.625 25.7724 21.625 24.8754V12.5482L23.7261 14.6493C24.3615 15.2847 25.3885 15.2847 26.0239 14.6493C26.6593 14.0139 26.6593 12.9869 26.0239 12.3515L21.1489 7.47653Z" fill="currentColor"/>
<path d="M8.625 29.75C7.72754 29.75 7 30.4775 7 31.375C7 32.2725 7.72754 33 8.625 33H31.375C32.2725 33 33 32.2725 33 31.375C33 30.4775 32.2725 29.75 31.375 29.75H8.625Z" fill="currentColor"/>
</svg>
