<svg width="40" height="40" viewBox="0 0 40 40" fill="none" xmlns="http://www.w3.org/2000/svg">
<path fill-rule="evenodd" clip-rule="evenodd" d="M29.6326 17.7H13.6326L29.0026 13.24C29.0621 13.2249 29.1177 13.1975 29.1659 13.1596C29.2141 13.1217 29.2539 13.0742 29.2826 13.02C29.3273 12.9042 29.3273 12.7759 29.2826 12.66L28.4726 9.88003C28.315 9.34436 27.9903 8.87306 27.546 8.53487C27.1017 8.19668 26.5609 8.00929 26.0026 8.00003C25.7591 7.99881 25.5166 8.03249 25.2826 8.10003L10.8526 12.28C10.1949 12.4835 9.64317 12.9369 9.31597 13.5427C8.98877 14.1484 8.91217 14.8584 9.10263 15.52L9.89263 18.23V29.41C9.89263 30.1022 10.1676 30.7661 10.6571 31.2556C10.8994 31.4979 11.1872 31.6902 11.5038 31.8214C11.8205 31.9525 12.1599 32.02 12.5026 32.02H27.5026C28.1931 32.0174 28.8544 31.7412 29.3417 31.2521C29.829 30.7629 30.1026 30.1005 30.1026 29.41V18.16C30.1 18.0371 30.0493 17.9201 29.9615 17.8341C29.8736 17.7481 29.7556 17.7 29.6326 17.7ZM25.9426 18.63L23.9426 22.09H21.3626L23.3626 18.63H25.9426ZM22.2726 18.63L20.2726 22.09H17.6826L19.6826 18.63H22.2726ZM18.5926 18.63L16.5926 22.09H14.0126L16.0126 18.63H18.5926ZM14.9226 18.63L12.9226 22.09H10.7926V18.63H14.9226ZM25.5426 9.00003C25.6928 8.96049 25.8474 8.94033 26.0026 8.94003C26.3648 8.93841 26.7177 9.05458 27.0081 9.27103C27.2985 9.48748 27.5107 9.79248 27.6126 10.14L28.2926 12.47L26.4126 13.02L26.3426 12.94L23.0126 9.74003L25.5426 9.00003ZM21.9826 10C21.9966 10.0279 22.0172 10.052 22.0426 10.07L25.3826 13.27L22.8726 14C22.8619 13.9702 22.8405 13.9453 22.8126 13.93L19.4826 10.76L21.9826 10ZM18.4426 11L18.5126 11.07L21.8426 14.28L19.3426 15C19.3287 14.9721 19.3081 14.9481 19.2826 14.93L15.9426 11.78L18.4426 11ZM14.9126 12C14.9306 12.0282 14.9545 12.0521 14.9826 12.07L18.3126 15.28L15.8126 16L15.7526 15.93L12.4126 12.81L14.9126 12ZM9.97263 15.26C9.90656 15.0507 9.88402 14.83 9.90637 14.6116C9.92873 14.3932 9.99552 14.1817 10.1026 13.99C10.2079 13.7959 10.3504 13.6245 10.522 13.4855C10.6936 13.3465 10.8909 13.2427 11.1026 13.18L11.3726 13.1L11.4326 13.18L14.7726 16.38L10.6326 17.58L9.97263 15.26ZM29.1626 29.41C29.1626 29.8529 28.9867 30.2777 28.6735 30.5909C28.3603 30.9041 27.9355 31.08 27.4926 31.08H12.4926C12.0497 31.08 11.6249 30.9041 11.3118 30.5909C10.9986 30.2777 10.8226 29.8529 10.8226 29.41V23.02H29.1626V29.41ZM29.1626 22.09H25.0426L27.0426 18.63H29.1726L29.1626 22.09Z" fill="#282828"/>
<path fill-rule="evenodd" clip-rule="evenodd" d="M22.9821 26.6004L18.8621 24.2204C18.7918 24.1759 18.7103 24.1523 18.6271 24.1523C18.544 24.1523 18.4625 24.1759 18.3921 24.2204C18.3226 24.2616 18.265 24.3201 18.2247 24.3902C18.1844 24.4603 18.1629 24.5395 18.1621 24.6204V29.3804C18.1611 29.4629 18.1818 29.5442 18.2222 29.6162C18.2626 29.6882 18.3212 29.7482 18.3921 29.7904C18.4663 29.829 18.5485 29.8496 18.6321 29.8504C18.7127 29.8509 18.7921 29.8302 18.8621 29.7904L22.9821 27.4104C23.0553 27.371 23.1164 27.3125 23.159 27.2412C23.2015 27.1699 23.224 27.0884 23.224 27.0054C23.224 26.9223 23.2015 26.8408 23.159 26.7695C23.1164 26.6982 23.0553 26.6397 22.9821 26.6004ZM19.1021 28.5704V25.4704L21.8121 27.0304L19.1021 28.5704Z" fill="#282828"/>
</svg>
