<svg viewBox="0 0 22 19" fill="none" xmlns="http://www.w3.org/2000/svg">
<path d="M21.7544 16.3281L12.5888 0.890625C11.8871 -0.296875 10.1163 -0.296875 9.40986 0.890625L0.248598 16.3281C-0.456544 17.5114 0.421726 19 1.83506 19H20.1662C21.5739 19 22.4548 17.5156 21.7544 16.3281ZM9.96762 5.76786C9.96762 5.20591 10.4295 4.75 10.9989 4.75C11.5683 4.75 12.0302 5.20804 12.0302 5.76786V11.1964C12.0302 11.7584 11.5683 12.2143 11.0376 12.2143C10.5069 12.2143 9.96762 11.7605 9.96762 11.1964V5.76786ZM10.9989 16.2857C10.2529 16.2857 9.64792 15.6886 9.64792 14.9523C9.64792 14.2161 10.2525 13.6189 10.9989 13.6189C11.7453 13.6189 12.3499 14.2161 12.3499 14.9523C12.3482 15.6877 11.7466 16.2857 10.9989 16.2857Z" fill="currentColor"/>
</svg>
