<svg viewBox="0 0 40 40" fill="none" xmlns="http://www.w3.org/2000/svg">
<path d="M34.6651 28.3594L22.1666 8.04688C21.2097 6.48438 18.795 6.48438 17.8316 8.04688L5.339 28.3594C4.37744 29.9163 5.57508 31.875 7.50236 31.875H32.4993C34.4189 31.875 35.6202 29.9219 34.6651 28.3594ZM18.5922 14.4643C18.5922 13.7249 19.2221 13.125 19.9985 13.125C20.7749 13.125 21.4048 13.7277 21.4048 14.4643V21.6071C21.4048 22.3465 20.7749 22.9464 20.0512 22.9464C19.3276 22.9464 18.5922 22.3493 18.5922 21.6071V14.4643ZM19.9985 28.3036C18.9813 28.3036 18.1563 27.5179 18.1563 26.5491C18.1563 25.5804 18.9807 24.7946 19.9985 24.7946C21.0163 24.7946 21.8408 25.5804 21.8408 26.5491C21.8384 27.5167 21.0181 28.3036 19.9985 28.3036Z" fill="#FFA800"/>
</svg>
